<?xml version="1.0" encoding="UTF-8"?>
<!-- Surface 3 — Broker Topology: View 1 Full topology map (Kafka + producer/consumer fan-out) -->
<svg width="1440" height="960" viewBox="0 0 1440 960" xmlns="http://www.w3.org/2000/svg" font-family="'Inter', 'SF Pro Display', system-ui, sans-serif">
  <defs>
    <style>
      text { font-family: 'Inter', 'SF Pro Display', system-ui, sans-serif; }
      .mono { font-family: 'JetBrains Mono', 'Fira Code', 'Consolas', monospace; }
    </style>
    <!-- Topic node glows by broker type -->
    <radialGradient id="kafkaGlow" cx="50%" cy="50%" r="50%">
      <stop offset="0%" stop-color="#F59E0B" stop-opacity="0.55"/>
      <stop offset="60%" stop-color="#F59E0B" stop-opacity="0.12"/>
      <stop offset="100%" stop-color="#F59E0B" stop-opacity="0"/>
    </radialGradient>
    <radialGradient id="rabbitGlow" cx="50%" cy="50%" r="50%">
      <stop offset="0%" stop-color="#F43F5E" stop-opacity="0.55"/>
      <stop offset="60%" stop-color="#F43F5E" stop-opacity="0.12"/>
      <stop offset="100%" stop-color="#F43F5E" stop-opacity="0"/>
    </radialGradient>
    <radialGradient id="sqsGlow" cx="50%" cy="50%" r="50%">
      <stop offset="0%" stop-color="#3B82F6" stop-opacity="0.55"/>
      <stop offset="60%" stop-color="#3B82F6" stop-opacity="0.12"/>
      <stop offset="100%" stop-color="#3B82F6" stop-opacity="0"/>
    </radialGradient>
    <radialGradient id="natsGlow" cx="50%" cy="50%" r="50%">
      <stop offset="0%" stop-color="#A855F7" stop-opacity="0.55"/>
      <stop offset="60%" stop-color="#A855F7" stop-opacity="0.12"/>
      <stop offset="100%" stop-color="#A855F7" stop-opacity="0"/>
    </radialGradient>
    <!-- Repo color assignments for producer/consumer nodes -->
    <!-- acme-api = #22C55E, acme-frontend = #3B82F6, acme-workers = #F43F5E, acme-mobile = #A855F7 -->
  </defs>

  <!-- BACKGROUND -->
  <rect width="1440" height="960" fill="#060912"/>

  <!-- TOP NAV -->
  <rect width="1440" height="48" fill="#141920" stroke="#1E2733" stroke-width="1"/>
  <rect x="16" y="14" width="8" height="8" rx="2" fill="#22C55E"/>
  <rect x="28" y="14" width="8" height="8" rx="2" fill="#3B82F6"/>
  <text x="44" y="28" font-size="13" font-weight="600" fill="#E2E8F0" letter-spacing="-0.3px">archigraph</text>
  <text x="148" y="28" font-size="12" fill="#64748B">Graph</text>
  <text x="193" y="28" font-size="12" fill="#64748B">Flows</text>
  <rect x="218" y="6" width="72" height="36" rx="4" fill="#1E2733"/>
  <text x="254" y="28" font-size="12" font-weight="500" fill="#22C55E" text-anchor="middle">Topology</text>
  <text x="305" y="28" font-size="12" fill="#64748B">API</text>
  <text x="347" y="28" font-size="12" fill="#64748B">Docs</text>
  <rect x="1200" y="10" width="140" height="28" rx="6" fill="#1E2733" stroke="#2D3748" stroke-width="1"/>
  <text x="1215" y="28" font-size="11" fill="#94A3B8">Group:</text>
  <text x="1260" y="28" font-size="11" font-weight="500" fill="#E2E8F0">acme-platform</text>
  <text x="1330" y="28" font-size="11" fill="#64748B">▾</text>
  <circle cx="1410" cy="24" r="14" fill="#1E2733" stroke="#2D3748" stroke-width="1"/>
  <text x="1410" y="29" font-size="11" fill="#94A3B8" text-anchor="middle">JC</text>

  <!-- ==================== LEFT SIDEBAR ==================== -->
  <rect x="0" y="48" width="220" height="912" fill="#0C1118" stroke="#1E2733" stroke-width="1"/>

  <!-- Broker legend -->
  <text x="16" y="82" font-size="11" font-weight="600" fill="#64748B" letter-spacing="0.05em">BROKERS</text>

  <!-- Kafka -->
  <rect x="8" y="92" width="204" height="28" rx="4" fill="#1A2333"/>
  <rect x="8" y="96" width="2" height="20" rx="1" fill="#F59E0B"/>
  <rect x="18" y="100" width="14" height="14" rx="3" fill="#1B1000" stroke="#F59E0B" stroke-width="1"/>
  <text x="26" y="111" font-size="9" fill="#F59E0B" text-anchor="middle" font-weight="700">K</text>
  <text x="40" y="112" font-size="12" font-weight="500" fill="#CBD5E1">Kafka</text>
  <rect x="168" y="99" width="36" height="14" rx="7" fill="#1B1000"/>
  <text x="186" y="111" font-size="9" fill="#F59E0B" text-anchor="middle">8 topics</text>

  <!-- RabbitMQ -->
  <rect x="8" y="124" width="204" height="28" rx="4" fill="transparent"/>
  <rect x="18" y="132" width="14" height="14" rx="3" fill="#1E0808" stroke="#F43F5E" stroke-width="1"/>
  <text x="26" y="143" font-size="9" fill="#F43F5E" text-anchor="middle" font-weight="700">R</text>
  <text x="40" y="144" font-size="12" fill="#94A3B8">RabbitMQ</text>
  <rect x="168" y="131" width="36" height="14" rx="7" fill="#1A1230"/>
  <text x="186" y="143" font-size="9" fill="#64748B" text-anchor="middle">3 queues</text>

  <!-- SQS -->
  <rect x="8" y="156" width="204" height="28" rx="4" fill="transparent"/>
  <rect x="18" y="164" width="14" height="14" rx="3" fill="#0D1A2E" stroke="#3B82F6" stroke-width="1"/>
  <text x="26" y="175" font-size="9" fill="#3B82F6" text-anchor="middle" font-weight="700">S</text>
  <text x="40" y="176" font-size="12" fill="#64748B">SQS</text>
  <rect x="168" y="163" width="36" height="14" rx="7" fill="#1A1230"/>
  <text x="186" y="175" font-size="9" fill="#475569" text-anchor="middle">2 queues</text>

  <!-- NATS -->
  <rect x="8" y="188" width="204" height="28" rx="4" fill="transparent"/>
  <rect x="18" y="196" width="14" height="14" rx="3" fill="#1A0D30" stroke="#A855F7" stroke-width="1"/>
  <text x="26" y="207" font-size="9" fill="#A855F7" text-anchor="middle" font-weight="700">N</text>
  <text x="40" y="208" font-size="12" fill="#64748B">NATS</text>
  <rect x="168" y="195" width="36" height="14" rx="7" fill="#1A1230"/>
  <text x="186" y="207" font-size="9" fill="#475569" text-anchor="middle">4 subj.</text>

  <rect x="16" y="226" width="188" height="1" fill="#1E2733"/>

  <!-- Repo color key -->
  <text x="16" y="246" font-size="11" font-weight="600" fill="#64748B" letter-spacing="0.05em">REPOS (producers)</text>
  <circle cx="24" cy="264" r="5" fill="#22C55E"/>
  <text x="36" y="268" font-size="11" fill="#94A3B8">acme-api</text>
  <circle cx="24" cy="284" r="5" fill="#3B82F6"/>
  <text x="36" y="288" font-size="11" fill="#94A3B8">acme-frontend</text>
  <circle cx="24" cy="304" r="5" fill="#F43F5E"/>
  <text x="36" y="308" font-size="11" fill="#94A3B8">acme-workers</text>
  <circle cx="24" cy="324" r="5" fill="#A855F7"/>
  <text x="36" y="328" font-size="11" fill="#94A3B8">acme-mobile</text>

  <rect x="16" y="338" width="188" height="1" fill="#1E2733"/>

  <!-- Stats -->
  <text x="16" y="358" font-size="11" font-weight="600" fill="#64748B" letter-spacing="0.05em">TOPOLOGY STATS</text>
  <text x="16" y="378" font-size="11" fill="#64748B">Topics / Queues</text>
  <text x="204" y="378" font-size="11" fill="#94A3B8" text-anchor="end">17</text>
  <text x="16" y="396" font-size="11" fill="#64748B">Producers</text>
  <text x="204" y="396" font-size="11" fill="#94A3B8" text-anchor="end">31</text>
  <text x="16" y="414" font-size="11" fill="#64748B">Consumers</text>
  <text x="204" y="414" font-size="11" fill="#94A3B8" text-anchor="end">28</text>
  <text x="16" y="432" font-size="11" fill="#64748B">Transforms</text>
  <text x="204" y="432" font-size="11" fill="#94A3B8" text-anchor="end">6</text>

  <rect x="16" y="444" width="188" height="1" fill="#1E2733"/>

  <!-- ScheduledJobs sidebar list -->
  <text x="16" y="464" font-size="11" font-weight="600" fill="#64748B" letter-spacing="0.05em">SCHEDULED JOBS</text>
  <text x="204" y="464" font-size="9" fill="#334155" text-anchor="end">4 total</text>

  <!-- Job items -->
  <rect x="8" y="472" width="204" height="26" rx="4" fill="#141920"/>
  <text x="20" y="487" font-size="9" fill="#94A3B8" class="mono">cleanup_expired_sessions</text>
  <text x="20" y="499" font-size="8" fill="#475569">every 1h · acme-workers</text>

  <rect x="8" y="502" width="204" height="26" rx="4" fill="transparent"/>
  <text x="20" y="517" font-size="9" fill="#64748B" class="mono">send_digest_emails</text>
  <text x="20" y="529" font-size="8" fill="#475569">daily 08:00 UTC</text>

  <rect x="8" y="532" width="204" height="26" rx="4" fill="transparent"/>
  <text x="20" y="547" font-size="9" fill="#64748B" class="mono">rebuild_search_index</text>
  <text x="20" y="559" font-size="8" fill="#475569">every 30m · acme-api</text>

  <rect x="8" y="562" width="204" height="26" rx="4" fill="transparent"/>
  <text x="20" y="577" font-size="9" fill="#64748B" class="mono">sync_analytics</text>
  <text x="20" y="589" font-size="8" fill="#475569">every 15m · acme-workers</text>

  <!-- ==================== FILTER STRIP ==================== -->
  <rect x="220" y="48" width="1220" height="44" fill="#0E1117"/>
  <rect x="220" y="91" width="1220" height="1" fill="#1E2733"/>

  <!-- Protocol filter chips -->
  <text x="234" y="76" font-size="10" fill="#64748B">Protocol:</text>

  <!-- Kafka chip - active -->
  <rect x="286" y="58" width="52" height="24" rx="12" fill="#1B1000" stroke="#F59E0B" stroke-width="1.5"/>
  <text x="312" y="74" font-size="10" fill="#F59E0B" text-anchor="middle" font-weight="500">Kafka</text>

  <!-- RabbitMQ chip - active -->
  <rect x="344" y="58" width="72" height="24" rx="12" fill="#1E0808" stroke="#F43F5E" stroke-width="1.5"/>
  <text x="380" y="74" font-size="10" fill="#F43F5E" text-anchor="middle" font-weight="500">RabbitMQ</text>

  <!-- SQS chip -->
  <rect x="422" y="58" width="44" height="24" rx="12" fill="#1E2733" stroke="#2D3748" stroke-width="1"/>
  <text x="444" y="74" font-size="10" fill="#64748B" text-anchor="middle">SQS</text>

  <!-- Pub-Sub chip -->
  <rect x="472" y="58" width="60" height="24" rx="12" fill="#1E2733" stroke="#2D3748" stroke-width="1"/>
  <text x="502" y="74" font-size="10" fill="#64748B" text-anchor="middle">Pub-Sub</text>

  <!-- NATS chip - active -->
  <rect x="538" y="58" width="44" height="24" rx="12" fill="#1A0D30" stroke="#A855F7" stroke-width="1.5"/>
  <text x="560" y="74" font-size="10" fill="#A855F7" text-anchor="middle" font-weight="500">NATS</text>

  <!-- WS chip -->
  <rect x="588" y="58" width="36" height="24" rx="12" fill="#1E2733" stroke="#2D3748" stroke-width="1"/>
  <text x="606" y="74" font-size="10" fill="#64748B" text-anchor="middle">WS</text>

  <!-- SSE chip -->
  <rect x="630" y="58" width="38" height="24" rx="12" fill="#1E2733" stroke="#2D3748" stroke-width="1"/>
  <text x="649" y="74" font-size="10" fill="#64748B" text-anchor="middle">SSE</text>

  <!-- GraphQL chip -->
  <rect x="674" y="58" width="66" height="24" rx="12" fill="#1E2733" stroke="#2D3748" stroke-width="1"/>
  <text x="707" y="74" font-size="10" fill="#64748B" text-anchor="middle">GraphQL</text>

  <!-- Divider -->
  <rect x="752" y="62" width="1" height="16" fill="#1E2733"/>

  <!-- Repo filter chips -->
  <text x="762" y="76" font-size="10" fill="#64748B">Repo:</text>
  <rect x="798" y="60" width="72" height="20" rx="10" fill="#0D2020" stroke="#22C55E" stroke-width="1"/>
  <text x="834" y="74" font-size="9" fill="#22C55E" text-anchor="middle">acme-api</text>
  <rect x="876" y="60" width="88" height="20" rx="10" fill="#0D1A2E" stroke="#3B82F6" stroke-width="1"/>
  <text x="920" y="74" font-size="9" fill="#3B82F6" text-anchor="middle">acme-frontend</text>
  <rect x="970" y="60" width="84" height="20" rx="10" fill="#1E0808" stroke="#F43F5E" stroke-width="1"/>
  <text x="1012" y="74" font-size="9" fill="#F43F5E" text-anchor="middle">acme-workers</text>

  <!-- ==================== MAIN TOPOLOGY CANVAS ==================== -->
  <rect x="220" y="92" width="1220" height="868" fill="#07091499"/>

  <!-- ===== KAFKA TOPIC: user.events ===== -->
  <!-- Topic node at ~550,260 -->
  <circle cx="550" cy="260" r="56" fill="url(#kafkaGlow)"/>
  <circle cx="550" cy="260" r="28" fill="#1B1000" fill-opacity="0.9" stroke="#F59E0B" stroke-width="1.5"/>
  <!-- Kafka icon inner: K letter -->
  <text x="550" y="255" font-size="11" fill="#F59E0B" text-anchor="middle" font-weight="700">K</text>
  <text x="550" y="268" font-size="8" fill="#F59E0B" text-anchor="middle">kafka</text>

  <!-- Topic label badge below -->
  <rect x="488" y="294" width="124" height="22" rx="11" fill="#1B1000" stroke="#F59E0B" stroke-width="1"/>
  <text x="550" y="309" font-size="10" fill="#F59E0B" text-anchor="middle" font-weight="600" class="mono">user.events</text>

  <!-- PRODUCER spokes: arcs from topic outward (colored by repo) -->
  <!-- Producer: UserService (acme-api = green) -->
  <line x1="550" y1="232" x2="460" y2="136" stroke="#22C55E" stroke-width="2" stroke-opacity="0.75" stroke-dasharray="0"/>
  <!-- Arrow head -->
  <polygon points="457,128 468,143 450,144" fill="#22C55E" fill-opacity="0.75"/>
  <rect x="376" y="108" width="76" height="22" rx="4" fill="#0D2020" stroke="#22C55E" stroke-width="1"/>
  <text x="414" y="123" font-size="9" fill="#22C55E" text-anchor="middle" class="mono">UserService</text>
  <text x="414" y="135" font-size="8" fill="#475569" text-anchor="middle">acme-api</text>

  <!-- Producer: AuthMiddleware (acme-api = green) -->
  <line x1="523" y1="234" x2="380" y2="200" stroke="#22C55E" stroke-width="1.5" stroke-opacity="0.65"/>
  <polygon points="374,194 383,206 370,208" fill="#22C55E" fill-opacity="0.65"/>
  <rect x="286" y="182" width="86" height="22" rx="4" fill="#0D2020" stroke="#22C55E" stroke-width="1"/>
  <text x="329" y="197" font-size="9" fill="#22C55E" text-anchor="middle" class="mono">AuthMiddleware</text>
  <text x="329" y="209" font-size="8" fill="#475569" text-anchor="middle">acme-api</text>

  <!-- CONSUMER spokes: from topic to consumers -->
  <!-- Consumer: NotificationWorker (acme-workers = red) -->
  <line x1="574" y1="235" x2="720" y2="156" stroke="#F43F5E" stroke-width="2" stroke-opacity="0.75"/>
  <polygon points="726,150 717,163 728,165" fill="#F43F5E" fill-opacity="0.75"/>
  <rect x="726" y="132" width="100" height="22" rx="4" fill="#1E0808" stroke="#F43F5E" stroke-width="1"/>
  <text x="776" y="147" font-size="9" fill="#F43F5E" text-anchor="middle" class="mono">NotificationWorker</text>
  <text x="776" y="159" font-size="8" fill="#475569" text-anchor="middle">acme-workers</text>

  <!-- Consumer: AnalyticsConsumer (acme-api = green) -->
  <line x1="578" y1="244" x2="730" y2="224" stroke="#22C55E" stroke-width="1.5" stroke-opacity="0.6"/>
  <polygon points="736,218 726,228 728,217" fill="#22C55E" fill-opacity="0.6"/>
  <rect x="738" y="212" width="90" height="22" rx="4" fill="#0D2020" stroke="#22C55E" stroke-width="1"/>
  <text x="783" y="227" font-size="9" fill="#22C55E" text-anchor="middle" class="mono">AnalyticsConsumer</text>
  <text x="783" y="239" font-size="8" fill="#475569" text-anchor="middle">acme-api</text>

  <!-- Consumer: EmailProcessor (acme-workers = red) -->
  <line x1="568" y1="286" x2="700" y2="320" stroke="#F43F5E" stroke-width="1.5" stroke-opacity="0.6"/>
  <polygon points="706,314 695,325 697,314" fill="#F43F5E" fill-opacity="0.6"/>
  <rect x="706" y="308" width="86" height="22" rx="4" fill="#1E0808" stroke="#F43F5E" stroke-width="1"/>
  <text x="749" y="323" font-size="9" fill="#F43F5E" text-anchor="middle" class="mono">EmailProcessor</text>
  <text x="749" y="335" font-size="8" fill="#475569" text-anchor="middle">acme-workers</text>

  <!-- ===== KAFKA TOPIC: order.created ===== -->
  <circle cx="820" cy="400" r="52" fill="url(#kafkaGlow)"/>
  <circle cx="820" cy="400" r="26" fill="#1B1000" fill-opacity="0.9" stroke="#F59E0B" stroke-width="1.5"/>
  <text x="820" y="395" font-size="11" fill="#F59E0B" text-anchor="middle" font-weight="700">K</text>
  <text x="820" y="408" font-size="8" fill="#F59E0B" text-anchor="middle">kafka</text>
  <rect x="758" y="432" width="124" height="22" rx="11" fill="#1B1000" stroke="#F59E0B" stroke-width="1"/>
  <text x="820" y="447" font-size="10" fill="#F59E0B" text-anchor="middle" font-weight="600" class="mono">order.created</text>

  <!-- Producers -->
  <line x1="800" y1="374" x2="680" y2="304" stroke="#22C55E" stroke-width="2" stroke-opacity="0.75"/>
  <polygon points="676,297 686,310 674,312" fill="#22C55E" fill-opacity="0.75"/>
  <rect x="590" y="286" width="84" height="22" rx="4" fill="#0D2020" stroke="#22C55E" stroke-width="1"/>
  <text x="632" y="301" font-size="9" fill="#22C55E" text-anchor="middle" class="mono">OrderViewSet</text>
  <text x="632" y="313" font-size="8" fill="#475569" text-anchor="middle">acme-api</text>

  <!-- Consumer: InventoryWorker -->
  <line x1="845" y1="374" x2="980" y2="300" stroke="#F43F5E" stroke-width="2" stroke-opacity="0.75"/>
  <polygon points="986,294 976,307 978,296" fill="#F43F5E" fill-opacity="0.75"/>
  <rect x="986" y="282" width="90" height="22" rx="4" fill="#1E0808" stroke="#F43F5E" stroke-width="1"/>
  <text x="1031" y="297" font-size="9" fill="#F43F5E" text-anchor="middle" class="mono">InventoryWorker</text>
  <text x="1031" y="309" font-size="8" fill="#475569" text-anchor="middle">acme-workers</text>

  <!-- Consumer: PaymentProcessor -->
  <line x1="848" y1="382" x2="1000" y2="370" stroke="#F43F5E" stroke-width="1.5" stroke-opacity="0.65"/>
  <polygon points="1006,364 996,375 998,364" fill="#F43F5E" fill-opacity="0.65"/>
  <rect x="1006" y="358" width="92" height="22" rx="4" fill="#1E0808" stroke="#F43F5E" stroke-width="1"/>
  <text x="1052" y="373" font-size="9" fill="#F43F5E" text-anchor="middle" class="mono">PaymentProcessor</text>
  <text x="1052" y="385" font-size="8" fill="#475569" text-anchor="middle">acme-workers</text>

  <!-- TRANSFORM edge: user.events → order.created (topic→topic dashed) -->
  <line x1="605" y1="268" x2="768" y2="396" stroke="#64748B" stroke-width="1.5" stroke-dasharray="5,5" stroke-opacity="0.5"/>
  <!-- Transform label -->
  <rect x="662" y="318" width="66" height="18" rx="9" fill="#1A2230" stroke="#64748B" stroke-width="1"/>
  <text x="695" y="331" font-size="8" fill="#64748B" text-anchor="middle">TRANSFORMS</text>

  <!-- ===== RABBITMQ QUEUE: email.queue ===== -->
  <circle cx="400" cy="540" r="44" fill="url(#rabbitGlow)"/>
  <circle cx="400" cy="540" r="22" fill="#1E0808" fill-opacity="0.9" stroke="#F43F5E" stroke-width="1.5"/>
  <text x="400" y="536" font-size="10" fill="#F43F5E" text-anchor="middle" font-weight="700">R</text>
  <text x="400" y="549" font-size="8" fill="#F43F5E" text-anchor="middle">rabbit</text>
  <rect x="340" y="570" width="120" height="22" rx="11" fill="#1E0808" stroke="#F43F5E" stroke-width="1"/>
  <text x="400" y="585" font-size="10" fill="#F43F5E" text-anchor="middle" font-weight="600" class="mono">email.queue</text>

  <!-- Producer -->
  <line x1="378" y1="520" x2="310" y2="454" stroke="#22C55E" stroke-width="1.5" stroke-opacity="0.7"/>
  <polygon points="306,447 315,460 304,461" fill="#22C55E" fill-opacity="0.7"/>
  <rect x="228" y="434" width="72" height="22" rx="4" fill="#0D2020" stroke="#22C55E" stroke-width="1"/>
  <text x="264" y="449" font-size="9" fill="#22C55E" text-anchor="middle" class="mono">UserViewSet</text>
  <text x="264" y="461" font-size="8" fill="#475569" text-anchor="middle">acme-api</text>

  <!-- Consumer -->
  <line x1="422" y1="520" x2="530" y2="460" stroke="#F43F5E" stroke-width="1.5" stroke-opacity="0.7"/>
  <polygon points="536,454 526,467 528,456" fill="#F43F5E" fill-opacity="0.7"/>
  <rect x="536" y="444" width="82" height="22" rx="4" fill="#1E0808" stroke="#F43F5E" stroke-width="1"/>
  <text x="577" y="459" font-size="9" fill="#F43F5E" text-anchor="middle" class="mono">EmailHandler</text>
  <text x="577" y="471" font-size="8" fill="#475569" text-anchor="middle">acme-workers</text>

  <!-- ===== NATS SUBJECT: notifications.push ===== -->
  <circle cx="1060" cy="560" r="46" fill="url(#natsGlow)"/>
  <circle cx="1060" cy="560" r="23" fill="#1A0D30" fill-opacity="0.9" stroke="#A855F7" stroke-width="1.5"/>
  <text x="1060" y="555" font-size="10" fill="#A855F7" text-anchor="middle" font-weight="700">N</text>
  <text x="1060" y="568" font-size="8" fill="#A855F7" text-anchor="middle">nats</text>
  <rect x="980" y="592" width="160" height="22" rx="11" fill="#1A0D30" stroke="#A855F7" stroke-width="1"/>
  <text x="1060" y="607" font-size="10" fill="#A855F7" text-anchor="middle" font-weight="600" class="mono">notifications.push</text>

  <!-- Producer: PushService -->
  <line x1="1040" y1="534" x2="960" y2="464" stroke="#22C55E" stroke-width="2" stroke-opacity="0.75"/>
  <polygon points="956,457 965,470 954,471" fill="#22C55E" fill-opacity="0.75"/>
  <rect x="866" y="446" width="86" height="22" rx="4" fill="#0D2020" stroke="#22C55E" stroke-width="1"/>
  <text x="909" y="461" font-size="9" fill="#22C55E" text-anchor="middle" class="mono">PushService</text>
  <text x="909" y="473" font-size="8" fill="#475569" text-anchor="middle">acme-api</text>

  <!-- Consumer: MobileApp -->
  <line x1="1082" y1="534" x2="1200" y2="460" stroke="#A855F7" stroke-width="1.5" stroke-opacity="0.7"/>
  <polygon points="1206,454 1196,467 1198,456" fill="#A855F7" fill-opacity="0.7"/>
  <rect x="1206" y="444" width="78" height="22" rx="4" fill="#1A0D30" stroke="#A855F7" stroke-width="1"/>
  <text x="1245" y="459" font-size="9" fill="#A855F7" text-anchor="middle" class="mono">MobileApp</text>
  <text x="1245" y="471" font-size="8" fill="#475569" text-anchor="middle">acme-mobile</text>

  <!-- Consumer: WebDashboard -->
  <line x1="1084" y1="542" x2="1220" y2="528" stroke="#3B82F6" stroke-width="1.5" stroke-opacity="0.7"/>
  <polygon points="1226,522 1216,533 1218,522" fill="#3B82F6" fill-opacity="0.7"/>
  <rect x="1226" y="516" width="80" height="22" rx="4" fill="#0D1A2E" stroke="#3B82F6" stroke-width="1"/>
  <text x="1266" y="531" font-size="9" fill="#3B82F6" text-anchor="middle" class="mono">WebDashboard</text>
  <text x="1266" y="543" font-size="8" fill="#475569" text-anchor="middle">acme-frontend</text>

  <!-- ===== SQS QUEUE: async-tasks ===== -->
  <circle cx="700" cy="680" r="40" fill="url(#sqsGlow)"/>
  <circle cx="700" cy="680" r="20" fill="#0D1A2E" fill-opacity="0.9" stroke="#3B82F6" stroke-width="1.5"/>
  <text x="700" y="675" font-size="10" fill="#3B82F6" text-anchor="middle" font-weight="700">S</text>
  <text x="700" y="688" font-size="8" fill="#3B82F6" text-anchor="middle">sqs</text>
  <rect x="634" y="708" width="132" height="22" rx="11" fill="#0D1A2E" stroke="#3B82F6" stroke-width="1"/>
  <text x="700" y="723" font-size="10" fill="#3B82F6" text-anchor="middle" font-weight="600" class="mono">async-tasks</text>

  <!-- Producer -->
  <line x1="680" y1="658" x2="580" y2="600" stroke="#22C55E" stroke-width="1.5" stroke-opacity="0.7"/>
  <polygon points="575,594 585,607 573,608" fill="#22C55E" fill-opacity="0.7"/>
  <rect x="490" y="582" width="78" height="22" rx="4" fill="#0D2020" stroke="#22C55E" stroke-width="1"/>
  <text x="529" y="597" font-size="9" fill="#22C55E" text-anchor="middle" class="mono">TaskDispatch</text>
  <text x="529" y="609" font-size="8" fill="#475569" text-anchor="middle">acme-api</text>

  <!-- Consumer -->
  <line x1="720" y1="658" x2="840" y2="600" stroke="#F43F5E" stroke-width="1.5" stroke-opacity="0.7"/>
  <polygon points="846,594 836,607 838,596" fill="#F43F5E" fill-opacity="0.7"/>
  <rect x="846" y="582" width="80" height="22" rx="4" fill="#1E0808" stroke="#F43F5E" stroke-width="1"/>
  <text x="886" y="597" font-size="9" fill="#F43F5E" text-anchor="middle" class="mono">AsyncWorker</text>
  <text x="886" y="609" font-size="8" fill="#475569" text-anchor="middle">acme-workers</text>

  <!-- Legend / key in bottom right -->
  <rect x="1280" y="800" width="148" height="112" rx="6" fill="#0E1520" stroke="#1E2733" stroke-width="1"/>
  <text x="1294" y="820" font-size="10" font-weight="600" fill="#94A3B8">Legend</text>
  <!-- Producer arrow -->
  <line x1="1294" y1="836" x2="1330" y2="836" stroke="#22C55E" stroke-width="2" stroke-opacity="0.8"/>
  <polygon points="1330,832 1330,840 1338,836" fill="#22C55E" fill-opacity="0.8"/>
  <text x="1346" y="840" font-size="9" fill="#64748B">Producer</text>
  <!-- Consumer arrow -->
  <line x1="1294" y1="856" x2="1330" y2="856" stroke="#F43F5E" stroke-width="2" stroke-opacity="0.8"/>
  <polygon points="1330,852 1330,860 1338,856" fill="#F43F5E" fill-opacity="0.8"/>
  <text x="1346" y="860" font-size="9" fill="#64748B">Consumer</text>
  <!-- Transform -->
  <line x1="1294" y1="876" x2="1330" y2="876" stroke="#64748B" stroke-width="1.5" stroke-dasharray="4,4" stroke-opacity="0.7"/>
  <text x="1346" y="880" font-size="9" fill="#64748B">Transform</text>
  <!-- Node color labels -->
  <circle cx="1300" cy="896" r="4" fill="#F59E0B"/>
  <text x="1312" y="900" font-size="9" fill="#64748B">Kafka topic</text>

  <!-- [ANIM] spokes: on hover fade non-connected nodes to 0.15, 150ms ease -->
  <!-- [ANIM] topic node: click → slide in TopicInspector from right, 280ms ease-out -->
  <!-- [ANIM] producer/consumer spoke: hover shows callout with file:line, 150ms -->
</svg>
