<?xml version="1.0" encoding="UTF-8"?>
<!-- Surface 3 — Broker Topology: View 2 Topic Inspector + View 3 WS/SSE Track + View 4 GraphQL Subs -->
<svg width="1440" height="960" viewBox="0 0 1440 960" xmlns="http://www.w3.org/2000/svg" font-family="'Inter', 'SF Pro Display', system-ui, sans-serif">
  <defs>
    <style>
      text { font-family: 'Inter', 'SF Pro Display', system-ui, sans-serif; }
      .mono { font-family: 'JetBrains Mono', 'Fira Code', 'Consolas', monospace; }
    </style>
    <radialGradient id="kafkaGlow" cx="50%" cy="50%" r="50%">
      <stop offset="0%" stop-color="#F59E0B" stop-opacity="0.5"/>
      <stop offset="100%" stop-color="#F59E0B" stop-opacity="0"/>
    </radialGradient>
    <radialGradient id="wsGlow" cx="50%" cy="50%" r="50%">
      <stop offset="0%" stop-color="#A855F7" stop-opacity="0.5"/>
      <stop offset="100%" stop-color="#A855F7" stop-opacity="0"/>
    </radialGradient>
    <radialGradient id="gqlGlow" cx="50%" cy="50%" r="50%">
      <stop offset="0%" stop-color="#F43F5E" stop-opacity="0.5"/>
      <stop offset="100%" stop-color="#F43F5E" stop-opacity="0"/>
    </radialGradient>
  </defs>

  <!-- BACKGROUND -->
  <rect width="1440" height="960" fill="#0E1117"/>

  <!-- Frame labels (designer annotation) -->
  <text x="12" y="22" font-size="10" fill="#475569" letter-spacing="0.08em" font-weight="600">TOPIC INSPECTOR PANEL</text>
  <rect x="0" y="28" width="520" height="1" fill="#1E2733"/>
  <text x="532" y="22" font-size="10" fill="#475569" letter-spacing="0.08em" font-weight="600">WS/SSE CHANNEL TRACK</text>
  <rect x="520" y="28" width="920" height="1" fill="#1E2733"/>

  <!-- ============================
       FRAME 1 (left): TOPIC INSPECTOR
       520px wide panel showing selected user.events topic
       ============================ -->

  <!-- TOP NAV (shared) -->
  <rect width="1440" height="48" fill="#141920" stroke="#1E2733" stroke-width="1" y="32"/>
  <rect x="16" y="46" width="8" height="8" rx="2" fill="#22C55E"/>
  <rect x="28" y="46" width="8" height="8" rx="2" fill="#3B82F6"/>
  <text x="44" y="60" font-size="13" font-weight="600" fill="#E2E8F0" letter-spacing="-0.3px">archigraph</text>
  <text x="148" y="60" font-size="12" fill="#64748B">Graph</text>
  <text x="193" y="60" font-size="12" fill="#64748B">Flows</text>
  <rect x="218" y="38" width="72" height="36" rx="4" fill="#1E2733"/>
  <text x="254" y="60" font-size="12" font-weight="500" fill="#22C55E" text-anchor="middle">Topology</text>
  <text x="305" y="60" font-size="12" fill="#64748B">API</text>
  <text x="347" y="60" font-size="12" fill="#64748B">Docs</text>
  <rect x="1200" y="42" width="140" height="28" rx="6" fill="#1E2733" stroke="#2D3748" stroke-width="1"/>
  <text x="1215" y="60" font-size="11" fill="#94A3B8">Group:</text>
  <text x="1260" y="60" font-size="11" font-weight="500" fill="#E2E8F0">acme-platform</text>
  <text x="1330" y="60" font-size="11" fill="#64748B">▾</text>

  <!-- FILTER STRIP (shared) -->
  <rect x="0" y="80" width="1440" height="36" fill="#0E1117" stroke="#1E2733" stroke-width="0"/>
  <rect x="0" y="115" width="1440" height="1" fill="#1E2733"/>
  <text x="12" y="103" font-size="10" fill="#64748B">Protocol:</text>
  <rect x="58" y="90" width="52" height="20" rx="10" fill="#1B1000" stroke="#F59E0B" stroke-width="1.5"/>
  <text x="84" y="104" font-size="9" fill="#F59E0B" text-anchor="middle" font-weight="500">Kafka</text>
  <rect x="116" y="90" width="72" height="20" rx="10" fill="#1E2733" stroke="#2D3748" stroke-width="1"/>
  <text x="152" y="104" font-size="9" fill="#64748B" text-anchor="middle">RabbitMQ</text>
  <rect x="194" y="90" width="44" height="20" rx="10" fill="#1E2733" stroke="#2D3748" stroke-width="1"/>
  <text x="216" y="104" font-size="9" fill="#64748B" text-anchor="middle">SQS</text>
  <rect x="244" y="90" width="44" height="20" rx="10" fill="#1A0D30" stroke="#A855F7" stroke-width="1.5"/>
  <text x="266" y="104" font-size="9" fill="#A855F7" text-anchor="middle" font-weight="500">NATS</text>
  <rect x="294" y="90" width="36" height="20" rx="10" fill="#1A1030" stroke="#8B5CF6" stroke-width="1.5"/>
  <text x="312" y="104" font-size="9" fill="#8B5CF6" text-anchor="middle" font-weight="500">WS</text>
  <rect x="336" y="90" width="38" height="20" rx="10" fill="#1A1030" stroke="#8B5CF6" stroke-width="1.5"/>
  <text x="355" y="104" font-size="9" fill="#8B5CF6" text-anchor="middle" font-weight="500">SSE</text>
  <rect x="380" y="90" width="66" height="20" rx="10" fill="#1E0808" stroke="#F43F5E" stroke-width="1.5"/>
  <text x="413" y="104" font-size="9" fill="#F43F5E" text-anchor="middle" font-weight="500">GraphQL</text>

  <!-- LEFT: Topology canvas (truncated to left part) -->
  <rect x="0" y="116" width="520" height="844" fill="#07091499"/>

  <!-- Dimmed topology (partial) showing selected topic highlighted -->
  <!-- Other topics: dim -->
  <circle cx="180" cy="340" r="24" fill="#F43F5E" fill-opacity="0.06" stroke="#F43F5E" stroke-width="1" stroke-opacity="0.3"/>
  <text x="180" y="345" font-size="8" fill="#475569" text-anchor="middle">email.queue</text>
  <circle cx="100" cy="550" r="20" fill="#3B82F6" fill-opacity="0.06" stroke="#3B82F6" stroke-width="1" stroke-opacity="0.3"/>
  <text x="100" y="555" font-size="8" fill="#475569" text-anchor="middle">async-tasks</text>
  <!-- Selected topic: user.events BRIGHT -->
  <circle cx="320" cy="460" r="60" fill="url(#kafkaGlow)"/>
  <circle cx="320" cy="460" r="30" fill="#1B1000" fill-opacity="0.95" stroke="#F59E0B" stroke-width="2"/>
  <text x="320" y="455" font-size="11" fill="#F59E0B" text-anchor="middle" font-weight="700">K</text>
  <text x="320" y="468" font-size="8" fill="#F59E0B" text-anchor="middle">kafka</text>
  <rect x="258" y="496" width="124" height="22" rx="11" fill="#1B1000" stroke="#F59E0B" stroke-width="1.5"/>
  <text x="320" y="511" font-size="10" fill="#F59E0B" text-anchor="middle" font-weight="600" class="mono">user.events</text>
  <!-- Selection ring -->
  <circle cx="320" cy="460" r="36" fill="none" stroke="#F59E0B" stroke-width="2.5" stroke-dasharray="4,6" stroke-opacity="0.8"/>

  <!-- Dim spokes -->
  <line x1="302" y1="432" x2="230" y2="360" stroke="#22C55E" stroke-width="1.5" stroke-opacity="0.25"/>
  <line x1="340" y1="432" x2="430" y2="360" stroke="#F43F5E" stroke-width="1.5" stroke-opacity="0.25"/>
  <line x1="348" y1="460" x2="460" y2="460" stroke="#22C55E" stroke-width="1.5" stroke-opacity="0.25"/>

  <!-- RIGHT PANEL: Topic Inspector (slides in) -->
  <!-- [ANIM] slide in from right: translateX(440px)→translateX(0), 280ms ease-out -->
  <rect x="520" y="116" width="440" height="844" fill="#0C1118" stroke="#1E2733" stroke-width="1"/>

  <!-- Inspector header -->
  <rect x="520" y="116" width="440" height="56" fill="#141920" stroke="#1E2733" stroke-width="1"/>
  <!-- Broker badge -->
  <rect x="534" y="130" width="56" height="20" rx="10" fill="#1B1000" stroke="#F59E0B" stroke-width="1.5"/>
  <text x="562" y="144" font-size="9" fill="#F59E0B" text-anchor="middle" font-weight="700">Kafka</text>
  <!-- Topic name -->
  <text x="600" y="142" font-size="14" font-weight="600" fill="#E2E8F0" class="mono">user.events</text>
  <!-- Close -->
  <text x="944" y="148" font-size="14" fill="#475569">×</text>

  <!-- Breadcrumb -->
  <text x="534" y="160" font-size="10" fill="#475569">acme-platform</text>
  <text x="602" y="160" font-size="10" fill="#475569"> / </text>
  <text x="612" y="160" font-size="10" fill="#64748B">Kafka</text>
  <text x="641" y="160" font-size="10" fill="#475569"> / </text>
  <text x="651" y="160" font-size="10" fill="#F59E0B">user.events</text>

  <!-- Stats row -->
  <rect x="520" y="172" width="440" height="48" fill="#141920" stroke="#1E2733" stroke-width="0"/>
  <rect x="520" y="172" width="440" height="1" fill="#1E2733"/>
  <rect x="520" y="219" width="440" height="1" fill="#1E2733"/>
  <!-- Stats cells -->
  <text x="554" y="190" font-size="10" fill="#64748B" text-anchor="middle">Producers</text>
  <text x="554" y="208" font-size="14" font-weight="600" fill="#22C55E" text-anchor="middle">2</text>
  <rect x="620" y="180" width="1" height="30" fill="#1E2733"/>
  <text x="666" y="190" font-size="10" fill="#64748B" text-anchor="middle">Consumers</text>
  <text x="666" y="208" font-size="14" font-weight="600" fill="#F43F5E" text-anchor="middle">3</text>
  <rect x="720" y="180" width="1" height="30" fill="#1E2733"/>
  <text x="768" y="190" font-size="10" fill="#64748B" text-anchor="middle">Transforms</text>
  <text x="768" y="208" font-size="14" font-weight="600" fill="#64748B" text-anchor="middle">1</text>
  <rect x="820" y="180" width="1" height="30" fill="#1E2733"/>
  <text x="880" y="190" font-size="10" fill="#64748B" text-anchor="middle">Msg Shape</text>
  <!-- Inferred badge -->
  <rect x="840" y="200" width="74" height="16" rx="8" fill="#1B1000" stroke="#F59E0B" stroke-width="1"/>
  <text x="877" y="212" font-size="9" fill="#F59E0B" text-anchor="middle">inferred ✓</text>

  <!-- PRODUCERS section -->
  <rect x="534" y="226" width="88" height="1" fill="#1E2733"/>
  <text x="534" y="244" font-size="11" font-weight="600" fill="#64748B" letter-spacing="0.04em">PRODUCERS (2)</text>

  <!-- Producer row 1 -->
  <rect x="534" y="252" width="412" height="52" rx="4" fill="#141920"/>
  <circle cx="554" cy="278" r="5" fill="#22C55E"/>
  <text x="570" y="272" font-size="11" font-weight="500" fill="#E2E8F0" class="mono">UserService.create_user</text>
  <rect x="788" y="264" width="60" height="16" rx="8" fill="#0D2020" stroke="#22C55E" stroke-width="1"/>
  <text x="818" y="276" font-size="9" fill="#22C55E" text-anchor="middle">acme-api</text>
  <text x="570" y="288" font-size="10" fill="#475569" class="mono">services/user_service.py:L214</text>
  <text x="900" y="288" font-size="9" fill="#22C55E" text-anchor="end">PUBLISHES_TO</text>

  <!-- Producer row 2 -->
  <rect x="534" y="308" width="412" height="52" rx="4" fill="transparent"/>
  <rect x="534" y="308" width="412" height="1" fill="#1E2733"/>
  <circle cx="554" cy="334" r="5" fill="#22C55E"/>
  <text x="570" y="328" font-size="11" font-weight="500" fill="#E2E8F0" class="mono">AuthMiddleware.emit_event</text>
  <rect x="788" y="320" width="60" height="16" rx="8" fill="#0D2020" stroke="#22C55E" stroke-width="1"/>
  <text x="818" y="332" font-size="9" fill="#22C55E" text-anchor="middle">acme-api</text>
  <text x="570" y="344" font-size="10" fill="#475569" class="mono">middleware/auth.py:L88</text>
  <text x="900" y="344" font-size="9" fill="#22C55E" text-anchor="end">PUBLISHES_TO</text>

  <!-- CONSUMERS section -->
  <rect x="534" y="366" width="412" height="1" fill="#1E2733"/>
  <text x="534" y="384" font-size="11" font-weight="600" fill="#64748B" letter-spacing="0.04em">CONSUMERS (3)</text>

  <!-- Consumer row 1 -->
  <rect x="534" y="392" width="412" height="52" rx="4" fill="#141920"/>
  <circle cx="554" cy="418" r="5" fill="#F43F5E"/>
  <text x="570" y="412" font-size="11" font-weight="500" fill="#E2E8F0" class="mono">NotificationWorker.handle</text>
  <rect x="784" y="404" width="72" height="16" rx="8" fill="#1E0808" stroke="#F43F5E" stroke-width="1"/>
  <text x="820" y="416" font-size="9" fill="#F43F5E" text-anchor="middle">acme-workers</text>
  <text x="570" y="428" font-size="10" fill="#475569" class="mono">workers/notify.py:L42</text>
  <text x="900" y="428" font-size="9" fill="#F43F5E" text-anchor="end">SUBSCRIBES_TO</text>

  <!-- Consumer row 2 -->
  <rect x="534" y="448" width="412" height="52" rx="4" fill="transparent"/>
  <rect x="534" y="448" width="412" height="1" fill="#1E2733"/>
  <circle cx="554" cy="474" r="5" fill="#22C55E"/>
  <text x="570" y="468" font-size="11" font-weight="500" fill="#E2E8F0" class="mono">AnalyticsConsumer.process</text>
  <rect x="784" y="460" width="60" height="16" rx="8" fill="#0D2020" stroke="#22C55E" stroke-width="1"/>
  <text x="814" y="472" font-size="9" fill="#22C55E" text-anchor="middle">acme-api</text>
  <text x="570" y="484" font-size="10" fill="#475569" class="mono">analytics/consumer.py:L117</text>
  <text x="900" y="484" font-size="9" fill="#F43F5E" text-anchor="end">SUBSCRIBES_TO</text>

  <!-- Consumer row 3 -->
  <rect x="534" y="504" width="412" height="52" rx="4" fill="transparent"/>
  <rect x="534" y="504" width="412" height="1" fill="#1E2733"/>
  <circle cx="554" cy="530" r="5" fill="#F43F5E"/>
  <text x="570" y="524" font-size="11" font-weight="500" fill="#E2E8F0" class="mono">EmailProcessor.consume</text>
  <rect x="784" y="516" width="72" height="16" rx="8" fill="#1E0808" stroke="#F43F5E" stroke-width="1"/>
  <text x="820" y="528" font-size="9" fill="#F43F5E" text-anchor="middle">acme-workers</text>
  <text x="570" y="540" font-size="10" fill="#475569" class="mono">workers/email.py:L56</text>
  <text x="900" y="540" font-size="9" fill="#F43F5E" text-anchor="end">SUBSCRIBES_TO</text>

  <!-- TRANSFORMS section -->
  <rect x="534" y="562" width="412" height="1" fill="#1E2733"/>
  <text x="534" y="580" font-size="11" font-weight="600" fill="#64748B" letter-spacing="0.04em">TRANSFORMS (1)</text>

  <rect x="534" y="588" width="412" height="40" rx="4" fill="#141920"/>
  <text x="554" y="608" font-size="10" fill="#94A3B8" class="mono">user.events</text>
  <text x="648" y="608" font-size="10" fill="#475569"> → </text>
  <text x="668" y="608" font-size="10" fill="#F59E0B" class="mono">order.created</text>
  <text x="900" y="608" font-size="9" fill="#64748B" text-anchor="end">TRANSFORMS</text>

  <!-- MESSAGE SHAPE section -->
  <rect x="534" y="636" width="412" height="1" fill="#1E2733"/>
  <text x="534" y="654" font-size="11" font-weight="600" fill="#64748B" letter-spacing="0.04em">MESSAGE SHAPE (inferred)</text>

  <!-- Message shape table -->
  <rect x="534" y="662" width="412" height="110" rx="4" fill="#080D14" stroke="#1E2733" stroke-width="1"/>
  <!-- Header row -->
  <rect x="534" y="662" width="412" height="22" rx="4" fill="#141920"/>
  <text x="554" y="677" font-size="9" fill="#64748B" font-weight="600">field</text>
  <text x="700" y="677" font-size="9" fill="#64748B" font-weight="600">type</text>
  <text x="800" y="677" font-size="9" fill="#64748B" font-weight="600">required</text>
  <text x="880" y="677" font-size="9" fill="#64748B" font-weight="600">source</text>

  <text x="554" y="697" font-size="10" fill="#94A3B8" class="mono">user_id</text>
  <text x="700" y="697" font-size="10" fill="#8B5CF6" class="mono">int</text>
  <text x="800" y="697" font-size="10" fill="#22C55E">✓</text>
  <text x="880" y="697" font-size="9" fill="#475569">PUBLISHES_TO</text>

  <text x="554" y="715" font-size="10" fill="#94A3B8" class="mono">event_type</text>
  <text x="700" y="715" font-size="10" fill="#3B82F6" class="mono">str</text>
  <text x="800" y="715" font-size="10" fill="#22C55E">✓</text>
  <text x="880" y="715" font-size="9" fill="#475569">PUBLISHES_TO</text>

  <text x="554" y="733" font-size="10" fill="#94A3B8" class="mono">timestamp</text>
  <text x="700" y="733" font-size="10" fill="#3B82F6" class="mono">datetime</text>
  <text x="800" y="733" font-size="10" fill="#22C55E">✓</text>
  <text x="880" y="733" font-size="9" fill="#475569">PUBLISHES_TO</text>

  <text x="554" y="751" font-size="10" fill="#94A3B8" class="mono">metadata</text>
  <text x="700" y="751" font-size="10" fill="#64748B" class="mono">dict?</text>
  <text x="800" y="751" font-size="10" fill="#64748B">–</text>
  <text x="880" y="751" font-size="9" fill="#475569">PUBLISHES_TO</text>

  <!-- Inferred caveat -->
  <rect x="534" y="780" width="412" height="24" rx="4" fill="#181208" stroke="#D97706" stroke-width="1"/>
  <text x="548" y="796" font-size="9" fill="#D97706">⚠ Shape inferred from PUBLISHES_TO edge properties. May be incomplete.</text>

  <!-- ============================
       FRAME 2 (right): WS/SSE + GraphQL tracks
       ============================ -->
  <rect x="960" y="116" width="480" height="844" fill="#07091499"/>

  <!-- WS/SSE Track header -->
  <rect x="960" y="116" width="480" height="32" fill="#0E1117" stroke="#1E2733" stroke-width="1"/>
  <rect x="972" y="126" width="60" height="12" rx="6" fill="#1A1030" stroke="#8B5CF6" stroke-width="1"/>
  <text x="1002" y="136" font-size="8" fill="#8B5CF6" text-anchor="middle">WS / SSE</text>
  <text x="1040" y="136" font-size="10" fill="#64748B">WebSocket &amp; Server-Sent Event channels</text>

  <!-- WS Channel: /ws/events -->
  <rect x="975" y="160" width="440" height="108" rx="6" fill="#141920" stroke="#1E2733" stroke-width="1"/>
  <!-- Left accent strip: WS purple -->
  <rect x="975" y="160" width="3" height="108" rx="2" fill="#8B5CF6"/>
  <!-- Channel header -->
  <rect x="986" y="170" width="42" height="18" rx="9" fill="#1A1030" stroke="#8B5CF6" stroke-width="1"/>
  <text x="1007" y="183" font-size="9" fill="#8B5CF6" text-anchor="middle">WS</text>
  <text x="1038" y="183" font-size="12" font-weight="600" fill="#E2E8F0" class="mono">/ws/events</text>
  <text x="1380" y="183" font-size="10" fill="#22C55E" text-anchor="end">↑↓ 24 connections</text>
  <!-- Publisher row -->
  <text x="994" y="208" font-size="10" font-weight="600" fill="#64748B">Publishers</text>
  <circle cx="1072" cy="204" r="4" fill="#22C55E"/>
  <text x="1084" y="208" font-size="10" fill="#94A3B8" class="mono">DashboardServer.broadcast</text>
  <rect x="1280" y="196" width="60" height="14" rx="7" fill="#0D2020" stroke="#22C55E" stroke-width="1"/>
  <text x="1310" y="207" font-size="8" fill="#22C55E" text-anchor="middle">acme-api</text>
  <!-- Subscriber row -->
  <text x="994" y="230" font-size="10" font-weight="600" fill="#64748B">Subscribers</text>
  <circle cx="1072" cy="226" r="4" fill="#3B82F6"/>
  <text x="1084" y="230" font-size="10" fill="#94A3B8" class="mono">useWatcherEvents() hook</text>
  <rect x="1276" y="222" width="74" height="14" rx="7" fill="#0D1A2E" stroke="#3B82F6" stroke-width="1"/>
  <text x="1313" y="233" font-size="8" fill="#3B82F6" text-anchor="middle">acme-frontend</text>
  <!-- Event types -->
  <text x="994" y="252" font-size="10" font-weight="600" fill="#64748B">Event types</text>
  <rect x="1064" y="242" width="70" height="16" rx="8" fill="#1A1030" stroke="#8B5CF6" stroke-width="1"/>
  <text x="1099" y="254" font-size="8" fill="#8B5CF6" text-anchor="middle">INDEX_COMPLETE</text>
  <rect x="1140" y="242" width="66" height="16" rx="8" fill="#1A1030" stroke="#8B5CF6" stroke-width="1"/>
  <text x="1173" y="254" font-size="8" fill="#8B5CF6" text-anchor="middle">GRAPH_UPDATED</text>
  <rect x="1212" y="242" width="58" height="16" rx="8" fill="#1A1030" stroke="#8B5CF6" stroke-width="1"/>
  <text x="1241" y="254" font-size="8" fill="#8B5CF6" text-anchor="middle">WATCHER_ERR</text>

  <!-- SSE Channel: /api/stream -->
  <rect x="975" y="280" width="440" height="82" rx="6" fill="#141920" stroke="#1E2733" stroke-width="1"/>
  <rect x="975" y="280" width="3" height="82" rx="2" fill="#06B6D4"/>
  <rect x="986" y="292" width="36" height="18" rx="9" fill="#0A2030" stroke="#06B6D4" stroke-width="1"/>
  <text x="1004" y="305" font-size="9" fill="#06B6D4" text-anchor="middle">SSE</text>
  <text x="1030" y="305" font-size="12" font-weight="600" fill="#E2E8F0" class="mono">/api/stream/progress</text>
  <text x="1380" y="305" font-size="10" fill="#64748B" text-anchor="end">1-way push</text>
  <!-- Publisher -->
  <text x="994" y="326" font-size="10" font-weight="600" fill="#64748B">Publisher</text>
  <circle cx="1062" cy="322" r="4" fill="#22C55E"/>
  <text x="1074" y="326" font-size="10" fill="#94A3B8" class="mono">IndexProgressHandler.stream</text>
  <!-- Subscriber -->
  <text x="994" y="346" font-size="10" font-weight="600" fill="#64748B">Subscriber</text>
  <circle cx="1062" cy="342" r="4" fill="#3B82F6"/>
  <text x="1074" y="346" font-size="10" fill="#94A3B8" class="mono">useIndexProgress() hook</text>

  <!-- WS separator label -->
  <rect x="960" y="376" width="480" height="1" fill="#1E2733"/>
  <text x="972" y="396" font-size="10" font-weight="600" fill="#64748B" letter-spacing="0.08em">GRAPHQL SUBSCRIPTIONS</text>
  <rect x="960" y="402" width="480" height="1" fill="#1E2733"/>

  <!-- GraphQL sub 1: onGraphUpdate -->
  <rect x="975" y="412" width="440" height="82" rx="6" fill="#141920" stroke="#1E2733" stroke-width="1"/>
  <rect x="975" y="412" width="3" height="82" rx="2" fill="#F43F5E"/>
  <rect x="986" y="424" width="58" height="18" rx="9" fill="#1E0808" stroke="#F43F5E" stroke-width="1"/>
  <text x="1015" y="437" font-size="9" fill="#F43F5E" text-anchor="middle">GraphQL Sub</text>
  <text x="1054" y="437" font-size="12" font-weight="600" fill="#E2E8F0" class="mono">onGraphUpdate</text>
  <!-- Resolver -->
  <text x="994" y="460" font-size="10" font-weight="600" fill="#64748B">Resolver</text>
  <circle cx="1050" cy="456" r="4" fill="#22C55E"/>
  <text x="1062" y="460" font-size="10" fill="#94A3B8" class="mono">GraphSubscriptionResolver</text>
  <!-- Client hook -->
  <text x="994" y="480" font-size="10" font-weight="600" fill="#64748B">Client hook</text>
  <circle cx="1050" cy="476" r="4" fill="#3B82F6"/>
  <text x="1062" y="480" font-size="10" fill="#94A3B8" class="mono">useGraphSubscription()</text>

  <!-- GraphQL sub 2: onEntityFound -->
  <rect x="975" y="504" width="440" height="82" rx="6" fill="#141920" stroke="#1E2733" stroke-width="1"/>
  <rect x="975" y="504" width="3" height="82" rx="2" fill="#F43F5E"/>
  <rect x="986" y="516" width="58" height="18" rx="9" fill="#1E0808" stroke="#F43F5E" stroke-width="1"/>
  <text x="1015" y="529" font-size="9" fill="#F43F5E" text-anchor="middle">GraphQL Sub</text>
  <text x="1054" y="529" font-size="12" font-weight="600" fill="#E2E8F0" class="mono">onEntityFound</text>
  <!-- Resolver -->
  <text x="994" y="552" font-size="10" font-weight="600" fill="#64748B">Resolver</text>
  <circle cx="1050" cy="548" r="4" fill="#22C55E"/>
  <text x="1062" y="552" font-size="10" fill="#94A3B8" class="mono">SearchSubscriptionResolver</text>
  <!-- Client hook -->
  <text x="994" y="572" font-size="10" font-weight="600" fill="#64748B">Client hook</text>
  <circle cx="1050" cy="568" r="4" fill="#3B82F6"/>
  <text x="1062" y="572" font-size="10" fill="#94A3B8" class="mono">useSearchSubscription()</text>

  <!-- Channel track annotation -->
  <rect x="975" y="600" width="440" height="42" rx="4" fill="#0E1520" stroke="#1E2733" stroke-width="1"/>
  <text x="994" y="618" font-size="10" fill="#64748B">WS/SSE/GraphQL channels are rendered in a</text>
  <text x="994" y="634" font-size="10" fill="#64748B">separate visual tier from broker topics above.</text>
</svg>
