<?xml version="1.0" encoding="UTF-8"?>
<!-- Surface 1 — Graph Viewer: View 3 Full Zoom — Auth cluster + selected node + Inspector Panel -->
<svg width="1440" height="960" viewBox="0 0 1440 960" xmlns="http://www.w3.org/2000/svg" font-family="'Inter', 'SF Pro Display', system-ui, sans-serif">
  <defs>
    <style>
      text { font-family: 'Inter', 'SF Pro Display', system-ui, sans-serif; }
      .mono { font-family: 'JetBrains Mono', 'Fira Code', 'Consolas', monospace; }
    </style>
    <radialGradient id="selectedGlow" cx="50%" cy="50%" r="50%">
      <stop offset="0%" stop-color="#22C55E" stop-opacity="1"/>
      <stop offset="40%" stop-color="#22C55E" stop-opacity="0.4"/>
      <stop offset="100%" stop-color="#22C55E" stop-opacity="0"/>
    </radialGradient>
    <radialGradient id="neighborGlow" cx="50%" cy="50%" r="50%">
      <stop offset="0%" stop-color="#06B6D4" stop-opacity="0.7"/>
      <stop offset="40%" stop-color="#06B6D4" stop-opacity="0.2"/>
      <stop offset="100%" stop-color="#06B6D4" stop-opacity="0"/>
    </radialGradient>
    <radialGradient id="dimGlow" cx="50%" cy="50%" r="50%">
      <stop offset="0%" stop-color="#3B82F6" stop-opacity="0.35"/>
      <stop offset="100%" stop-color="#3B82F6" stop-opacity="0"/>
    </radialGradient>
  </defs>

  <!-- BACKGROUND -->
  <rect width="1440" height="960" fill="#060912"/>

  <!-- TOP NAV -->
  <rect width="1440" height="48" fill="#141920" stroke="#1E2733" stroke-width="1"/>
  <rect x="16" y="14" width="8" height="8" rx="2" fill="#22C55E"/>
  <rect x="28" y="14" width="8" height="8" rx="2" fill="#3B82F6"/>
  <text x="44" y="28" font-size="13" font-weight="600" fill="#E2E8F0" letter-spacing="-0.3px">archigraph</text>
  <rect x="120" y="6" width="56" height="36" rx="4" fill="#1E2733"/>
  <text x="148" y="28" font-size="12" font-weight="500" fill="#22C55E" text-anchor="middle">Graph</text>
  <text x="193" y="28" font-size="12" fill="#64748B">Flows</text>
  <text x="242" y="28" font-size="12" fill="#64748B">Topology</text>
  <text x="301" y="28" font-size="12" fill="#64748B">API</text>
  <text x="347" y="28" font-size="12" fill="#64748B">Docs</text>
  <rect x="1200" y="10" width="140" height="28" rx="6" fill="#1E2733" stroke="#2D3748" stroke-width="1"/>
  <text x="1215" y="28" font-size="11" fill="#94A3B8">Group:</text>
  <text x="1260" y="28" font-size="11" font-weight="500" fill="#E2E8F0">acme-platform</text>
  <text x="1330" y="28" font-size="11" fill="#64748B">▾</text>
  <circle cx="1410" cy="24" r="14" fill="#1E2733" stroke="#2D3748" stroke-width="1"/>
  <text x="1410" y="29" font-size="11" fill="#94A3B8" text-anchor="middle">JC</text>

  <!-- LEFT SIDEBAR -->
  <rect x="0" y="48" width="220" height="912" fill="#0C1118" stroke="#1E2733" stroke-width="1"/>
  <text x="16" y="82" font-size="11" font-weight="600" fill="#64748B" letter-spacing="0.05em">COMMUNITIES</text>
  <!-- Auth selected -->
  <rect x="8" y="92" width="204" height="26" rx="4" fill="#1A2333"/>
  <rect x="8" y="96" width="2" height="18" rx="1" fill="#06B6D4"/>
  <circle cx="24" cy="105" r="5" fill="#06B6D4"/>
  <text x="36" y="110" font-size="12" font-weight="500" fill="#CBD5E1">Auth &amp; Identity</text>
  <rect x="166" y="97" width="36" height="14" rx="7" fill="#0A2030" stroke="#06B6D4" stroke-width="1"/>
  <text x="184" y="109" font-size="9" fill="#06B6D4" text-anchor="middle">4,821</text>
  <rect x="8" y="122" width="204" height="26" rx="4" fill="transparent"/>
  <circle cx="24" cy="135" r="5" fill="#22C55E"/>
  <text x="36" y="140" font-size="12" fill="#64748B">Core Services</text>
  <rect x="8" y="152" width="204" height="26" rx="4" fill="transparent"/>
  <circle cx="24" cy="165" r="5" fill="#A855F7"/>
  <text x="36" y="170" font-size="12" fill="#64748B">Data Layer</text>
  <rect x="8" y="182" width="204" height="26" rx="4" fill="transparent"/>
  <circle cx="24" cy="195" r="5" fill="#F59E0B"/>
  <text x="36" y="200" font-size="12" fill="#64748B">API Gateway</text>
  <rect x="8" y="212" width="204" height="26" rx="4" fill="transparent"/>
  <circle cx="24" cy="225" r="5" fill="#3B82F6"/>
  <text x="36" y="230" font-size="12" fill="#64748B">Frontend App</text>
  <rect x="8" y="242" width="204" height="26" rx="4" fill="transparent"/>
  <circle cx="24" cy="255" r="5" fill="#F43F5E"/>
  <text x="36" y="260" font-size="12" fill="#64748B">Workers &amp; Jobs</text>
  <rect x="16" y="278" width="188" height="1" fill="#1E2733"/>
  <!-- LoD -->
  <text x="16" y="298" font-size="11" font-weight="600" fill="#64748B" letter-spacing="0.05em">GRAPH STATS</text>
  <text x="16" y="318" font-size="11" fill="#64748B">Visible nodes</text>
  <text x="204" y="318" font-size="11" fill="#22C55E" text-anchor="end" font-weight="600">847</text>
  <text x="16" y="336" font-size="11" fill="#64748B">LoD mode</text>
  <rect x="150" y="326" width="54" height="16" rx="8" fill="#172A1F" stroke="#22C55E" stroke-width="1"/>
  <text x="177" y="338" font-size="9" fill="#22C55E" text-anchor="middle">FULL</text>
  <!-- Selected entity -->
  <rect x="16" y="350" width="188" height="1" fill="#1E2733"/>
  <text x="16" y="370" font-size="11" font-weight="600" fill="#64748B" letter-spacing="0.05em">SELECTED</text>
  <rect x="16" y="378" width="188" height="54" rx="6" fill="#0D2020" stroke="#22C55E" stroke-width="1"/>
  <text x="28" y="396" font-size="11" font-weight="600" fill="#22C55E" class="mono">UserPermission</text>
  <text x="28" y="412" font-size="10" fill="#64748B">Class · auth/permissions.py</text>
  <text x="28" y="426" font-size="9" fill="#475569">Auth &amp; Identity community</text>
  <!-- Edge kind filters -->
  <rect x="16" y="444" width="188" height="1" fill="#1E2733"/>
  <text x="16" y="464" font-size="11" font-weight="600" fill="#64748B" letter-spacing="0.05em">EDGE KINDS</text>
  <rect x="16" y="472" width="52" height="18" rx="9" fill="#0D1A2E" stroke="#3B82F6" stroke-width="1"/>
  <text x="42" y="485" font-size="9" fill="#3B82F6" text-anchor="middle" class="mono">CALLS</text>
  <rect x="74" y="472" width="60" height="18" rx="9" fill="#0D2418" stroke="#10B981" stroke-width="1"/>
  <text x="104" y="485" font-size="9" fill="#10B981" text-anchor="middle" class="mono">IMPORTS</text>
  <rect x="140" y="472" width="60" height="18" rx="9" fill="#1B1000" stroke="#F59E0B" stroke-width="1.5"/>
  <text x="170" y="485" font-size="9" fill="#F59E0B" text-anchor="middle" class="mono">FETCHES</text>
  <rect x="16" y="496" width="60" height="18" rx="9" fill="#1A1030" stroke="#8B5CF6" stroke-width="1"/>
  <text x="46" y="509" font-size="9" fill="#8B5CF6" text-anchor="middle" class="mono">QUERIES</text>
  <rect x="82" y="496" width="72" height="18" rx="9" fill="#1A2230" stroke="#64748B" stroke-width="1"/>
  <text x="118" y="509" font-size="9" fill="#64748B" text-anchor="middle" class="mono">PUBLISHES</text>

  <!-- ==================== TOOLBAR ==================== -->
  <rect x="220" y="48" width="940" height="44" fill="#0E1117"/>
  <rect x="220" y="91" width="940" height="1" fill="#1E2733"/>
  <rect x="232" y="58" width="300" height="28" rx="6" fill="#141920" stroke="#22C55E" stroke-width="1.5"/>
  <text x="248" y="76" font-size="12" fill="#475569">⌕</text>
  <text x="262" y="76" font-size="12" fill="#22C55E" class="mono">UserPermission</text>
  <text x="536" y="76" font-size="11" fill="#475569">×</text>
  <rect x="544" y="58" width="90" height="28" rx="6" fill="#141920" stroke="#1E2733" stroke-width="1"/>
  <rect x="544" y="58" width="30" height="28" rx="6" fill="#1E2733"/>
  <text x="559" y="76" font-size="10" fill="#E2E8F0" text-anchor="middle">Force</text>
  <text x="589" y="76" font-size="10" fill="#64748B" text-anchor="middle">Tree</text>
  <text x="619" y="76" font-size="10" fill="#64748B" text-anchor="middle">Sphere</text>
  <rect x="644" y="58" width="60" height="28" rx="6" fill="#141920" stroke="#1E2733" stroke-width="1"/>
  <rect x="644" y="58" width="30" height="28" rx="6" fill="#172A1F" stroke="#22C55E" stroke-width="1"/>
  <text x="659" y="76" font-size="10" fill="#22C55E" text-anchor="middle">3D</text>
  <text x="689" y="76" font-size="10" fill="#64748B" text-anchor="middle">2D</text>
  <rect x="714" y="58" width="78" height="28" rx="6" fill="#141920" stroke="#1E2733" stroke-width="1"/>
  <text x="753" y="76" font-size="10" fill="#94A3B8" text-anchor="middle">Reset View</text>
  <rect x="804" y="62" width="80" height="20" rx="10" fill="#172A1F" stroke="#22C55E" stroke-width="1"/>
  <circle cx="814" cy="72" r="3" fill="#22C55E"/>
  <text x="828" y="76" font-size="9" fill="#22C55E">LoD: FULL</text>
  <text x="1148" y="76" font-size="10" fill="#475569" text-anchor="end">847 visible</text>

  <!-- ==================== GRAPH CANVAS (left portion) ==================== -->
  <rect x="220" y="92" width="940" height="868" fill="#07091299"/>

  <!-- Background dim for non-1-hop nodes -->
  <rect x="220" y="92" width="940" height="868" fill="#060912" fill-opacity="0.55"/>

  <!-- DIM background nodes: scattered small dots, low opacity -->
  <circle cx="320" cy="200" r="3.5" fill="#3B82F6" fill-opacity="0.14"/>
  <circle cx="380" cy="280" r="3" fill="#06B6D4" fill-opacity="0.12"/>
  <circle cx="450" cy="180" r="4" fill="#22C55E" fill-opacity="0.14"/>
  <circle cx="500" cy="260" r="3" fill="#A855F7" fill-opacity="0.12"/>
  <circle cx="560" cy="190" r="3.5" fill="#F59E0B" fill-opacity="0.12"/>
  <circle cx="620" cy="250" r="3" fill="#3B82F6" fill-opacity="0.14"/>
  <circle cx="670" cy="185" r="4" fill="#22C55E" fill-opacity="0.12"/>
  <circle cx="730" cy="270" r="3" fill="#06B6D4" fill-opacity="0.12"/>
  <circle cx="790" cy="200" r="3.5" fill="#A855F7" fill-opacity="0.14"/>
  <circle cx="850" cy="240" r="3" fill="#F43F5E" fill-opacity="0.12"/>
  <circle cx="900" cy="185" r="4" fill="#F59E0B" fill-opacity="0.12"/>
  <circle cx="960" cy="270" r="3" fill="#3B82F6" fill-opacity="0.14"/>
  <circle cx="330" cy="680" r="3.5" fill="#06B6D4" fill-opacity="0.12"/>
  <circle cx="410" cy="760" r="3" fill="#22C55E" fill-opacity="0.14"/>
  <circle cx="470" cy="680" r="4" fill="#A855F7" fill-opacity="0.12"/>
  <circle cx="540" cy="800" r="3" fill="#F59E0B" fill-opacity="0.12"/>
  <circle cx="600" cy="720" r="3.5" fill="#3B82F6" fill-opacity="0.14"/>
  <circle cx="680" cy="800" r="3" fill="#06B6D4" fill-opacity="0.12"/>
  <circle cx="750" cy="720" r="4" fill="#F43F5E" fill-opacity="0.12"/>
  <circle cx="820" cy="800" r="3" fill="#22C55E" fill-opacity="0.12"/>
  <circle cx="890" cy="720" r="3.5" fill="#A855F7" fill-opacity="0.14"/>
  <circle cx="960" cy="790" r="3" fill="#F59E0B" fill-opacity="0.12"/>
  <circle cx="1020" cy="740" r="4" fill="#3B82F6" fill-opacity="0.12"/>
  <circle cx="1080" cy="800" r="3" fill="#06B6D4" fill-opacity="0.12"/>

  <!-- 1-HOP NEIGHBORHOOD EDGES to selected UserPermission at ~590,500 -->
  <!-- Selected node highlight: 1-hop edges are bright, rest is dim -->
  <!-- CALLS edges out -->
  <line x1="590" y1="500" x2="420" y2="380" stroke="#3B82F6" stroke-width="1.8" stroke-opacity="0.7"/>
  <line x1="590" y1="500" x2="730" y2="360" stroke="#3B82F6" stroke-width="1.8" stroke-opacity="0.7"/>
  <line x1="590" y1="500" x2="820" y2="460" stroke="#3B82F6" stroke-width="1.4" stroke-opacity="0.5"/>
  <!-- IMPORTS in -->
  <line x1="590" y1="500" x2="340" y2="510" stroke="#10B981" stroke-width="1.8" stroke-opacity="0.7"/>
  <line x1="590" y1="500" x2="440" y2="620" stroke="#10B981" stroke-width="1.4" stroke-opacity="0.5"/>
  <!-- FETCHES in from frontend -->
  <line x1="590" y1="500" x2="700" y2="660" stroke="#F59E0B" stroke-width="1.8" stroke-opacity="0.7"/>
  <!-- QUERIES out to data -->
  <line x1="590" y1="500" x2="830" y2="600" stroke="#8B5CF6" stroke-width="1.4" stroke-opacity="0.5"/>

  <!-- 1-HOP NEIGHBOR NODES (bright, full opacity) -->
  <!-- HasPermission (CALLS neighbor) -->
  <circle cx="420" cy="380" r="22" fill="url(#neighborGlow)"/>
  <circle cx="420" cy="380" r="10" fill="#06B6D4" fill-opacity="0.25" stroke="#06B6D4" stroke-width="1"/>
  <circle cx="420" cy="380" r="6" fill="#06B6D4" fill-opacity="0.6"/>
  <text x="420" y="360" font-size="9" fill="#E2E8F0" text-anchor="middle" font-weight="500">HasPermission</text>
  <text x="420" y="400" font-size="8" fill="#64748B" text-anchor="middle">Class</text>

  <!-- check_permissions (CALLS neighbor) -->
  <circle cx="730" cy="360" r="22" fill="url(#neighborGlow)"/>
  <circle cx="730" cy="360" r="10" fill="#06B6D4" fill-opacity="0.25" stroke="#06B6D4" stroke-width="1"/>
  <circle cx="730" cy="360" r="6" fill="#06B6D4" fill-opacity="0.6"/>
  <text x="730" y="340" font-size="9" fill="#E2E8F0" text-anchor="middle" font-weight="500">check_permissions</text>
  <text x="730" y="380" font-size="8" fill="#64748B" text-anchor="middle">Function</text>

  <!-- AuthViewSet (IMPORTS neighbor) -->
  <circle cx="340" cy="510" r="22" fill="url(#neighborGlow)"/>
  <circle cx="340" cy="510" r="10" fill="#06B6D4" fill-opacity="0.25" stroke="#06B6D4" stroke-width="1"/>
  <circle cx="340" cy="510" r="6" fill="#06B6D4" fill-opacity="0.6"/>
  <text x="340" y="490" font-size="9" fill="#E2E8F0" text-anchor="middle" font-weight="500">AuthViewSet</text>
  <text x="340" y="530" font-size="8" fill="#64748B" text-anchor="middle">Class</text>

  <!-- PermissionMixin (IMPORTS neighbor) -->
  <circle cx="440" cy="620" r="22" fill="url(#neighborGlow)"/>
  <circle cx="440" cy="620" r="10" fill="#06B6D4" fill-opacity="0.25" stroke="#06B6D4" stroke-width="1"/>
  <circle cx="440" cy="620" r="6" fill="#06B6D4" fill-opacity="0.6"/>
  <text x="440" y="600" font-size="9" fill="#E2E8F0" text-anchor="middle" font-weight="500">PermissionMixin</text>
  <text x="440" y="640" font-size="8" fill="#64748B" text-anchor="middle">Class</text>

  <!-- usePermission (FETCHES neighbor - frontend) -->
  <circle cx="700" cy="660" r="22" fill="url(#neighborGlow)"/>
  <circle cx="700" cy="660" r="10" fill="#06B6D4" fill-opacity="0.25" stroke="#06B6D4" stroke-width="1"/>
  <circle cx="700" cy="660" r="6" fill="#06B6D4" fill-opacity="0.6"/>
  <text x="700" y="640" font-size="9" fill="#E2E8F0" text-anchor="middle" font-weight="500">usePermission</text>
  <text x="700" y="680" font-size="8" fill="#64748B" text-anchor="middle">Function · React</text>

  <!-- PermissionCache (QUERIES neighbor) -->
  <circle cx="830" cy="600" r="22" fill="url(#neighborGlow)"/>
  <circle cx="830" cy="600" r="10" fill="#06B6D4" fill-opacity="0.25" stroke="#06B6D4" stroke-width="1"/>
  <circle cx="830" cy="600" r="6" fill="#06B6D4" fill-opacity="0.6"/>
  <text x="830" y="580" font-size="9" fill="#E2E8F0" text-anchor="middle" font-weight="500">PermissionCache</text>
  <text x="830" y="620" font-size="8" fill="#64748B" text-anchor="middle">Class</text>

  <!-- ==== SELECTED NODE: UserPermission ==== -->
  <circle cx="590" cy="500" r="46" fill="url(#selectedGlow)"/>
  <!-- Pulsing ring [ANIM] -->
  <circle cx="590" cy="500" r="36" fill="none" stroke="#22C55E" stroke-width="1.5" stroke-opacity="0.6"/>
  <circle cx="590" cy="500" r="24" fill="#22C55E" fill-opacity="0.2" stroke="#22C55E" stroke-width="2"/>
  <circle cx="590" cy="500" r="14" fill="#22C55E" fill-opacity="0.55"/>
  <circle cx="590" cy="500" r="6" fill="#22C55E"/>
  <!-- Selection ring glow -->
  <circle cx="590" cy="500" r="28" fill="none" stroke="#22C55E" stroke-width="3" stroke-opacity="0.35"/>
  <!-- Entity label below -->
  <rect x="534" y="530" width="112" height="28" rx="6" fill="#0A1A12" stroke="#22C55E" stroke-width="1"/>
  <text x="590" y="545" font-size="11" fill="#22C55E" text-anchor="middle" font-weight="600">UserPermission</text>
  <text x="590" y="557" font-size="9" fill="#94A3B8" text-anchor="middle">Class · Auth &amp; Identity</text>

  <!-- ==================== ENTITY INSPECTOR PANEL ==================== -->
  <!-- [ANIM] Slide in from right: 280ms ease-out on node click -->
  <rect x="1160" y="48" width="280" height="912" fill="#0C1118" stroke="#1E2733" stroke-width="1"/>

  <!-- Inspector header -->
  <rect x="1160" y="48" width="280" height="52" fill="#141920" stroke="#1E2733" stroke-width="1"/>
  <!-- Kind badge -->
  <rect x="1176" y="62" width="44" height="18" rx="9" fill="#0D1A2E" stroke="#3B82F6" stroke-width="1"/>
  <text x="1198" y="75" font-size="9" fill="#3B82F6" text-anchor="middle" class="mono">Class</text>
  <!-- Entity name -->
  <text x="1230" y="72" font-size="13" font-weight="600" fill="#E2E8F0" class="mono">UserPermission</text>
  <!-- Close button -->
  <text x="1420" y="76" font-size="14" fill="#475569">×</text>

  <!-- Source location -->
  <rect x="1176" y="108" width="248" height="28" rx="4" fill="#141920"/>
  <text x="1186" y="126" font-size="10" fill="#64748B" class="mono">auth/permissions.py</text>
  <text x="1390" y="126" font-size="10" fill="#22C55E" text-anchor="end" class="mono">L89</text>

  <!-- Metadata grid -->
  <text x="1176" y="150" font-size="11" font-weight="600" fill="#64748B" letter-spacing="0.04em">PROPERTIES</text>
  <!-- Row: Community -->
  <text x="1176" y="170" font-size="10" fill="#475569">Community</text>
  <text x="1420" y="170" font-size="10" fill="#94A3B8" text-anchor="end">Auth &amp; Identity</text>
  <!-- Row: Repo -->
  <text x="1176" y="188" font-size="10" fill="#475569">Repo</text>
  <rect x="1340" y="178" width="72" height="16" rx="8" fill="#0D2020" stroke="#22C55E" stroke-width="1"/>
  <text x="1376" y="190" font-size="9" fill="#22C55E" text-anchor="middle">acme-api</text>
  <!-- Row: Language -->
  <text x="1176" y="208" font-size="10" fill="#475569">Language</text>
  <text x="1420" y="208" font-size="10" fill="#94A3B8" text-anchor="end">Python</text>
  <!-- Row: Start line -->
  <text x="1176" y="226" font-size="10" fill="#475569">Lines</text>
  <text x="1420" y="226" font-size="10" fill="#94A3B8" text-anchor="end" class="mono">89–142</text>
  <!-- Row: PageRank -->
  <text x="1176" y="244" font-size="10" fill="#475569">PageRank</text>
  <text x="1420" y="244" font-size="10" fill="#F59E0B" text-anchor="end" font-weight="600">0.76</text>

  <!-- Divider -->
  <rect x="1176" y="254" width="248" height="1" fill="#1E2733"/>

  <!-- OUTBOUND EDGES section -->
  <text x="1176" y="274" font-size="11" font-weight="600" fill="#64748B" letter-spacing="0.04em">EDGES (7)</text>

  <!-- Edge kind grouping chips -->
  <!-- CALLS group -->
  <rect x="1176" y="282" width="46" height="16" rx="8" fill="#0D1A2E" stroke="#3B82F6" stroke-width="1"/>
  <text x="1199" y="294" font-size="9" fill="#3B82F6" text-anchor="middle" class="mono">CALLS ×3</text>

  <!-- CALLS edges list -->
  <rect x="1176" y="304" width="248" height="26" rx="4" fill="#141920"/>
  <circle cx="1192" cy="317" r="5" fill="#06B6D4" fill-opacity="0.4" stroke="#06B6D4" stroke-width="1"/>
  <text x="1204" y="321" font-size="10" fill="#94A3B8" class="mono">HasPermission</text>
  <text x="1420" y="321" font-size="9" fill="#475569" text-anchor="end">Class</text>

  <rect x="1176" y="334" width="248" height="26" rx="4" fill="transparent"/>
  <circle cx="1192" cy="347" r="5" fill="#06B6D4" fill-opacity="0.4" stroke="#06B6D4" stroke-width="1"/>
  <text x="1204" y="351" font-size="10" fill="#94A3B8" class="mono">check_permissions</text>
  <text x="1420" y="351" font-size="9" fill="#475569" text-anchor="end">Function</text>

  <rect x="1176" y="360" width="248" height="26" rx="4" fill="transparent"/>
  <circle cx="1192" cy="373" r="5" fill="#06B6D4" fill-opacity="0.4" stroke="#06B6D4" stroke-width="1"/>
  <text x="1204" y="377" font-size="10" fill="#94A3B8" class="mono">is_permission_class</text>
  <text x="1420" y="377" font-size="9" fill="#475569" text-anchor="end">Function</text>

  <!-- IMPORTS group -->
  <rect x="1176" y="394" width="56" height="16" rx="8" fill="#0D2418" stroke="#10B981" stroke-width="1"/>
  <text x="1204" y="406" font-size="9" fill="#10B981" text-anchor="middle" class="mono">IMPORTS ×2</text>

  <rect x="1176" y="416" width="248" height="26" rx="4" fill="#141920"/>
  <circle cx="1192" cy="429" r="5" fill="#10B981" fill-opacity="0.4" stroke="#10B981" stroke-width="1"/>
  <text x="1204" y="433" font-size="10" fill="#94A3B8" class="mono">rest_framework.permissions</text>
  <text x="1420" y="433" font-size="9" fill="#475569" text-anchor="end">Module</text>

  <rect x="1176" y="446" width="248" height="26" rx="4" fill="transparent"/>
  <circle cx="1192" cy="459" r="5" fill="#10B981" fill-opacity="0.4" stroke="#10B981" stroke-width="1"/>
  <text x="1204" y="463" font-size="10" fill="#94A3B8" class="mono">django.contrib.auth</text>
  <text x="1420" y="463" font-size="9" fill="#475569" text-anchor="end">Module</text>

  <!-- QUERIES group -->
  <rect x="1176" y="480" width="62" height="16" rx="8" fill="#1A1030" stroke="#8B5CF6" stroke-width="1"/>
  <text x="1207" y="492" font-size="9" fill="#8B5CF6" text-anchor="middle" class="mono">QUERIES ×2</text>

  <rect x="1176" y="502" width="248" height="26" rx="4" fill="#141920"/>
  <circle cx="1192" cy="515" r="5" fill="#8B5CF6" fill-opacity="0.4" stroke="#8B5CF6" stroke-width="1"/>
  <text x="1204" y="519" font-size="10" fill="#94A3B8" class="mono">auth_permission</text>
  <text x="1420" y="519" font-size="9" fill="#475569" text-anchor="end">Table</text>

  <rect x="1176" y="532" width="248" height="26" rx="4" fill="transparent"/>
  <circle cx="1192" cy="545" r="5" fill="#8B5CF6" fill-opacity="0.4" stroke="#8B5CF6" stroke-width="1"/>
  <text x="1204" y="549" font-size="10" fill="#94A3B8" class="mono">auth_user</text>
  <text x="1420" y="549" font-size="9" fill="#475569" text-anchor="end">Table</text>

  <!-- Divider -->
  <rect x="1176" y="566" width="248" height="1" fill="#1E2733"/>

  <!-- Source snippet preview -->
  <text x="1176" y="586" font-size="11" font-weight="600" fill="#64748B" letter-spacing="0.04em">SOURCE PREVIEW</text>
  <rect x="1176" y="594" width="248" height="78" rx="4" fill="#080D14" stroke="#1E2733" stroke-width="1"/>
  <text x="1192" y="612" font-size="10" fill="#475569" class="mono">89</text>
  <text x="1210" y="612" font-size="10" fill="#94A3B8" class="mono">class <tspan fill="#3B82F6">UserPermission</tspan>(</text>
  <text x="1192" y="628" font-size="10" fill="#475569" class="mono">90</text>
  <text x="1210" y="628" font-size="10" fill="#94A3B8" class="mono">    <tspan fill="#A855F7">BasePermission</tspan></text>
  <text x="1192" y="644" font-size="10" fill="#475569" class="mono">91</text>
  <text x="1210" y="644" font-size="10" fill="#94A3B8" class="mono">):</text>
  <text x="1192" y="660" font-size="10" fill="#475569" class="mono">92</text>
  <text x="1210" y="660" font-size="10" fill="#64748B" class="mono">    """Checks user perms"""</text>

  <!-- Expand snippet button -->
  <text x="1420" y="682" font-size="9" fill="#22C55E" text-anchor="end">Expand ↓</text>

  <!-- Actions -->
  <rect x="1176" y="690" width="248" height="1" fill="#1E2733"/>

  <!-- "Open in Flows" button -->
  <rect x="1176" y="700" width="120" height="28" rx="6" fill="#172A1F" stroke="#22C55E" stroke-width="1"/>
  <text x="1236" y="718" font-size="10" fill="#22C55E" text-anchor="middle" font-weight="500">Open in Flows →</text>

  <!-- "Open in API" button -->
  <rect x="1306" y="700" width="118" height="28" rx="6" fill="#141920" stroke="#1E2733" stroke-width="1"/>
  <text x="1365" y="718" font-size="10" fill="#94A3B8" text-anchor="middle">View API paths →</text>

  <!-- Findings section -->
  <rect x="1176" y="736" width="248" height="1" fill="#1E2733"/>
  <text x="1176" y="756" font-size="11" font-weight="600" fill="#64748B" letter-spacing="0.04em">FINDINGS</text>
  <!-- Finding item -->
  <rect x="1176" y="764" width="248" height="42" rx="4" fill="#181208" stroke="#D97706" stroke-width="1"/>
  <text x="1192" y="781" font-size="9" font-weight="600" fill="#D97706">⚠ Orphan risk</text>
  <text x="1192" y="797" font-size="9" fill="#94A3B8">No inbound IMPORTS detected.</text>
  <text x="1192" y="809" font-size="9" fill="#475569">May be unreachable from call graph.</text>

  <!-- [ANIM] inspector slide-in: translateX(280px)→translateX(0), 280ms ease-out -->
  <!-- [ANIM] selected node: green ring pulse 2s loop, reduced-motion: static ring -->
  <!-- [ANIM] edge highlight: dim non-1-hop edges to 0.12 opacity on node select, 200ms -->
</svg>
