<?xml version="1.0" encoding="UTF-8"?>
<!-- Surface 1 — Graph Viewer: View 1 Zoomed Out (25k-node, centroids only, 6 communities) -->
<svg width="1440" height="960" viewBox="0 0 1440 960" xmlns="http://www.w3.org/2000/svg" font-family="'Inter', 'SF Pro Display', system-ui, sans-serif">
  <defs>
    <style>
      text { font-family: 'Inter', 'SF Pro Display', system-ui, sans-serif; }
      .mono { font-family: 'JetBrains Mono', 'Fira Code', 'Consolas', monospace; }
    </style>
    <!-- Radial glow for community centroids -->
    <radialGradient id="glowCyan" cx="50%" cy="50%" r="50%">
      <stop offset="0%" stop-color="#06B6D4" stop-opacity="0.7"/>
      <stop offset="60%" stop-color="#06B6D4" stop-opacity="0.18"/>
      <stop offset="100%" stop-color="#06B6D4" stop-opacity="0"/>
    </radialGradient>
    <radialGradient id="glowGreen" cx="50%" cy="50%" r="50%">
      <stop offset="0%" stop-color="#22C55E" stop-opacity="0.7"/>
      <stop offset="60%" stop-color="#22C55E" stop-opacity="0.18"/>
      <stop offset="100%" stop-color="#22C55E" stop-opacity="0"/>
    </radialGradient>
    <radialGradient id="glowPurple" cx="50%" cy="50%" r="50%">
      <stop offset="0%" stop-color="#A855F7" stop-opacity="0.7"/>
      <stop offset="60%" stop-color="#A855F7" stop-opacity="0.18"/>
      <stop offset="100%" stop-color="#A855F7" stop-opacity="0"/>
    </radialGradient>
    <radialGradient id="glowAmber" cx="50%" cy="50%" r="50%">
      <stop offset="0%" stop-color="#F59E0B" stop-opacity="0.7"/>
      <stop offset="60%" stop-color="#F59E0B" stop-opacity="0.18"/>
      <stop offset="100%" stop-color="#F59E0B" stop-opacity="0"/>
    </radialGradient>
    <radialGradient id="glowBlue" cx="50%" cy="50%" r="50%">
      <stop offset="0%" stop-color="#3B82F6" stop-opacity="0.7"/>
      <stop offset="60%" stop-color="#3B82F6" stop-opacity="0.18"/>
      <stop offset="100%" stop-color="#3B82F6" stop-opacity="0"/>
    </radialGradient>
    <radialGradient id="glowRose" cx="50%" cy="50%" r="50%">
      <stop offset="0%" stop-color="#F43F5E" stop-opacity="0.7"/>
      <stop offset="60%" stop-color="#F43F5E" stop-opacity="0.18"/>
      <stop offset="100%" stop-color="#F43F5E" stop-opacity="0"/>
    </radialGradient>
    <!-- Canvas depth fog -->
    <radialGradient id="canvasFog" cx="50%" cy="55%" r="55%">
      <stop offset="0%" stop-color="#0A0F1A" stop-opacity="0"/>
      <stop offset="100%" stop-color="#060912" stop-opacity="0.85"/>
    </radialGradient>
    <!-- Edge lines subtle glow -->
    <filter id="edgeGlow" x="-20%" y="-20%" width="140%" height="140%">
      <feGaussianBlur stdDeviation="1.2" result="blur"/>
      <feMerge><feMergeNode in="blur"/><feMergeNode in="SourceGraphic"/></feMerge>
    </filter>
    <filter id="nodeGlow" x="-50%" y="-50%" width="200%" height="200%">
      <feGaussianBlur stdDeviation="4" result="blur"/>
      <feMerge><feMergeNode in="blur"/><feMergeNode in="SourceGraphic"/></feMerge>
    </filter>
  </defs>

  <!-- ==================== BACKGROUNDS ==================== -->
  <!-- Deep space canvas -->
  <rect width="1440" height="960" fill="#060912"/>
  <!-- Content area only (right of sidebar, below nav) -->
  <rect x="220" y="48" width="1220" height="912" fill="#07091299"/>

  <!-- ==================== TOP NAV ==================== -->
  <rect width="1440" height="48" fill="#141920" stroke="#1E2733" stroke-width="1"/>
  <!-- Logo mark: two squares -->
  <rect x="16" y="14" width="8" height="8" rx="2" fill="#22C55E"/>
  <rect x="28" y="14" width="8" height="8" rx="2" fill="#3B82F6"/>
  <text x="44" y="28" font-size="13" font-weight="600" fill="#E2E8F0" letter-spacing="-0.3px">archigraph</text>

  <!-- Nav items: Graph active -->
  <rect x="120" y="6" width="56" height="36" rx="4" fill="#1E2733"/>
  <text x="148" y="28" font-size="12" font-weight="500" fill="#22C55E" text-anchor="middle">Graph</text>
  <text x="193" y="28" font-size="12" fill="#64748B">Flows</text>
  <text x="242" y="28" font-size="12" fill="#64748B">Topology</text>
  <text x="301" y="28" font-size="12" fill="#64748B">API</text>
  <text x="347" y="28" font-size="12" fill="#64748B">Docs</text>

  <!-- Group picker -->
  <rect x="1200" y="10" width="140" height="28" rx="6" fill="#1E2733" stroke="#2D3748" stroke-width="1"/>
  <text x="1215" y="28" font-size="11" fill="#94A3B8">Group:</text>
  <text x="1260" y="28" font-size="11" font-weight="500" fill="#E2E8F0">acme-platform</text>
  <text x="1330" y="28" font-size="11" fill="#64748B">▾</text>

  <!-- Avatar -->
  <circle cx="1410" cy="24" r="14" fill="#1E2733" stroke="#2D3748" stroke-width="1"/>
  <text x="1410" y="29" font-size="11" fill="#94A3B8" text-anchor="middle">JC</text>

  <!-- ==================== LEFT SIDEBAR ==================== -->
  <rect x="0" y="48" width="220" height="912" fill="#0C1118" stroke="#1E2733" stroke-width="1"/>

  <!-- Sidebar section: Community Legend -->
  <text x="16" y="82" font-size="11" font-weight="600" fill="#64748B" letter-spacing="0.05em">COMMUNITIES</text>
  <text x="178" y="82" font-size="10" fill="#334155">6</text>

  <!-- Community items -->
  <!-- Auth & Identity -->
  <rect x="8" y="92" width="204" height="26" rx="4" fill="#1A2333"/>
  <circle cx="24" cy="105" r="5" fill="#06B6D4"/>
  <text x="36" y="110" font-size="12" font-weight="500" fill="#CBD5E1">Auth &amp; Identity</text>
  <rect x="166" y="97" width="36" height="14" rx="7" fill="#1E2733"/>
  <text x="184" y="109" font-size="9" fill="#64748B" text-anchor="middle">4,821</text>

  <!-- Core Services -->
  <rect x="8" y="122" width="204" height="26" rx="4" fill="transparent"/>
  <circle cx="24" cy="135" r="5" fill="#22C55E"/>
  <text x="36" y="140" font-size="12" fill="#94A3B8">Core Services</text>
  <rect x="166" y="127" width="36" height="14" rx="7" fill="#1A2230"/>
  <text x="184" y="139" font-size="9" fill="#475569" text-anchor="middle">6,108</text>

  <!-- Data Layer -->
  <rect x="8" y="152" width="204" height="26" rx="4" fill="transparent"/>
  <circle cx="24" cy="165" r="5" fill="#A855F7"/>
  <text x="36" y="170" font-size="12" fill="#94A3B8">Data Layer</text>
  <rect x="166" y="157" width="36" height="14" rx="7" fill="#1A2230"/>
  <text x="184" y="169" font-size="9" fill="#475569" text-anchor="middle">5,543</text>

  <!-- API Gateway -->
  <rect x="8" y="182" width="204" height="26" rx="4" fill="transparent"/>
  <circle cx="24" cy="195" r="5" fill="#F59E0B"/>
  <text x="36" y="200" font-size="12" fill="#94A3B8">API Gateway</text>
  <rect x="166" y="187" width="36" height="14" rx="7" fill="#1A2230"/>
  <text x="184" y="199" font-size="9" fill="#475569" text-anchor="middle">3,204</text>

  <!-- Frontend App -->
  <rect x="8" y="212" width="204" height="26" rx="4" fill="transparent"/>
  <circle cx="24" cy="225" r="5" fill="#3B82F6"/>
  <text x="36" y="230" font-size="12" fill="#94A3B8">Frontend App</text>
  <rect x="166" y="217" width="36" height="14" rx="7" fill="#1A2230"/>
  <text x="184" y="229" font-size="9" fill="#475569" text-anchor="middle">3,887</text>

  <!-- Workers & Jobs -->
  <rect x="8" y="242" width="204" height="26" rx="4" fill="transparent"/>
  <circle cx="24" cy="255" r="5" fill="#F43F5E"/>
  <text x="36" y="260" font-size="12" fill="#94A3B8">Workers &amp; Jobs</text>
  <rect x="166" y="247" width="36" height="14" rx="7" fill="#1A2230"/>
  <text x="184" y="259" font-size="9" fill="#475569" text-anchor="middle">1,437</text>

  <!-- Divider -->
  <rect x="16" y="278" width="188" height="1" fill="#1E2733"/>

  <!-- Stats -->
  <text x="16" y="300" font-size="11" font-weight="600" fill="#64748B" letter-spacing="0.05em">GRAPH STATS</text>
  <text x="16" y="322" font-size="11" fill="#64748B">Nodes</text>
  <text x="204" y="322" font-size="11" fill="#94A3B8" text-anchor="end">25,000</text>
  <text x="16" y="340" font-size="11" fill="#64748B">Edges</text>
  <text x="204" y="340" font-size="11" fill="#94A3B8" text-anchor="end">89,342</text>
  <text x="16" y="358" font-size="11" fill="#64748B">Communities</text>
  <text x="204" y="358" font-size="11" fill="#94A3B8" text-anchor="end">6</text>
  <text x="16" y="376" font-size="11" fill="#64748B">LoD mode</text>
  <rect x="150" y="366" width="54" height="16" rx="8" fill="#1A2230" stroke="#3B82F6" stroke-width="1"/>
  <text x="177" y="378" font-size="9" fill="#3B82F6" text-anchor="middle">CENTROIDS</text>

  <!-- Divider -->
  <rect x="16" y="390" width="188" height="1" fill="#1E2733"/>

  <!-- Edge Kind Filters label -->
  <text x="16" y="412" font-size="11" font-weight="600" fill="#64748B" letter-spacing="0.05em">EDGE KINDS</text>
  <!-- CALLS chip -->
  <rect x="16" y="420" width="52" height="18" rx="9" fill="#0D1A2E" stroke="#3B82F6" stroke-width="1"/>
  <text x="42" y="433" font-size="9" fill="#3B82F6" text-anchor="middle" class="mono">CALLS</text>
  <!-- IMPORTS chip -->
  <rect x="74" y="420" width="60" height="18" rx="9" fill="#0D2418" stroke="#10B981" stroke-width="1"/>
  <text x="104" y="433" font-size="9" fill="#10B981" text-anchor="middle" class="mono">IMPORTS</text>
  <!-- FETCHES chip -->
  <rect x="140" y="420" width="60" height="18" rx="9" fill="#1B1000" stroke="#F59E0B" stroke-width="1"/>
  <text x="170" y="433" font-size="9" fill="#F59E0B" text-anchor="middle" class="mono">FETCHES</text>
  <!-- QUERIES chip -->
  <rect x="16" y="444" width="60" height="18" rx="9" fill="#1A1030" stroke="#8B5CF6" stroke-width="1"/>
  <text x="46" y="457" font-size="9" fill="#8B5CF6" text-anchor="middle" class="mono">QUERIES</text>
  <!-- PUBLISHES chip -->
  <rect x="82" y="444" width="72" height="18" rx="9" fill="#1A0D30" stroke="#A855F7" stroke-width="1"/>
  <text x="118" y="457" font-size="9" fill="#A855F7" text-anchor="middle" class="mono">PUBLISHES</text>
  <!-- SUBSCRIBES chip -->
  <rect x="16" y="468" width="80" height="18" rx="9" fill="#1E0808" stroke="#EF4444" stroke-width="1"/>
  <text x="56" y="481" font-size="9" fill="#EF4444" text-anchor="middle" class="mono">SUBSCRIBES</text>
  <!-- Cross-repo toggle -->
  <rect x="16" y="494" width="90" height="18" rx="9" fill="#1A2230" stroke="#64748B" stroke-width="1"/>
  <text x="61" y="507" font-size="9" fill="#64748B" text-anchor="middle" class="mono">CROSS-REPO</text>

  <!-- ==================== TOOLBAR STRIP (below nav, above canvas) ==================== -->
  <rect x="220" y="48" width="1220" height="44" fill="#0E1117" stroke="#1E2733" stroke-width="0" stroke-dasharray="0,0"/>
  <rect x="220" y="91" width="1220" height="1" fill="#1E2733"/>

  <!-- Search input -->
  <rect x="232" y="58" width="320" height="28" rx="6" fill="#141920" stroke="#1E2733" stroke-width="1"/>
  <!-- search icon placeholder -->
  <text x="248" y="76" font-size="12" fill="#475569">⌕</text>
  <text x="262" y="76" font-size="12" fill="#475569">Search entities, files, modules…</text>

  <!-- Toolbar buttons -->
  <!-- Layout toggle group -->
  <rect x="564" y="58" width="90" height="28" rx="6" fill="#141920" stroke="#1E2733" stroke-width="1"/>
  <rect x="564" y="58" width="30" height="28" rx="6" fill="#1E2733"/>
  <text x="579" y="76" font-size="10" fill="#E2E8F0" text-anchor="middle">Force</text>
  <text x="609" y="76" font-size="10" fill="#64748B" text-anchor="middle">Tree</text>
  <text x="639" y="76" font-size="10" fill="#64748B" text-anchor="middle">Sphere</text>

  <!-- 3D / 2D toggle -->
  <rect x="664" y="58" width="60" height="28" rx="6" fill="#141920" stroke="#1E2733" stroke-width="1"/>
  <rect x="664" y="58" width="30" height="28" rx="6" fill="#172A1F" stroke="#22C55E" stroke-width="1"/>
  <text x="679" y="76" font-size="10" fill="#22C55E" text-anchor="middle">3D</text>
  <text x="709" y="76" font-size="10" fill="#64748B" text-anchor="middle">2D</text>

  <!-- Reset view -->
  <rect x="734" y="58" width="78" height="28" rx="6" fill="#141920" stroke="#1E2733" stroke-width="1"/>
  <text x="773" y="76" font-size="10" fill="#94A3B8" text-anchor="middle">Reset View</text>

  <!-- LoD indicator badge -->
  <rect x="824" y="62" width="100" height="20" rx="10" fill="#0A1420" stroke="#1E2733" stroke-width="1"/>
  <circle cx="834" cy="72" r="3" fill="#3B82F6"/>
  <text x="848" y="76" font-size="9" fill="#64748B">LoD: CENTROIDS</text>

  <!-- Node count indicator -->
  <text x="1390" y="76" font-size="10" fill="#475569" text-anchor="end">25,000 nodes · 89,342 edges</text>

  <!-- ==================== 3D CANVAS AREA ==================== -->
  <!-- Canvas background with subtle fog effect -->
  <rect x="220" y="92" width="1220" height="868" fill="#070A14"/>
  <!-- Depth fog overlay -->
  <rect x="220" y="92" width="1220" height="868" fill="url(#canvasFog)"/>

  <!-- Star field micro-dots for depth atmosphere -->
  <circle cx="340" cy="150" r="0.8" fill="#1E2733" opacity="0.6"/>
  <circle cx="520" cy="200" r="0.6" fill="#1E2733" opacity="0.5"/>
  <circle cx="780" cy="160" r="0.7" fill="#1E2733" opacity="0.4"/>
  <circle cx="1050" cy="180" r="0.8" fill="#1E2733" opacity="0.6"/>
  <circle cx="1320" cy="140" r="0.6" fill="#1E2733" opacity="0.5"/>
  <circle cx="450" cy="320" r="0.7" fill="#1E2733" opacity="0.4"/>
  <circle cx="680" cy="280" r="0.8" fill="#1E2733" opacity="0.6"/>
  <circle cx="900" cy="350" r="0.6" fill="#1E2733" opacity="0.5"/>
  <circle cx="1150" cy="290" r="0.7" fill="#1E2733" opacity="0.4"/>
  <circle cx="1380" cy="380" r="0.8" fill="#1E2733" opacity="0.6"/>

  <!-- ========== INTER-CENTROID EDGES ========== -->
  <!-- These are thick, low-opacity arcs connecting community centroids -->
  <!-- Auth <-> Core Services -->
  <line x1="650" y1="400" x2="830" y2="520" stroke="#06B6D4" stroke-width="2.5" stroke-opacity="0.18"/>
  <!-- Auth <-> API Gateway -->
  <line x1="650" y1="400" x2="980" y2="310" stroke="#06B6D4" stroke-width="1.8" stroke-opacity="0.14"/>
  <!-- Core Services <-> Data Layer -->
  <line x1="830" y1="520" x2="1060" y2="620" stroke="#22C55E" stroke-width="3" stroke-opacity="0.16"/>
  <!-- Core Services <-> API Gateway -->
  <line x1="830" y1="520" x2="980" y2="310" stroke="#22C55E" stroke-width="2.2" stroke-opacity="0.14"/>
  <!-- Core Services <-> Frontend App -->
  <line x1="830" y1="520" x2="600" y2="690" stroke="#22C55E" stroke-width="1.5" stroke-opacity="0.12"/>
  <!-- Data Layer <-> Workers -->
  <line x1="1060" y1="620" x2="1240" y2="780" stroke="#A855F7" stroke-width="2" stroke-opacity="0.14"/>
  <!-- API Gateway <-> Frontend App -->
  <line x1="980" y1="310" x2="600" y2="690" stroke="#F59E0B" stroke-width="1.8" stroke-opacity="0.12"/>
  <!-- Frontend <-> Auth -->
  <line x1="600" y1="690" x2="650" y2="400" stroke="#3B82F6" stroke-width="1.5" stroke-opacity="0.12"/>
  <!-- Workers <-> Core Services -->
  <line x1="1240" y1="780" x2="830" y2="520" stroke="#F43F5E" stroke-width="1.5" stroke-opacity="0.1"/>

  <!-- ========== COMMUNITY CENTROID NODES ========== -->
  <!-- Auth & Identity — CYAN — large (4821 nodes) -->
  <circle cx="650" cy="400" r="80" fill="url(#glowCyan)" opacity="0.9"/>
  <circle cx="650" cy="400" r="34" fill="#06B6D4" fill-opacity="0.15" stroke="#06B6D4" stroke-width="1.5"/>
  <circle cx="650" cy="400" r="26" fill="#06B6D4" fill-opacity="0.22"/>
  <circle cx="650" cy="400" r="18" fill="#06B6D4" fill-opacity="0.55"/>
  <!-- Label -->
  <rect x="590" y="440" width="120" height="32" rx="6" fill="#0A1420" fill-opacity="0.88"/>
  <text x="650" y="455" font-size="11" font-weight="600" fill="#E2E8F0" text-anchor="middle">Auth &amp; Identity</text>
  <text x="650" y="468" font-size="10" fill="#06B6D4" text-anchor="middle">4,821 nodes</text>

  <!-- Core Services — GREEN — largest (6108 nodes) -->
  <circle cx="830" cy="520" r="94" fill="url(#glowGreen)" opacity="0.9"/>
  <circle cx="830" cy="520" r="40" fill="#22C55E" fill-opacity="0.15" stroke="#22C55E" stroke-width="1.5"/>
  <circle cx="830" cy="520" r="30" fill="#22C55E" fill-opacity="0.22"/>
  <circle cx="830" cy="520" r="20" fill="#22C55E" fill-opacity="0.55"/>
  <!-- Label -->
  <rect x="765" y="565" width="130" height="32" rx="6" fill="#0A1420" fill-opacity="0.88"/>
  <text x="830" y="580" font-size="11" font-weight="600" fill="#E2E8F0" text-anchor="middle">Core Services</text>
  <text x="830" y="593" font-size="10" fill="#22C55E" text-anchor="middle">6,108 nodes</text>

  <!-- Data Layer — PURPLE -->
  <circle cx="1060" cy="620" r="86" fill="url(#glowPurple)" opacity="0.9"/>
  <circle cx="1060" cy="620" r="36" fill="#A855F7" fill-opacity="0.15" stroke="#A855F7" stroke-width="1.5"/>
  <circle cx="1060" cy="620" r="27" fill="#A855F7" fill-opacity="0.22"/>
  <circle cx="1060" cy="620" r="18" fill="#A855F7" fill-opacity="0.55"/>
  <!-- Label -->
  <rect x="1000" y="660" width="120" height="32" rx="6" fill="#0A1420" fill-opacity="0.88"/>
  <text x="1060" y="675" font-size="11" font-weight="600" fill="#E2E8F0" text-anchor="middle">Data Layer</text>
  <text x="1060" y="688" font-size="10" fill="#A855F7" text-anchor="middle">5,543 nodes</text>

  <!-- API Gateway — AMBER -->
  <circle cx="980" cy="310" r="70" fill="url(#glowAmber)" opacity="0.9"/>
  <circle cx="980" cy="310" r="30" fill="#F59E0B" fill-opacity="0.15" stroke="#F59E0B" stroke-width="1.5"/>
  <circle cx="980" cy="310" r="22" fill="#F59E0B" fill-opacity="0.22"/>
  <circle cx="980" cy="310" r="14" fill="#F59E0B" fill-opacity="0.55"/>
  <!-- Label -->
  <rect x="922" y="348" width="116" height="32" rx="6" fill="#0A1420" fill-opacity="0.88"/>
  <text x="980" y="363" font-size="11" font-weight="600" fill="#E2E8F0" text-anchor="middle">API Gateway</text>
  <text x="980" y="376" font-size="10" fill="#F59E0B" text-anchor="middle">3,204 nodes</text>

  <!-- Frontend App — BLUE -->
  <circle cx="600" cy="690" r="74" fill="url(#glowBlue)" opacity="0.9"/>
  <circle cx="600" cy="690" r="31" fill="#3B82F6" fill-opacity="0.15" stroke="#3B82F6" stroke-width="1.5"/>
  <circle cx="600" cy="690" r="23" fill="#3B82F6" fill-opacity="0.22"/>
  <circle cx="600" cy="690" r="15" fill="#3B82F6" fill-opacity="0.55"/>
  <!-- Label -->
  <rect x="537" y="730" width="126" height="32" rx="6" fill="#0A1420" fill-opacity="0.88"/>
  <text x="600" y="745" font-size="11" font-weight="600" fill="#E2E8F0" text-anchor="middle">Frontend App</text>
  <text x="600" y="758" font-size="10" fill="#3B82F6" text-anchor="middle">3,887 nodes</text>

  <!-- Workers & Jobs — ROSE — smallest -->
  <circle cx="1240" cy="780" r="60" fill="url(#glowRose)" opacity="0.9"/>
  <circle cx="1240" cy="780" r="26" fill="#F43F5E" fill-opacity="0.15" stroke="#F43F5E" stroke-width="1.5"/>
  <circle cx="1240" cy="780" r="19" fill="#F43F5E" fill-opacity="0.22"/>
  <circle cx="1240" cy="780" r="12" fill="#F43F5E" fill-opacity="0.55"/>
  <!-- Label -->
  <rect x="1183" y="816" width="114" height="32" rx="6" fill="#0A1420" fill-opacity="0.88"/>
  <text x="1240" y="831" font-size="11" font-weight="600" fill="#E2E8F0" text-anchor="middle">Workers &amp; Jobs</text>
  <text x="1240" y="844" font-size="10" fill="#F43F5E" text-anchor="middle">1,437 nodes</text>

  <!-- ==================== ANNOTATION / ANNOTATION CALLOUT ==================== -->
  <!-- LoD tooltip annotation in top-right -->
  <rect x="1220" y="100" width="210" height="62" rx="6" fill="#0E1520" stroke="#1E2733" stroke-width="1"/>
  <text x="1236" y="118" font-size="10" font-weight="600" fill="#94A3B8">Zoom Level</text>
  <text x="1236" y="134" font-size="10" fill="#64748B">Current: CENTROID mode</text>
  <text x="1236" y="148" font-size="10" fill="#64748B">5,000+ nodes visible</text>
  <text x="1236" y="162" font-size="10" fill="#3B82F6">Zoom in → reveal god-nodes</text>

  <!-- LoD zoom bar -->
  <rect x="1220" y="170" width="210" height="6" rx="3" fill="#1E2733"/>
  <rect x="1220" y="170" width="28" height="6" rx="3" fill="#3B82F6"/>
  <circle cx="1248" cy="173" r="5" fill="#3B82F6" stroke="#060912" stroke-width="2"/>
  <!-- Labels -->
  <text x="1222" y="186" font-size="9" fill="#3B82F6">Far</text>
  <text x="1324" y="186" font-size="9" fill="#64748B" text-anchor="middle">Mid</text>
  <text x="1428" y="186" font-size="9" fill="#64748B" text-anchor="end">Close</text>

  <!-- Mini interaction hint bottom-left -->
  <rect x="232" y="876" width="220" height="68" rx="6" fill="#0E1520" stroke="#1E2733" stroke-width="1" fill-opacity="0.92"/>
  <text x="248" y="895" font-size="10" font-weight="600" fill="#94A3B8">Interactions</text>
  <text x="248" y="911" font-size="10" fill="#64748B">Scroll — zoom in/out (changes LoD)</text>
  <text x="248" y="926" font-size="10" fill="#64748B">Click centroid — expand community</text>
  <text x="248" y="941" font-size="10" fill="#64748B">Cmd+K — search &amp; teleport to node</text>

  <!-- [ANIM] canvas: 3d-force-graph WebGL; centroids auto-rotate idle -->
  <!-- [ANIM] hover centroid: scale glow 1.15, 120ms ease; show tooltip -->
  <!-- [ANIM] zoom: LoD crossfade 400ms when crossing 5k/1k thresholds -->
</svg>
