<?xml version="1.0" encoding="UTF-8"?>
<!-- Surface 1 — Graph Viewer: View 2 Mid-Zoom (Core Services community + god-nodes radiating) -->
<svg width="1440" height="960" viewBox="0 0 1440 960" xmlns="http://www.w3.org/2000/svg" font-family="'Inter', 'SF Pro Display', system-ui, sans-serif">
  <defs>
    <style>
      text { font-family: 'Inter', 'SF Pro Display', system-ui, sans-serif; }
      .mono { font-family: 'JetBrains Mono', 'Fira Code', 'Consolas', monospace; }
    </style>
    <radialGradient id="glowGreenLarge" cx="50%" cy="50%" r="50%">
      <stop offset="0%" stop-color="#22C55E" stop-opacity="0.5"/>
      <stop offset="50%" stop-color="#22C55E" stop-opacity="0.12"/>
      <stop offset="100%" stop-color="#22C55E" stop-opacity="0"/>
    </radialGradient>
    <radialGradient id="glowGodNode" cx="50%" cy="50%" r="50%">
      <stop offset="0%" stop-color="#F59E0B" stop-opacity="0.9"/>
      <stop offset="40%" stop-color="#F59E0B" stop-opacity="0.3"/>
      <stop offset="100%" stop-color="#F59E0B" stop-opacity="0"/>
    </radialGradient>
    <radialGradient id="glowGodBlue" cx="50%" cy="50%" r="50%">
      <stop offset="0%" stop-color="#3B82F6" stop-opacity="0.9"/>
      <stop offset="40%" stop-color="#3B82F6" stop-opacity="0.3"/>
      <stop offset="100%" stop-color="#3B82F6" stop-opacity="0"/>
    </radialGradient>
    <radialGradient id="glowGodCyan" cx="50%" cy="50%" r="50%">
      <stop offset="0%" stop-color="#06B6D4" stop-opacity="0.9"/>
      <stop offset="40%" stop-color="#06B6D4" stop-opacity="0.3"/>
      <stop offset="100%" stop-color="#06B6D4" stop-opacity="0"/>
    </radialGradient>
    <radialGradient id="glowGodPurple" cx="50%" cy="50%" r="50%">
      <stop offset="0%" stop-color="#A855F7" stop-opacity="0.9"/>
      <stop offset="40%" stop-color="#A855F7" stop-opacity="0.3"/>
      <stop offset="100%" stop-color="#A855F7" stop-opacity="0"/>
    </radialGradient>
    <radialGradient id="glowGodRose" cx="50%" cy="50%" r="50%">
      <stop offset="0%" stop-color="#F43F5E" stop-opacity="0.9"/>
      <stop offset="40%" stop-color="#F43F5E" stop-opacity="0.3"/>
      <stop offset="100%" stop-color="#F43F5E" stop-opacity="0"/>
    </radialGradient>
    <radialGradient id="canvasFog" cx="50%" cy="50%" r="60%">
      <stop offset="0%" stop-color="#060912" stop-opacity="0"/>
      <stop offset="100%" stop-color="#030610" stop-opacity="0.9"/>
    </radialGradient>
    <!-- Pulsing halo animation keyframe annotated -->
    <filter id="haloPulse" x="-30%" y="-30%" width="160%" height="160%">
      <feGaussianBlur stdDeviation="5" result="blur"/>
      <feMerge><feMergeNode in="blur"/><feMergeNode in="SourceGraphic"/></feMerge>
    </filter>
  </defs>

  <!-- ==================== BACKGROUNDS ==================== -->
  <rect width="1440" height="960" fill="#060912"/>
  <rect x="220" y="92" width="1220" height="868" fill="#07091299"/>
  <rect x="220" y="92" width="1220" height="868" fill="url(#canvasFog)"/>

  <!-- ==================== TOP NAV ==================== -->
  <rect width="1440" height="48" fill="#141920" stroke="#1E2733" stroke-width="1"/>
  <rect x="16" y="14" width="8" height="8" rx="2" fill="#22C55E"/>
  <rect x="28" y="14" width="8" height="8" rx="2" fill="#3B82F6"/>
  <text x="44" y="28" font-size="13" font-weight="600" fill="#E2E8F0" letter-spacing="-0.3px">archigraph</text>
  <rect x="120" y="6" width="56" height="36" rx="4" fill="#1E2733"/>
  <text x="148" y="28" font-size="12" font-weight="500" fill="#22C55E" text-anchor="middle">Graph</text>
  <text x="193" y="28" font-size="12" fill="#64748B">Flows</text>
  <text x="242" y="28" font-size="12" fill="#64748B">Topology</text>
  <text x="301" y="28" font-size="12" fill="#64748B">API</text>
  <text x="347" y="28" font-size="12" fill="#64748B">Docs</text>
  <rect x="1200" y="10" width="140" height="28" rx="6" fill="#1E2733" stroke="#2D3748" stroke-width="1"/>
  <text x="1215" y="28" font-size="11" fill="#94A3B8">Group:</text>
  <text x="1260" y="28" font-size="11" font-weight="500" fill="#E2E8F0">acme-platform</text>
  <text x="1330" y="28" font-size="11" fill="#64748B">▾</text>
  <circle cx="1410" cy="24" r="14" fill="#1E2733" stroke="#2D3748" stroke-width="1"/>
  <text x="1410" y="29" font-size="11" fill="#94A3B8" text-anchor="middle">JC</text>

  <!-- ==================== LEFT SIDEBAR ==================== -->
  <rect x="0" y="48" width="220" height="912" fill="#0C1118" stroke="#1E2733" stroke-width="1"/>
  <text x="16" y="82" font-size="11" font-weight="600" fill="#64748B" letter-spacing="0.05em">COMMUNITIES</text>
  <!-- Community items: Core Services highlighted -->
  <rect x="8" y="92" width="204" height="26" rx="4" fill="transparent"/>
  <circle cx="24" cy="105" r="5" fill="#06B6D4"/>
  <text x="36" y="110" font-size="12" fill="#94A3B8">Auth &amp; Identity</text>
  <rect x="8" y="122" width="204" height="26" rx="4" fill="#1A2333"/>
  <circle cx="24" cy="135" r="5" fill="#22C55E"/>
  <text x="36" y="140" font-size="12" font-weight="500" fill="#CBD5E1">Core Services</text>
  <rect x="166" y="127" width="36" height="14" rx="7" fill="#172A1F"/>
  <text x="184" y="139" font-size="9" fill="#22C55E" text-anchor="middle">6,108</text>
  <rect x="8" y="152" width="204" height="26" rx="4" fill="transparent"/>
  <circle cx="24" cy="165" r="5" fill="#A855F7"/>
  <text x="36" y="170" font-size="12" fill="#94A3B8">Data Layer</text>
  <rect x="8" y="182" width="204" height="26" rx="4" fill="transparent"/>
  <circle cx="24" cy="195" r="5" fill="#F59E0B"/>
  <text x="36" y="200" font-size="12" fill="#94A3B8">API Gateway</text>
  <rect x="8" y="212" width="204" height="26" rx="4" fill="transparent"/>
  <circle cx="24" cy="225" r="5" fill="#3B82F6"/>
  <text x="36" y="230" font-size="12" fill="#94A3B8">Frontend App</text>
  <rect x="8" y="242" width="204" height="26" rx="4" fill="transparent"/>
  <circle cx="24" cy="255" r="5" fill="#F43F5E"/>
  <text x="36" y="260" font-size="12" fill="#94A3B8">Workers &amp; Jobs</text>
  <rect x="16" y="278" width="188" height="1" fill="#1E2733"/>

  <!-- God-Node list label -->
  <text x="16" y="300" font-size="11" font-weight="600" fill="#64748B" letter-spacing="0.05em">GOD-NODES (Top 8)</text>
  <rect x="16" y="308" width="188" height="1" fill="#1E2733"/>
  <!-- God-node entries with amber crown icon -->
  <text x="28" y="326" font-size="10" fill="#F59E0B">★</text>
  <text x="42" y="326" font-size="11" fill="#CBD5E1" class="mono">UserService</text>
  <text x="204" y="326" font-size="9" fill="#64748B" text-anchor="end">PageRank 0.94</text>

  <text x="28" y="344" font-size="10" fill="#3B82F6">★</text>
  <text x="42" y="344" font-size="11" fill="#CBD5E1" class="mono">AuthMiddleware</text>
  <text x="204" y="344" font-size="9" fill="#64748B" text-anchor="end">PageRank 0.91</text>

  <text x="28" y="362" font-size="10" fill="#06B6D4">★</text>
  <text x="42" y="362" font-size="11" fill="#94A3B8" class="mono">SessionStore</text>
  <text x="204" y="362" font-size="9" fill="#475569" text-anchor="end">PageRank 0.87</text>

  <text x="28" y="380" font-size="10" fill="#A855F7">★</text>
  <text x="42" y="380" font-size="11" fill="#94A3B8" class="mono">DatabasePool</text>
  <text x="204" y="380" font-size="9" fill="#475569" text-anchor="end">PageRank 0.85</text>

  <text x="28" y="398" font-size="10" fill="#F43F5E">★</text>
  <text x="42" y="398" font-size="11" fill="#94A3B8" class="mono">CacheManager</text>
  <text x="204" y="398" font-size="9" fill="#475569" text-anchor="end">PageRank 0.82</text>

  <rect x="16" y="410" width="188" height="1" fill="#1E2733"/>

  <!-- LoD indicator -->
  <text x="16" y="430" font-size="11" font-weight="600" fill="#64748B" letter-spacing="0.05em">GRAPH STATS</text>
  <text x="16" y="450" font-size="11" fill="#64748B">Visible nodes</text>
  <text x="204" y="450" font-size="11" fill="#22C55E" text-anchor="end" font-weight="600">2,340</text>
  <text x="16" y="468" font-size="11" fill="#64748B">LoD mode</text>
  <rect x="150" y="458" width="54" height="16" rx="8" fill="#1B1000" stroke="#F59E0B" stroke-width="1"/>
  <text x="177" y="470" font-size="9" fill="#F59E0B" text-anchor="middle">MID-ZOOM</text>

  <!-- ==================== TOOLBAR STRIP ==================== -->
  <rect x="220" y="48" width="1220" height="44" fill="#0E1117"/>
  <rect x="220" y="91" width="1220" height="1" fill="#1E2733"/>
  <rect x="232" y="58" width="320" height="28" rx="6" fill="#141920" stroke="#1E2733" stroke-width="1"/>
  <text x="248" y="76" font-size="12" fill="#475569">⌕</text>
  <text x="262" y="76" font-size="12" fill="#475569">Search entities, files, modules…</text>
  <rect x="564" y="58" width="90" height="28" rx="6" fill="#141920" stroke="#1E2733" stroke-width="1"/>
  <rect x="564" y="58" width="30" height="28" rx="6" fill="#1E2733"/>
  <text x="579" y="76" font-size="10" fill="#E2E8F0" text-anchor="middle">Force</text>
  <text x="609" y="76" font-size="10" fill="#64748B" text-anchor="middle">Tree</text>
  <text x="639" y="76" font-size="10" fill="#64748B" text-anchor="middle">Sphere</text>
  <rect x="664" y="58" width="60" height="28" rx="6" fill="#141920" stroke="#1E2733" stroke-width="1"/>
  <rect x="664" y="58" width="30" height="28" rx="6" fill="#172A1F" stroke="#22C55E" stroke-width="1"/>
  <text x="679" y="76" font-size="10" fill="#22C55E" text-anchor="middle">3D</text>
  <text x="709" y="76" font-size="10" fill="#64748B" text-anchor="middle">2D</text>
  <rect x="734" y="58" width="78" height="28" rx="6" fill="#141920" stroke="#1E2733" stroke-width="1"/>
  <text x="773" y="76" font-size="10" fill="#94A3B8" text-anchor="middle">Reset View</text>
  <rect x="824" y="62" width="90" height="20" rx="10" fill="#1B1000" stroke="#F59E0B" stroke-width="1"/>
  <circle cx="834" cy="72" r="3" fill="#F59E0B"/>
  <text x="848" y="76" font-size="9" fill="#F59E0B">LoD: MID-ZOOM</text>
  <text x="1390" y="76" font-size="10" fill="#475569" text-anchor="end">2,340 visible · 6,108 in community</text>

  <!-- ==================== MID-ZOOM CANVAS ==================== -->
  <!-- Community green halo center -->
  <circle cx="830" cy="500" r="280" fill="url(#glowGreenLarge)"/>
  <circle cx="830" cy="500" r="160" fill="#22C55E" fill-opacity="0.04" stroke="#22C55E" stroke-width="1" stroke-dasharray="4,6"/>

  <!-- Regular non-god nodes: scattered small dots around community -->
  <!-- Dozens of small dim nodes - 3 rings of dots -->
  <!-- Ring 1 - close, bright -->
  <circle cx="720" cy="430" r="4" fill="#22C55E" fill-opacity="0.35"/>
  <circle cx="760" cy="420" r="3" fill="#22C55E" fill-opacity="0.3"/>
  <circle cx="800" cy="415" r="5" fill="#22C55E" fill-opacity="0.4"/>
  <circle cx="840" cy="418" r="3" fill="#22C55E" fill-opacity="0.3"/>
  <circle cx="880" cy="425" r="4" fill="#22C55E" fill-opacity="0.35"/>
  <circle cx="910" cy="440" r="3" fill="#22C55E" fill-opacity="0.3"/>
  <circle cx="930" cy="460" r="5" fill="#22C55E" fill-opacity="0.4"/>
  <circle cx="940" cy="490" r="3" fill="#22C55E" fill-opacity="0.3"/>
  <circle cx="935" cy="520" r="4" fill="#22C55E" fill-opacity="0.35"/>
  <circle cx="920" cy="548" r="3" fill="#22C55E" fill-opacity="0.3"/>
  <circle cx="900" cy="570" r="4" fill="#22C55E" fill-opacity="0.3"/>
  <circle cx="870" cy="585" r="3" fill="#22C55E" fill-opacity="0.25"/>
  <circle cx="835" cy="590" r="5" fill="#22C55E" fill-opacity="0.4"/>
  <circle cx="795" cy="586" r="3" fill="#22C55E" fill-opacity="0.3"/>
  <circle cx="760" cy="575" r="4" fill="#22C55E" fill-opacity="0.35"/>
  <circle cx="730" cy="555" r="3" fill="#22C55E" fill-opacity="0.3"/>
  <circle cx="714" cy="530" r="4" fill="#22C55E" fill-opacity="0.35"/>
  <circle cx="710" cy="500" r="3" fill="#22C55E" fill-opacity="0.3"/>
  <circle cx="714" cy="468" r="4" fill="#22C55E" fill-opacity="0.35"/>
  <!-- Ring 2 - mid distance -->
  <circle cx="645" cy="390" r="3" fill="#22C55E" fill-opacity="0.2"/>
  <circle cx="690" cy="370" r="2.5" fill="#22C55E" fill-opacity="0.2"/>
  <circle cx="740" cy="360" r="3" fill="#22C55E" fill-opacity="0.22"/>
  <circle cx="790" cy="356" r="2.5" fill="#22C55E" fill-opacity="0.18"/>
  <circle cx="840" cy="358" r="3" fill="#22C55E" fill-opacity="0.22"/>
  <circle cx="890" cy="365" r="2" fill="#22C55E" fill-opacity="0.18"/>
  <circle cx="938" cy="380" r="3" fill="#22C55E" fill-opacity="0.2"/>
  <circle cx="975" cy="410" r="2.5" fill="#22C55E" fill-opacity="0.2"/>
  <circle cx="998" cy="445" r="3" fill="#22C55E" fill-opacity="0.22"/>
  <circle cx="1005" cy="480" r="2" fill="#22C55E" fill-opacity="0.18"/>
  <circle cx="1002" cy="518" r="3" fill="#22C55E" fill-opacity="0.2"/>
  <circle cx="990" cy="554" r="2.5" fill="#22C55E" fill-opacity="0.2"/>
  <circle cx="968" cy="586" r="3" fill="#22C55E" fill-opacity="0.22"/>
  <circle cx="938" cy="614" r="2" fill="#22C55E" fill-opacity="0.18"/>
  <circle cx="900" cy="634" r="3" fill="#22C55E" fill-opacity="0.2"/>
  <circle cx="858" cy="645" r="2.5" fill="#22C55E" fill-opacity="0.2"/>
  <circle cx="815" cy="647" r="3" fill="#22C55E" fill-opacity="0.22"/>
  <circle cx="772" cy="640" r="2" fill="#22C55E" fill-opacity="0.18"/>
  <circle cx="732" cy="626" r="3" fill="#22C55E" fill-opacity="0.2"/>
  <circle cx="695" cy="604" r="2.5" fill="#22C55E" fill-opacity="0.2"/>
  <circle cx="665" cy="574" r="3" fill="#22C55E" fill-opacity="0.22"/>
  <circle cx="645" cy="540" r="2" fill="#22C55E" fill-opacity="0.18"/>
  <circle cx="636" cy="502" r="3" fill="#22C55E" fill-opacity="0.2"/>
  <circle cx="636" cy="460" r="2.5" fill="#22C55E" fill-opacity="0.2"/>
  <circle cx="645" cy="422" r="3" fill="#22C55E" fill-opacity="0.22"/>

  <!-- GOD-NODE EDGES from center: radial lines to god-nodes -->
  <!-- Core centroid is at 830,500 -->
  <!-- UserService at top -->
  <line x1="830" y1="500" x2="830" y2="240" stroke="#22C55E" stroke-width="1.5" stroke-opacity="0.3"/>
  <!-- AuthMiddleware at top-right -->
  <line x1="830" y1="500" x2="1070" y2="280" stroke="#22C55E" stroke-width="1.5" stroke-opacity="0.25"/>
  <!-- SessionStore at right -->
  <line x1="830" y1="500" x2="1160" y2="480" stroke="#22C55E" stroke-width="1.5" stroke-opacity="0.25"/>
  <!-- DatabasePool at bottom-right -->
  <line x1="830" y1="500" x2="1090" y2="760" stroke="#22C55E" stroke-width="1.5" stroke-opacity="0.25"/>
  <!-- CacheManager at bottom -->
  <line x1="830" y1="500" x2="700" y2="810" stroke="#22C55E" stroke-width="1.5" stroke-opacity="0.25"/>
  <!-- EventBus at left -->
  <line x1="830" y1="500" x2="490" y2="600" stroke="#22C55E" stroke-width="1.5" stroke-opacity="0.25"/>
  <!-- TaskQueue at top-left -->
  <line x1="830" y1="500" x2="550" y2="280" stroke="#22C55E" stroke-width="1.5" stroke-opacity="0.25"/>
  <!-- HttpClient at bottom-left -->
  <line x1="830" y1="500" x2="440" y2="760" stroke="#22C55E" stroke-width="1.2" stroke-opacity="0.2"/>

  <!-- GOD-NODE: UserService (amber halo = top-K god-node) -->
  <circle cx="830" cy="240" r="36" fill="url(#glowGodNode)" opacity="0.9"/>
  <circle cx="830" cy="240" r="16" fill="#F59E0B" fill-opacity="0.2" stroke="#F59E0B" stroke-width="1.5"/>
  <!-- [ANIM] pulsing ring: scale 1.0→1.3, opacity 1→0, 2s loop — indicates god-node -->
  <circle cx="830" cy="240" r="22" fill="none" stroke="#F59E0B" stroke-width="1" stroke-opacity="0.4"/>
  <circle cx="830" cy="240" r="10" fill="#F59E0B" fill-opacity="0.7"/>
  <text x="830" y="218" font-size="10" fill="#E2E8F0" text-anchor="middle" font-weight="600">UserService</text>
  <text x="830" y="268" font-size="9" fill="#F59E0B" text-anchor="middle">Class · 0.94</text>

  <!-- AuthMiddleware -->
  <circle cx="1070" cy="280" r="30" fill="url(#glowGodBlue)" opacity="0.9"/>
  <circle cx="1070" cy="280" r="14" fill="#3B82F6" fill-opacity="0.2" stroke="#3B82F6" stroke-width="1.5"/>
  <circle cx="1070" cy="280" r="18" fill="none" stroke="#3B82F6" stroke-width="1" stroke-opacity="0.4"/>
  <circle cx="1070" cy="280" r="8" fill="#3B82F6" fill-opacity="0.7"/>
  <text x="1070" y="256" font-size="10" fill="#E2E8F0" text-anchor="middle" font-weight="600">AuthMiddleware</text>
  <text x="1070" y="308" font-size="9" fill="#3B82F6" text-anchor="middle">Function · 0.91</text>

  <!-- SessionStore -->
  <circle cx="1160" cy="480" r="28" fill="url(#glowGodCyan)" opacity="0.9"/>
  <circle cx="1160" cy="480" r="13" fill="#06B6D4" fill-opacity="0.2" stroke="#06B6D4" stroke-width="1.5"/>
  <circle cx="1160" cy="480" r="17" fill="none" stroke="#06B6D4" stroke-width="1" stroke-opacity="0.4"/>
  <circle cx="1160" cy="480" r="8" fill="#06B6D4" fill-opacity="0.7"/>
  <text x="1160" y="456" font-size="10" fill="#E2E8F0" text-anchor="middle" font-weight="600">SessionStore</text>
  <text x="1160" y="506" font-size="9" fill="#06B6D4" text-anchor="middle">Class · 0.87</text>

  <!-- DatabasePool -->
  <circle cx="1090" cy="760" r="28" fill="url(#glowGodPurple)" opacity="0.9"/>
  <circle cx="1090" cy="760" r="13" fill="#A855F7" fill-opacity="0.2" stroke="#A855F7" stroke-width="1.5"/>
  <circle cx="1090" cy="760" r="17" fill="none" stroke="#A855F7" stroke-width="1" stroke-opacity="0.4"/>
  <circle cx="1090" cy="760" r="8" fill="#A855F7" fill-opacity="0.7"/>
  <text x="1090" y="736" font-size="10" fill="#E2E8F0" text-anchor="middle" font-weight="600">DatabasePool</text>
  <text x="1090" y="788" font-size="9" fill="#A855F7" text-anchor="middle">Class · 0.85</text>

  <!-- CacheManager -->
  <circle cx="700" cy="810" r="26" fill="url(#glowGodRose)" opacity="0.9"/>
  <circle cx="700" cy="810" r="12" fill="#F43F5E" fill-opacity="0.2" stroke="#F43F5E" stroke-width="1.5"/>
  <circle cx="700" cy="810" r="16" fill="none" stroke="#F43F5E" stroke-width="1" stroke-opacity="0.4"/>
  <circle cx="700" cy="810" r="7" fill="#F43F5E" fill-opacity="0.7"/>
  <text x="700" y="786" font-size="10" fill="#E2E8F0" text-anchor="middle" font-weight="600">CacheManager</text>
  <text x="700" y="836" font-size="9" fill="#F43F5E" text-anchor="middle">Class · 0.82</text>

  <!-- EventBus -->
  <circle cx="490" cy="600" r="24" fill="url(#glowGodNode)" opacity="0.8"/>
  <circle cx="490" cy="600" r="11" fill="#F59E0B" fill-opacity="0.2" stroke="#F59E0B" stroke-width="1.5"/>
  <circle cx="490" cy="600" r="15" fill="none" stroke="#F59E0B" stroke-width="1" stroke-opacity="0.3"/>
  <circle cx="490" cy="600" r="7" fill="#F59E0B" fill-opacity="0.65"/>
  <text x="490" y="576" font-size="10" fill="#E2E8F0" text-anchor="middle" font-weight="600">EventBus</text>
  <text x="490" y="626" font-size="9" fill="#F59E0B" text-anchor="middle">Class · 0.80</text>

  <!-- TaskQueue -->
  <circle cx="550" cy="280" r="24" fill="url(#glowGodCyan)" opacity="0.8"/>
  <circle cx="550" cy="280" r="11" fill="#06B6D4" fill-opacity="0.2" stroke="#06B6D4" stroke-width="1.5"/>
  <circle cx="550" cy="280" r="15" fill="none" stroke="#06B6D4" stroke-width="1" stroke-opacity="0.3"/>
  <circle cx="550" cy="280" r="7" fill="#06B6D4" fill-opacity="0.65"/>
  <text x="550" y="256" font-size="10" fill="#E2E8F0" text-anchor="middle" font-weight="600">TaskQueue</text>
  <text x="550" y="308" font-size="9" fill="#06B6D4" text-anchor="middle">Class · 0.79</text>

  <!-- Community centroid core (always visible) -->
  <circle cx="830" cy="500" r="28" fill="#22C55E" fill-opacity="0.15" stroke="#22C55E" stroke-width="1.5"/>
  <circle cx="830" cy="500" r="18" fill="#22C55E" fill-opacity="0.3"/>
  <circle cx="830" cy="500" r="10" fill="#22C55E" fill-opacity="0.7"/>
  <text x="830" y="518" font-size="10" fill="#22C55E" text-anchor="middle">Core Services</text>

  <!-- LoD info callout -->
  <rect x="1220" y="100" width="210" height="76" rx="6" fill="#0E1520" stroke="#1E2733" stroke-width="1"/>
  <text x="1236" y="120" font-size="10" font-weight="600" fill="#94A3B8">Zoom Level</text>
  <text x="1236" y="136" font-size="10" fill="#64748B">Current: MID-ZOOM mode</text>
  <text x="1236" y="152" font-size="10" fill="#64748B">1,000–5,000 nodes visible</text>
  <text x="1236" y="168" font-size="10" fill="#F59E0B">Centroid + top god-nodes</text>
  <text x="1236" y="184" font-size="10" fill="#3B82F6">Zoom in → full entity graph</text>
  <rect x="1220" y="182" width="210" height="6" rx="3" fill="#1E2733"/>
  <rect x="1220" y="182" width="75" height="6" rx="3" fill="#F59E0B"/>
  <circle cx="1295" cy="185" r="5" fill="#F59E0B" stroke="#060912" stroke-width="2"/>
  <text x="1222" y="198" font-size="9" fill="#64748B">Far</text>
  <text x="1324" y="198" font-size="9" fill="#F59E0B" text-anchor="middle">Mid</text>
  <text x="1428" y="198" font-size="9" fill="#64748B" text-anchor="end">Close</text>

  <!-- [ANIM] god-node halo rings: scale 1.0→1.4, opacity 0.5→0, 2s ease-out loop -->
  <!-- [ANIM] LoD crossfade: 400ms when entering mid-zoom tier -->
  <!-- [ANIM] community boundary ring: subtle rotate at 0.02 rad/s idle -->
</svg>
