<?xml version="1.0" encoding="UTF-8"?>
<svg width="1440" height="960" viewBox="0 0 1440 960" xmlns="http://www.w3.org/2000/svg" font-family="'Inter', 'SF Pro Display', system-ui, sans-serif">
  <defs>
    <style>
      text { font-family: 'Inter', 'SF Pro Display', system-ui, sans-serif; }
      .mono { font-family: 'JetBrains Mono', 'Fira Code', 'Consolas', monospace; }
      .verb-get { fill: #10B981; }
      .verb-post { fill: #3B82F6; }
      .verb-patch { fill: #8B5CF6; }
      .verb-put { fill: #F59E0B; }
      .verb-delete { fill: #EF4444; }
    </style>
  </defs>

  <!-- Background: deep navy charcoal #0E1117 -->
  <rect width="1440" height="960" fill="#0E1117"/>

  <!-- Top Navigation Bar: 48px -->
  <rect width="1440" height="48" fill="#141920" stroke="#1E2733" stroke-width="1" y="0"/>

  <!-- Nav logo area -->
  <rect x="16" y="12" width="8" height="8" rx="2" fill="#22C55E"/>
  <rect x="28" y="12" width="8" height="8" rx="2" fill="#3B82F6"/>
  <text x="44" y="23" font-size="13" font-weight="600" fill="#E2E8F0" letter-spacing="-0.3px">archigraph</text>

  <!-- Nav items -->
  <text x="148" y="23" font-size="12" fill="#64748B">Graph</text>
  <text x="196" y="23" font-size="12" fill="#64748B">Flows</text>
  <text x="242" y="23" font-size="12" fill="#64748B">Topology</text>
  <rect x="290" y="6" width="56" height="36" rx="4" fill="#1E2733"/>
  <text x="318" y="28" font-size="12" font-weight="500" fill="#22C55E" text-anchor="middle">API</text>
  <text x="360" y="23" font-size="12" fill="#64748B">Docs</text>

  <!-- Group picker -->
  <rect x="1200" y="10" width="140" height="28" rx="6" fill="#1E2733" stroke="#2D3748" stroke-width="1"/>
  <text x="1215" y="28" font-size="11" fill="#94A3B8">Group:</text>
  <text x="1260" y="28" font-size="11" font-weight="500" fill="#E2E8F0">fixture-a</text>
  <text x="1332" y="28" font-size="11" fill="#64748B">▾</text>

  <!-- Avatar -->
  <circle cx="1410" cy="24" r="14" fill="#1E2733" stroke="#2D3748" stroke-width="1"/>
  <text x="1410" y="29" font-size="11" fill="#94A3B8" text-anchor="middle">JC</text>

  <!-- LEFT SIDEBAR: 220px tree sidebar -->
  <rect x="0" y="48" width="220" height="912" fill="#0C1118" stroke="#1E2733" stroke-width="1"/>

  <!-- Sidebar header -->
  <text x="16" y="80" font-size="11" font-weight="600" fill="#64748B" letter-spacing="0.05em">API PATHS</text>
  <text x="186" y="80" font-size="10" fill="#334155">648</text>

  <!-- Tree items -->
  <!-- /api/ group (open) -->
  <rect x="8" y="92" width="204" height="28" rx="4" fill="#1A2333"/>
  <text x="20" y="111" font-size="12" fill="#94A3B8">▾</text>
  <text x="34" y="111" font-size="12" font-weight="500" fill="#CBD5E1" class="mono">/api/</text>
  <rect x="174" y="97" width="30" height="16" rx="8" fill="#1E2733"/>
  <text x="189" y="110" font-size="10" fill="#64748B" text-anchor="middle">529</text>

  <!-- /api/v1/ (open, indented) -->
  <rect x="16" y="124" width="196" height="24" rx="4" fill="#152030"/>
  <text x="30" y="141" font-size="11" fill="#94A3B8">▾</text>
  <text x="44" y="141" font-size="11" fill="#94A3B8" class="mono">/api/v1/</text>
  <rect x="182" y="129" width="24" height="14" rx="7" fill="#1E2733"/>
  <text x="194" y="141" font-size="9" fill="#64748B" text-anchor="middle">520</text>

  <!-- Tree child items -->
  <rect x="24" y="150" width="188" height="22" rx="3" fill="transparent"/>
  <text x="44" y="166" font-size="11" fill="#64748B" class="mono">/buildings/</text>
  <rect x="178" y="155" width="24" height="12" rx="6" fill="#1A2230"/>
  <text x="190" y="165" font-size="9" fill="#475569" text-anchor="middle">47</text>

  <!-- Active: users -->
  <rect x="24" y="174" width="188" height="22" rx="3" fill="#162840"/>
  <rect x="24" y="178" width="2" height="14" rx="1" fill="#22C55E"/>
  <text x="44" y="190" font-size="11" fill="#22C55E" class="mono">/users/</text>
  <rect x="178" y="179" width="24" height="12" rx="6" fill="#172A1F"/>
  <text x="190" y="189" font-size="9" fill="#22C55E" text-anchor="middle">38</text>

  <rect x="24" y="198" width="188" height="22" rx="3" fill="transparent"/>
  <text x="44" y="214" font-size="11" fill="#64748B" class="mono">/contracts/</text>
  <rect x="178" y="203" width="24" height="12" rx="6" fill="#1A2230"/>
  <text x="190" y="213" font-size="9" fill="#475569" text-anchor="middle">31</text>

  <rect x="24" y="222" width="188" height="22" rx="3" fill="transparent"/>
  <text x="44" y="238" font-size="11" fill="#64748B" class="mono">/groups/</text>

  <rect x="24" y="246" width="188" height="22" rx="3" fill="transparent"/>
  <text x="44" y="262" font-size="11" fill="#64748B" class="mono">/buildings/</text>

  <rect x="24" y="270" width="188" height="22" rx="3" fill="transparent"/>
  <text x="44" y="286" font-size="11" fill="#64748B" class="mono">/devices/</text>

  <rect x="24" y="294" width="188" height="22" rx="3" fill="transparent"/>
  <text x="44" y="310" font-size="11" fill="#64748B" class="mono">/inspections/</text>

  <rect x="24" y="318" width="188" height="22" rx="3" fill="transparent"/>
  <text x="44" y="334" font-size="11" fill="#64748B" class="mono">/schedules/</text>

  <rect x="24" y="342" width="188" height="22" rx="3" fill="transparent"/>
  <text x="44" y="358" font-size="11" fill="#64748B" class="mono">/roles/</text>

  <!-- Divider -->
  <line x1="16" y1="370" x2="204" y2="370" stroke="#1E2733" stroke-width="1"/>

  <!-- /admin/ group -->
  <rect x="8" y="374" width="204" height="24" rx="4" fill="transparent"/>
  <text x="20" y="391" font-size="12" fill="#475569">▶</text>
  <text x="34" y="391" font-size="11" fill="#64748B" class="mono">/admin/</text>
  <rect x="174" y="379" width="30" height="14" rx="7" fill="#1E2733"/>
  <text x="189" y="390" font-size="9" fill="#475569" text-anchor="middle">~310</text>
  <text x="190" y="402" font-size="9" fill="#EF4444" text-anchor="middle">gap</text>

  <!-- /health/ group -->
  <rect x="8" y="406" width="204" height="24" rx="4" fill="transparent"/>
  <text x="20" y="423" font-size="12" fill="#475569">▶</text>
  <text x="34" y="423" font-size="11" fill="#64748B" class="mono">/health/</text>
  <rect x="174" y="411" width="30" height="14" rx="7" fill="#1E2733"/>
  <text x="189" y="422" font-size="9" fill="#475569" text-anchor="middle">3</text>

  <!-- MAIN CONTENT AREA -->
  <!-- Search + Filter Bar -->
  <rect x="232" y="60" width="920" height="38" rx="8" fill="#141920" stroke="#1E2733" stroke-width="1"/>
  <text x="252" y="84" font-size="13" fill="#475569">⌕</text>
  <text x="270" y="84" font-size="12" fill="#334155">/api/v1/users</text>
  <rect x="240" y="82" width="2" height="14" fill="#22C55E"/>

  <!-- Filter chips -->
  <rect x="1162" y="62" width="68" height="34" rx="6" fill="#1E2733" stroke="#2D3748" stroke-width="1"/>
  <text x="1196" y="83" font-size="11" fill="#94A3B8" text-anchor="middle">Filters</text>

  <!-- Active filter chips -->
  <rect x="220" y="108" width="100" height="24" rx="12" fill="#172A1F" stroke="#1E3A2A" stroke-width="1"/>
  <text x="270" y="124" font-size="11" fill="#22C55E" text-anchor="middle">ACME Backend</text>

  <rect x="330" y="108" width="90" height="24" rx="12" fill="#1A1E2E" stroke="#252D42" stroke-width="1"/>
  <text x="375" y="124" font-size="11" fill="#818CF8" text-anchor="middle">DRF</text>

  <rect x="430" y="108" width="80" height="24" rx="12" fill="#1A1E2E" stroke="#252D42" stroke-width="1"/>
  <text x="470" y="124" font-size="11" fill="#64748B" text-anchor="middle">+ Webhook</text>

  <!-- Page count -->
  <text x="1160" y="124" font-size="11" fill="#475569" text-anchor="end">648 paths · page 1 of 13</text>

  <!-- Column headers -->
  <rect x="220" y="140" width="920" height="32" fill="#0C1118"/>
  <text x="232" y="161" font-size="11" font-weight="600" fill="#475569" letter-spacing="0.04em">PATH</text>
  <text x="680" y="161" font-size="11" font-weight="600" fill="#475569" letter-spacing="0.04em">VERBS</text>
  <text x="840" y="161" font-size="11" font-weight="600" fill="#475569" letter-spacing="0.04em">IMPL</text>
  <text x="940" y="161" font-size="11" font-weight="600" fill="#475569" letter-spacing="0.04em">FRAMEWORK</text>
  <text x="1100" y="161" font-size="11" font-weight="600" fill="#475569" letter-spacing="0.04em">WEBHOOKS</text>
  <line x1="220" y1="172" x2="1140" y2="172" stroke="#1E2733" stroke-width="1"/>

  <!-- PATH ROWS -->
  <!-- Row 1: /api/v1/users/ - 5 endpoints -->
  <rect x="220" y="173" width="920" height="52" rx="0" fill="#0E1117"/>
  <rect x="220" y="225" width="920" height="1" fill="#141920"/>
  <!-- Path text -->
  <text x="232" y="200" font-size="13" font-weight="500" fill="#E2E8F0" class="mono">/api/v1/users/</text>
  <text x="232" y="218" font-size="11" fill="#475569">UserViewSet</text>
  <!-- Verb chips -->
  <rect x="680" y="183" width="36" height="18" rx="9" fill="#0D2418" stroke="#10B981" stroke-width="1"/>
  <text x="698" y="196" font-size="10" font-weight="600" fill="#10B981" text-anchor="middle">GET</text>
  <rect x="720" y="183" width="40" height="18" rx="9" fill="#0D1A2E" stroke="#3B82F6" stroke-width="1"/>
  <text x="740" y="196" font-size="10" font-weight="600" fill="#3B82F6" text-anchor="middle">POST</text>
  <!-- Multiplicity badge -->
  <rect x="840" y="186" width="70" height="18" rx="9" fill="#1A2230" stroke="#2D3748" stroke-width="1"/>
  <text x="875" y="199" font-size="10" fill="#94A3B8" text-anchor="middle">5 endpoints</text>
  <!-- Framework -->
  <text x="940" y="199" font-size="11" fill="#64748B">Django REST</text>
  <!-- Arrow affordance -->
  <text x="1120" y="200" font-size="14" fill="#334155">→</text>

  <!-- Row 2: /api/v1/users/{id}/ - 5 endpoints -->
  <rect x="220" y="226" width="920" height="52" fill="#0E1117"/>
  <rect x="220" y="278" width="920" height="1" fill="#141920"/>
  <text x="232" y="253" font-size="13" font-weight="500" fill="#E2E8F0" class="mono">/api/v1/users/<tspan fill="#64748B">{id}</tspan>/</text>
  <text x="232" y="271" font-size="11" fill="#475569">UserViewSet (detail)</text>
  <rect x="680" y="236" width="36" height="18" rx="9" fill="#0D2418" stroke="#10B981" stroke-width="1"/>
  <text x="698" y="249" font-size="10" font-weight="600" fill="#10B981" text-anchor="middle">GET</text>
  <rect x="720" y="236" width="46" height="18" rx="9" fill="#1B1000" stroke="#F59E0B" stroke-width="1"/>
  <text x="743" y="249" font-size="10" font-weight="600" fill="#F59E0B" text-anchor="middle">PUT</text>
  <rect x="770" y="236" width="52" height="18" rx="9" fill="#1A1030" stroke="#8B5CF6" stroke-width="1"/>
  <text x="796" y="249" font-size="10" font-weight="600" fill="#8B5CF6" text-anchor="middle">PATCH</text>
  <rect x="826" y="236" width="48" height="18" rx="9" fill="#1E0808" stroke="#EF4444" stroke-width="1"/>
  <text x="850" y="249" font-size="10" font-weight="600" fill="#EF4444" text-anchor="middle">DELETE</text>
  <rect x="840" y="239" width="70" height="18" rx="9" fill="#1A2230" stroke="#2D3748" stroke-width="1"/>
  <text x="875" y="252" font-size="10" fill="#94A3B8" text-anchor="middle">5 endpoints</text>
  <text x="940" y="252" font-size="11" fill="#64748B">Django REST</text>
  <text x="1120" y="253" font-size="14" fill="#334155">→</text>

  <!-- Row 3: users/{id}/permissions/ -->
  <rect x="220" y="279" width="920" height="52" fill="#0E1117"/>
  <rect x="220" y="331" width="920" height="1" fill="#141920"/>
  <text x="232" y="306" font-size="13" font-weight="500" fill="#E2E8F0" class="mono">/api/v1/users/<tspan fill="#64748B">{id}</tspan>/permissions/</text>
  <text x="232" y="324" font-size="11" fill="#475569">UserViewSet.@action</text>
  <rect x="680" y="289" width="36" height="18" rx="9" fill="#0D2418" stroke="#10B981" stroke-width="1"/>
  <text x="698" y="302" font-size="10" font-weight="600" fill="#10B981" text-anchor="middle">GET</text>
  <rect x="720" y="289" width="40" height="18" rx="9" fill="#0D1A2E" stroke="#3B82F6" stroke-width="1"/>
  <text x="740" y="302" font-size="10" font-weight="600" fill="#3B82F6" text-anchor="middle">POST</text>
  <text x="940" y="305" font-size="11" fill="#64748B">Django REST</text>
  <text x="1120" y="306" font-size="14" fill="#334155">→</text>

  <!-- Row 4: users/{id}/role/ -->
  <rect x="220" y="332" width="920" height="52" fill="#0E1117"/>
  <rect x="220" y="384" width="920" height="1" fill="#141920"/>
  <text x="232" y="359" font-size="13" font-weight="500" fill="#E2E8F0" class="mono">/api/v1/users/<tspan fill="#64748B">{id}</tspan>/role/</text>
  <text x="232" y="377" font-size="11" fill="#475569">UserViewSet.@action</text>
  <rect x="680" y="342" width="36" height="18" rx="9" fill="#0D2418" stroke="#10B981" stroke-width="1"/>
  <text x="698" y="355" font-size="10" font-weight="600" fill="#10B981" text-anchor="middle">GET</text>
  <rect x="720" y="342" width="52" height="18" rx="9" fill="#1A1030" stroke="#8B5CF6" stroke-width="1"/>
  <text x="746" y="355" font-size="10" font-weight="600" fill="#8B5CF6" text-anchor="middle">PATCH</text>
  <text x="940" y="358" font-size="11" fill="#64748B">Django REST</text>
  <text x="1120" y="359" font-size="14" fill="#334155">→</text>

  <!-- Row 5 - webhook -->
  <rect x="220" y="385" width="920" height="52" fill="#0E1117"/>
  <rect x="220" y="437" width="920" height="1" fill="#141920"/>
  <text x="232" y="412" font-size="13" font-weight="500" fill="#E2E8F0" class="mono">/api/v1/notifications/mailgun-webhook/</text>
  <text x="232" y="430" font-size="11" fill="#475569">MailgunWebhookViewSet</text>
  <rect x="680" y="395" width="40" height="18" rx="9" fill="#0D1A2E" stroke="#3B82F6" stroke-width="1"/>
  <text x="700" y="408" font-size="10" font-weight="600" fill="#3B82F6" text-anchor="middle">POST</text>
  <text x="940" y="411" font-size="11" fill="#64748B">Django REST</text>
  <!-- Webhook badge -->
  <rect x="1090" y="397" width="50" height="18" rx="9" fill="#1B1208" stroke="#D97706" stroke-width="1"/>
  <text x="1115" y="410" font-size="10" fill="#D97706" text-anchor="middle">Mailgun</text>
  <text x="1120" y="412" font-size="14" fill="#334155">→</text>

  <!-- Rows 6-9 (faded, showing more data) -->
  <rect x="220" y="438" width="920" height="52" fill="#0E1117"/>
  <rect x="220" y="490" width="920" height="1" fill="#141920"/>
  <text x="232" y="465" font-size="13" font-weight="500" fill="#64748B" class="mono">/api/v1/users/{id}/profile/</text>
  <rect x="680" y="448" width="36" height="18" rx="9" fill="#0D2418" stroke="#10B981" stroke-width="1" opacity="0.5"/>
  <text x="698" y="461" font-size="10" font-weight="600" fill="#10B981" text-anchor="middle" opacity="0.5">GET</text>
  <rect x="720" y="448" width="52" height="18" rx="9" fill="#1A1030" stroke="#8B5CF6" stroke-width="1" opacity="0.5"/>
  <text x="746" y="461" font-size="10" font-weight="600" fill="#8B5CF6" text-anchor="middle" opacity="0.5">PATCH</text>
  <text x="940" y="464" font-size="11" fill="#334155">Django REST</text>

  <rect x="220" y="491" width="920" height="52" fill="#0E1117"/>
  <rect x="220" y="543" width="920" height="1" fill="#141920"/>
  <text x="232" y="518" font-size="13" font-weight="500" fill="#64748B" class="mono">/api/v1/users/{id}/recent-viewed/</text>
  <rect x="680" y="501" width="36" height="18" rx="9" fill="#0D2418" stroke="#10B981" stroke-width="1" opacity="0.5"/>
  <text x="698" y="514" font-size="10" font-weight="600" fill="#10B981" text-anchor="middle" opacity="0.5">GET</text>
  <text x="940" y="517" font-size="11" fill="#334155">Django REST</text>

  <!-- RIGHT SIDEBAR: Quick stats -->
  <rect x="1152" y="60" width="276" height="380" rx="8" fill="#0C1118" stroke="#1E2733" stroke-width="1"/>

  <!-- Stats header -->
  <text x="1168" y="88" font-size="12" font-weight="600" fill="#E2E8F0">Quick Stats</text>
  <line x1="1168" y1="96" x2="1416" y2="96" stroke="#1E2733" stroke-width="1"/>

  <!-- Stat rows -->
  <text x="1168" y="118" font-size="11" fill="#64748B">Total unique paths</text>
  <text x="1416" y="118" font-size="13" font-weight="600" fill="#E2E8F0" text-anchor="end">648</text>

  <text x="1168" y="142" font-size="11" fill="#64748B">Verb-path pairs</text>
  <text x="1416" y="142" font-size="13" font-weight="600" fill="#E2E8F0" text-anchor="end">529</text>

  <text x="1168" y="166" font-size="11" fill="#64748B">ViewSet @actions</text>
  <text x="1416" y="166" font-size="13" font-weight="600" fill="#E2E8F0" text-anchor="end">197</text>

  <text x="1168" y="190" font-size="11" fill="#64748B">Webhook endpoints</text>
  <text x="1416" y="190" font-size="13" font-weight="600" fill="#D97706" text-anchor="end">8</text>

  <line x1="1168" y1="202" x2="1416" y2="202" stroke="#1E2733" stroke-width="1"/>

  <!-- Framework breakdown -->
  <text x="1168" y="222" font-size="11" font-weight="600" fill="#64748B" letter-spacing="0.04em">FRAMEWORKS</text>

  <!-- DRF bar -->
  <text x="1168" y="244" font-size="11" fill="#94A3B8">Django REST Framework</text>
  <rect x="1168" y="250" width="200" height="6" rx="3" fill="#1E2733"/>
  <rect x="1168" y="250" width="186" height="6" rx="3" fill="#22C55E" opacity="0.7"/>
  <text x="1416" y="258" font-size="10" fill="#64748B" text-anchor="end">93%</text>

  <text x="1168" y="278" font-size="11" fill="#94A3B8">Plain Django views</text>
  <rect x="1168" y="284" width="200" height="6" rx="3" fill="#1E2733"/>
  <rect x="1168" y="284" width="14" height="6" rx="3" fill="#3B82F6" opacity="0.7"/>
  <text x="1416" y="292" font-size="10" fill="#64748B" text-anchor="end">7%</text>

  <line x1="1168" y1="304" x2="1416" y2="304" stroke="#1E2733" stroke-width="1"/>

  <!-- Response shape coverage -->
  <text x="1168" y="324" font-size="11" font-weight="600" fill="#64748B" letter-spacing="0.04em">RESPONSE COVERAGE</text>

  <text x="1168" y="346" font-size="11" fill="#94A3B8">Shapes extracted</text>
  <text x="1416" y="346" font-size="11" fill="#10B981" text-anchor="end">412 / 648</text>

  <text x="1168" y="368" font-size="11" fill="#94A3B8">Dynamic responses</text>
  <text x="1416" y="368" font-size="11" fill="#D97706" text-anchor="end">144</text>

  <text x="1168" y="392" font-size="11" fill="#94A3B8">Unresolved (ANY verb)</text>
  <text x="1416" y="392" font-size="11" fill="#EF4444" text-anchor="end">92</text>
  <!-- Tooltip hint -->
  <text x="1168" y="410" font-size="10" fill="#475569">? Issue #792 will deduplicate these</text>

  <!-- PAGINATION -->
  <rect x="220" y="548" width="920" height="52" fill="#0C1118" stroke="#1E2733" stroke-width="1" rx="0"/>
  <text x="240" y="578" font-size="12" fill="#475569">← Prev</text>
  <rect x="380" y="560" width="28" height="24" rx="4" fill="#172A1F" stroke="#22C55E" stroke-width="1"/>
  <text x="394" y="576" font-size="12" font-weight="600" fill="#22C55E" text-anchor="middle">1</text>
  <text x="416" y="578" font-size="12" fill="#475569">2</text>
  <text x="444" y="578" font-size="12" fill="#475569">3</text>
  <text x="472" y="578" font-size="12" fill="#475569">...</text>
  <text x="500" y="578" font-size="12" fill="#475569">13</text>
  <text x="1100" y="578" font-size="12" fill="#475569">Next →</text>
  <text x="680" y="578" font-size="11" fill="#334155" text-anchor="middle">Showing 50 of 648 paths</text>

  <!-- ANNOTATIONS layer (for frontend agent) -->
  <rect x="220" y="614" width="920" height="30" rx="4" fill="#1A1208" stroke="#D97706" stroke-width="1" stroke-dasharray="4,2"/>
  <text x="235" y="633" font-size="11" fill="#D97706">[ANIM] Row hover: bg #141920, 80ms ease-in. Arrow → slides 4px right on hover. Click → navigate to /paths/{group}/{pathHash}</text>

  <!-- Component label callouts -->
  <rect x="220" y="650" width="920" height="80" rx="4" fill="#0C1118" stroke="#1E2733" stroke-width="1"/>
  <text x="235" y="670" font-size="11" font-weight="600" fill="#64748B">COMPONENT MAP (this view)</text>
  <text x="235" y="690" font-size="10" fill="#475569">PathTreeSidebar (left rail, 220px) · PathSearchInput (top bar) · PathFilterPanel (chips) · PathRow (each row) · VerbChip (colored pills) · MultiplicityBadge (gray pill "5 endpoints") · WebhookBadge (amber pill) · Pagination (bottom bar) · QuickStatsCard (right rail)</text>
  <text x="235" y="710" font-size="10" fill="#475569">Hook: usePathList(group, filters, page) → GET /api/paths/{group}?page=1&amp;size=50 · usePathTree(group) derives sidebar from cache · usePathFilters() drives URL params</text>

</svg>
