<?xml version="1.0" encoding="UTF-8"?>
<svg width="1440" height="900" viewBox="0 0 1440 900" xmlns="http://www.w3.org/2000/svg" font-family="'Inter', 'SF Pro Display', system-ui, sans-serif">
  <defs>
    <style>
      text { font-family: 'Inter', 'SF Pro Display', system-ui, sans-serif; }
      .mono { font-family: 'JetBrains Mono', 'Fira Code', 'Consolas', monospace; }
    </style>
  </defs>

  <!-- Background -->
  <rect width="1440" height="900" fill="#0E1117"/>

  <!-- Top Nav -->
  <rect width="1440" height="48" fill="#141920" stroke="#1E2733" stroke-width="1"/>
  <rect x="16" y="12" width="8" height="8" rx="2" fill="#22C55E"/>
  <rect x="28" y="12" width="8" height="8" rx="2" fill="#3B82F6"/>
  <text x="44" y="23" font-size="13" font-weight="600" fill="#E2E8F0" letter-spacing="-0.3px">archigraph</text>
  <text x="148" y="23" font-size="12" fill="#64748B">Graph</text>
  <text x="196" y="23" font-size="12" fill="#64748B">Flows</text>
  <text x="242" y="23" font-size="12" fill="#64748B">Topology</text>
  <rect x="290" y="6" width="56" height="36" rx="4" fill="#1E2733"/>
  <text x="318" y="28" font-size="12" font-weight="500" fill="#22C55E" text-anchor="middle">API</text>
  <text x="360" y="23" font-size="12" fill="#64748B">Docs</text>
  <rect x="1200" y="10" width="140" height="28" rx="6" fill="#1E2733" stroke="#2D3748" stroke-width="1"/>
  <text x="1270" y="28" font-size="11" font-weight="500" fill="#E2E8F0" text-anchor="middle">fixture-a+b</text>
  <circle cx="1410" cy="24" r="14" fill="#1E2733" stroke="#2D3748" stroke-width="1"/>
  <text x="1410" y="29" font-size="11" fill="#94A3B8" text-anchor="middle">JC</text>

  <!-- Sidebar -->
  <rect x="0" y="48" width="220" height="852" fill="#0C1118" stroke="#1E2733" stroke-width="1"/>
  <text x="16" y="80" font-size="11" font-weight="600" fill="#64748B" letter-spacing="0.05em">API PATHS</text>
  <rect x="8" y="92" width="204" height="28" rx="4" fill="#1A2333"/>
  <text x="20" y="111" font-size="12" fill="#94A3B8">▾</text>
  <text x="34" y="111" font-size="12" fill="#CBD5E1" class="mono">/api/</text>
  <rect x="16" y="124" width="196" height="24" rx="4" fill="#152030"/>
  <text x="30" y="141" font-size="11" fill="#94A3B8">▾</text>
  <text x="44" y="141" font-size="11" fill="#94A3B8" class="mono">/api/v1/</text>

  <!-- Active: buildings -->
  <rect x="24" y="150" width="188" height="22" rx="3" fill="#162840"/>
  <rect x="24" y="154" width="2" height="14" rx="1" fill="#22C55E"/>
  <text x="44" y="166" font-size="11" fill="#22C55E" class="mono">/buildings/</text>
  <rect x="24" y="174" width="188" height="22" fill="transparent"/>
  <text x="44" y="190" font-size="11" fill="#64748B" class="mono">/users/</text>
  <rect x="24" y="198" width="188" height="22" fill="transparent"/>
  <text x="44" y="214" font-size="11" fill="#64748B" class="mono">/contracts/</text>

  <!-- MAIN CONTENT -->

  <!-- Breadcrumb -->
  <text x="232" y="72" font-size="12" fill="#475569">API Explorer</text>
  <text x="310" y="72" font-size="12" fill="#334155">/</text>
  <text x="320" y="72" font-size="12" fill="#475569" class="mono">/api/v1/buildings/</text>
  <text x="484" y="72" font-size="12" fill="#334155">/</text>
  <text x="494" y="72" font-size="12" fill="#E2E8F0">{id}/</text>

  <!-- Path header card -->
  <rect x="220" y="82" width="1200" height="76" rx="8" fill="#141920" stroke="#1E2733" stroke-width="1"/>

  <rect x="240" y="100" width="44" height="22" rx="11" fill="#0D2418" stroke="#10B981" stroke-width="1.5"/>
  <text x="262" y="115" font-size="11" font-weight="700" fill="#10B981" text-anchor="middle">GET</text>
  <rect x="294" y="100" width="46" height="22" rx="11" fill="#1B1000" stroke="#F59E0B" stroke-width="1.5"/>
  <text x="317" y="115" font-size="11" font-weight="700" fill="#F59E0B" text-anchor="middle">PUT</text>
  <rect x="346" y="100" width="54" height="22" rx="11" fill="#1A1030" stroke="#8B5CF6" stroke-width="1.5"/>
  <text x="373" y="115" font-size="11" font-weight="700" fill="#8B5CF6" text-anchor="middle">PATCH</text>
  <rect x="406" y="100" width="56" height="22" rx="11" fill="#1E0808" stroke="#EF4444" stroke-width="1.5"/>
  <text x="434" y="115" font-size="11" font-weight="700" fill="#EF4444" text-anchor="middle">DELETE</text>

  <text x="480" y="116" font-size="18" font-weight="600" fill="#E2E8F0" class="mono">/api/v1/buildings/<tspan fill="#64748B">{id}</tspan>/</text>
  <rect x="800" y="101" width="80" height="20" rx="10" fill="#1A2230" stroke="#2D3748" stroke-width="1"/>
  <text x="840" y="115" font-size="11" fill="#94A3B8" text-anchor="middle">5 endpoints</text>

  <text x="240" y="144" font-size="12" fill="#64748B">ACME Backend · Django REST Framework · BuildingViewSet · core/viewsets/building_viewset.py:15</text>

  <!-- MULTI-IMPLEMENTATION BANNER - this is the key design moment -->
  <rect x="220" y="170" width="1200" height="84" rx="8" fill="#181208" stroke="#D97706" stroke-width="1.5"/>

  <!-- Warning icon area -->
  <rect x="240" y="186" width="36" height="36" rx="8" fill="#291D08"/>
  <text x="258" y="210" font-size="20" fill="#D97706" text-anchor="middle">⚠</text>

  <!-- Banner text -->
  <text x="290" y="200" font-size="13" font-weight="600" fill="#E2E8F0">Multi-client implementation divergence detected</text>
  <text x="290" y="220" font-size="12" fill="#94A3B8">This path is called by <tspan font-weight="600" fill="#D97706">2 frontend implementations</tspan> with different HTTP verbs and payload shapes.</text>
  <text x="290" y="238" font-size="12" fill="#64748B">ACME Web uses PUT · ACME Mobile uses PATCH — partial update vs full replace semantics may differ.</text>

  <!-- Expand button -->
  <rect x="1270" y="188" width="130" height="32" rx="6" fill="#291D08" stroke="#D97706" stroke-width="1"/>
  <text x="1335" y="208" font-size="12" font-weight="500" fill="#D97706" text-anchor="middle">View diff →</text>

  <!-- TAB BAR -->
  <rect x="220" y="266" width="1200" height="40" fill="#0C1118" stroke="#1E2733" stroke-width="1"/>
  <rect x="220" y="266" width="120" height="40" fill="#0E1117"/>
  <line x1="220" y1="305" x2="340" y2="305" stroke="#22C55E" stroke-width="2"/>
  <text x="280" y="291" font-size="13" font-weight="500" fill="#E2E8F0" text-anchor="middle">Handlers</text>
  <text x="420" y="291" font-size="13" fill="#64748B" text-anchor="middle">Response Shapes</text>
  <text x="580" y="291" font-size="13" fill="#64748B" text-anchor="middle">Inbound (FETCHES)</text>
  <rect x="650" y="279" width="26" height="16" rx="8" fill="#291D08" stroke="#D97706" stroke-width="1"/>
  <text x="663" y="291" font-size="10" fill="#D97706" text-anchor="middle">2</text>
  <text x="760" y="291" font-size="13" fill="#64748B" text-anchor="middle">Outbound (QUERIES)</text>

  <!-- EXPANDED COMPARISON VIEW (the "View diff" expanded state) -->
  <rect x="220" y="318" width="1200" height="240" rx="8" fill="#0C1118" stroke="#1E2733" stroke-width="1"/>

  <!-- Comparison header -->
  <text x="240" y="342" font-size="12" font-weight="600" fill="#E2E8F0">Implementation Comparison</text>
  <text x="400" y="342" font-size="12" fill="#334155">— what each frontend sends to this path</text>
  <line x1="240" y1="352" x2="1400" y2="352" stroke="#1E2733" stroke-width="1"/>

  <!-- Two-column comparison -->
  <!-- Left: ACME Web -->
  <rect x="240" y="364" width="540" height="172" rx="6" fill="#080D14" stroke="#1E2733" stroke-width="1"/>
  <rect x="240" y="364" width="540" height="28" rx="6" fill="#0F1C14"/>
  <rect x="240" y="378" width="540" height="14" fill="#0F1C14"/>
  <text x="256" y="382" font-size="11" font-weight="600" fill="#22C55E">ACME Web (React)</text>
  <text x="720" y="382" font-size="10" fill="#475569" text-anchor="end">stores/buildingService.js:L45</text>

  <text x="256" y="410" font-size="11" fill="#64748B" class="mono">Method:</text>
  <rect x="340" y="397" width="46" height="18" rx="9" fill="#1B1000" stroke="#F59E0B" stroke-width="1"/>
  <text x="363" y="410" font-size="10" font-weight="700" fill="#F59E0B" text-anchor="middle">PUT</text>

  <text x="256" y="434" font-size="11" fill="#64748B" class="mono">Sends body:</text>
  <text x="340" y="434" font-size="11" fill="#94A3B8" class="mono">{ name, address, type, owner_id, ... }</text>
  <text x="256" y="452" font-size="10" fill="#475569" class="mono">(full object, 18 fields)</text>

  <text x="256" y="476" font-size="11" fill="#64748B" class="mono">Status codes:</text>
  <text x="356" y="476" font-size="11" fill="#94A3B8" class="mono">200, 400, 404</text>

  <text x="256" y="498" font-size="11" fill="#64748B" class="mono">Frequency:</text>
  <text x="340" y="498" font-size="11" fill="#94A3B8" class="mono">called from 4 store files</text>

  <text x="256" y="520" font-size="10" fill="#D97706" class="mono">⚠ Full replace — missing fields reset to null</text>

  <!-- Right: ACME Mobile -->
  <rect x="830" y="364" width="540" height="172" rx="6" fill="#080D14" stroke="#1E2733" stroke-width="1"/>
  <rect x="830" y="364" width="540" height="28" rx="6" fill="#0D1530"/>
  <rect x="830" y="378" width="540" height="14" fill="#0D1530"/>
  <text x="846" y="382" font-size="11" font-weight="600" fill="#818CF8">ACME Mobile (React Native)</text>
  <text x="1310" y="382" font-size="10" fill="#475569" text-anchor="end">src/services/buildings.api.ts:L22</text>

  <text x="846" y="410" font-size="11" fill="#64748B" class="mono">Method:</text>
  <rect x="930" y="397" width="54" height="18" rx="9" fill="#1A1030" stroke="#8B5CF6" stroke-width="1"/>
  <text x="957" y="410" font-size="10" font-weight="700" fill="#8B5CF6" text-anchor="middle">PATCH</text>

  <text x="846" y="434" font-size="11" fill="#64748B" class="mono">Sends body:</text>
  <text x="930" y="434" font-size="11" fill="#94A3B8" class="mono">{ name, address }</text>
  <text x="846" y="452" font-size="10" fill="#475569" class="mono">(partial, 2 fields only)</text>

  <text x="846" y="476" font-size="11" fill="#64748B" class="mono">Status codes:</text>
  <text x="946" y="476" font-size="11" fill="#94A3B8" class="mono">200, 400, 404</text>

  <text x="846" y="498" font-size="11" fill="#64748B" class="mono">Frequency:</text>
  <text x="930" y="498" font-size="11" fill="#94A3B8" class="mono">1 service file</text>

  <text x="846" y="520" font-size="10" fill="#22C55E" class="mono">✓ Partial update — safe for mobile edit flows</text>

  <!-- Connector between the two -->
  <text x="790" y="452" font-size="20" fill="#334155" text-anchor="middle">vs</text>

  <!-- HANDLERS section below comparison -->
  <rect x="220" y="572" width="580" height="80" rx="8" fill="#0C1118" stroke="#1E2733" stroke-width="1"/>
  <rect x="240" y="590" width="44" height="20" rx="10" fill="#0D2418" stroke="#10B981" stroke-width="1"/>
  <text x="262" y="604" font-size="10" font-weight="700" fill="#10B981" text-anchor="middle">GET</text>
  <text x="298" y="604" font-size="13" font-weight="500" fill="#E2E8F0" class="mono">BuildingViewSet.retrieve</text>
  <text x="240" y="626" font-size="12" fill="#64748B">core/viewsets/building_viewset.py</text>
  <text x="434" y="626" font-size="12" fill="#22C55E">:L62</text>
  <rect x="240" y="634" width="30" height="14" rx="7" fill="#0D2418" stroke="#10B981" stroke-width="1"/>
  <text x="255" y="645" font-size="9" fill="#10B981" text-anchor="middle">200</text>
  <rect x="278" y="634" width="30" height="14" rx="7" fill="#1E0808" stroke="#EF4444" stroke-width="1"/>
  <text x="293" y="645" font-size="9" fill="#EF4444" text-anchor="middle">404</text>

  <rect x="816" y="572" width="604" height="80" rx="8" fill="#0C1118" stroke="#1E2733" stroke-width="1"/>
  <rect x="836" y="590" width="46" height="20" rx="10" fill="#1B1000" stroke="#F59E0B" stroke-width="1"/>
  <text x="859" y="604" font-size="10" font-weight="700" fill="#F59E0B" text-anchor="middle">PUT</text>
  <rect x="888" y="590" width="54" height="20" rx="10" fill="#1A1030" stroke="#8B5CF6" stroke-width="1"/>
  <text x="915" y="604" font-size="10" font-weight="700" fill="#8B5CF6" text-anchor="middle">PATCH</text>
  <text x="952" y="604" font-size="13" font-weight="500" fill="#E2E8F0" class="mono">BuildingViewSet.update</text>
  <text x="836" y="626" font-size="12" fill="#64748B">core/viewsets/building_viewset.py</text>
  <text x="1030" y="626" font-size="12" fill="#22C55E">:L78</text>

  <!-- EMPTY STATES PANEL - showing 3 states for frontend agent reference -->
  <rect x="220" y="668" width="380" height="160" rx="8" fill="#0C1118" stroke="#1E2733" stroke-width="1"/>
  <text x="240" y="690" font-size="11" font-weight="600" fill="#64748B" letter-spacing="0.04em">EMPTY STATE — Zero search results</text>
  <rect x="295" y="710" width="240" height="60" rx="6" fill="#080D14"/>
  <!-- No-results icon -->
  <rect x="385" y="720" width="60" height="36" rx="4" fill="#1E2733" stroke="#2D3748" stroke-width="1" stroke-dasharray="3,2"/>
  <text x="415" y="742" font-size="16" fill="#334155" text-anchor="middle">∅</text>
  <text x="415" y="756" font-size="10" fill="#475569" text-anchor="middle">No paths match</text>
  <text x="240" y="790" font-size="11" fill="#64748B">Suggest: clear filters or broaden prefix</text>
  <text x="240" y="806" font-size="11" fill="#475569">Copy: "No paths match your filters."</text>
  <text x="240" y="820" font-size="11" fill="#475569">Action button: [Clear filters]</text>

  <rect x="620" y="668" width="380" height="160" rx="8" fill="#0C1118" stroke="#1E2733" stroke-width="1"/>
  <text x="640" y="690" font-size="11" font-weight="600" fill="#64748B" letter-spacing="0.04em">LOADING STATE — Skeleton rows</text>
  <!-- Skeleton rows -->
  <rect x="640" y="706" width="280" height="14" rx="7" fill="#141920"/>
  <rect x="640" y="728" width="200" height="14" rx="7" fill="#141920"/>
  <rect x="648" y="750" width="160" height="12" rx="6" fill="#1E2733"/>
  <rect x="640" y="770" width="240" height="14" rx="7" fill="#141920"/>
  <rect x="640" y="792" width="180" height="14" rx="7" fill="#141920"/>
  <text x="640" y="820" font-size="11" fill="#475569">Shimmer: 1.5s loop, opacity 0.4→0.7→0.4, ease-in-out</text>

  <rect x="1020" y="668" width="400" height="160" rx="8" fill="#0C1118" stroke="#1E2733" stroke-width="1"/>
  <text x="1040" y="690" font-size="11" font-weight="600" fill="#64748B" letter-spacing="0.04em">ERROR STATE — Backend unreachable</text>
  <rect x="1040" y="710" width="360" height="70" rx="6" fill="#180A0A" stroke="#EF4444" stroke-width="1" stroke-dasharray="4,2"/>
  <text x="1060" y="735" font-size="13" fill="#EF4444">⚠ Failed to load paths</text>
  <text x="1060" y="754" font-size="11" fill="#94A3B8">Could not reach /api/paths/{group}</text>
  <text x="1060" y="772" font-size="11" fill="#64748B">Check archigraph server status.</text>
  <rect x="1060" y="790" width="80" height="24" rx="6" fill="#1E0808" stroke="#EF4444" stroke-width="1"/>
  <text x="1100" y="806" font-size="11" fill="#EF4444" text-anchor="middle">Retry</text>
  <text x="1040" y="820" font-size="10" fill="#475569">Auto-retry: 3x with 2s backoff, then show error</text>

  <!-- Annotation -->
  <rect x="220" y="840" width="1200" height="30" rx="4" fill="#1A1208" stroke="#D97706" stroke-width="1" stroke-dasharray="4,2"/>
  <text x="235" y="860" font-size="11" fill="#D97706">[ANIM] Banner: slide-down 250ms ease-out when fetches_count > 1. Comparison expand: accordion open 300ms ease-out. Multi-impl badge pulse: 2s loop amber glow on first load only. Reduced-motion: no animation, show static.</text>

</svg>
