<?xml version="1.0" encoding="UTF-8"?>
<svg width="1440" height="1000" viewBox="0 0 1440 1000" xmlns="http://www.w3.org/2000/svg" font-family="'Inter', 'SF Pro Display', system-ui, sans-serif">
  <defs>
    <style>
      text { font-family: 'Inter', 'SF Pro Display', system-ui, sans-serif; }
      .mono { font-family: 'JetBrains Mono', 'Fira Code', 'Consolas', monospace; }
    </style>
  </defs>

  <!-- Background -->
  <rect width="1440" height="1000" fill="#0E1117"/>

  <!-- Top Navigation Bar -->
  <rect width="1440" height="48" fill="#141920" stroke="#1E2733" stroke-width="1" y="0"/>
  <rect x="16" y="12" width="8" height="8" rx="2" fill="#22C55E"/>
  <rect x="28" y="12" width="8" height="8" rx="2" fill="#3B82F6"/>
  <text x="44" y="23" font-size="13" font-weight="600" fill="#E2E8F0" letter-spacing="-0.3px">archigraph</text>

  <text x="148" y="23" font-size="12" fill="#64748B">Graph</text>
  <text x="196" y="23" font-size="12" fill="#64748B">Flows</text>
  <text x="242" y="23" font-size="12" fill="#64748B">Topology</text>
  <rect x="290" y="6" width="56" height="36" rx="4" fill="#1E2733"/>
  <text x="318" y="28" font-size="12" font-weight="500" fill="#22C55E" text-anchor="middle">API</text>
  <text x="360" y="23" font-size="12" fill="#64748B">Docs</text>

  <rect x="1200" y="10" width="140" height="28" rx="6" fill="#1E2733" stroke="#2D3748" stroke-width="1"/>
  <text x="1215" y="28" font-size="11" fill="#94A3B8">Group:</text>
  <text x="1260" y="28" font-size="11" font-weight="500" fill="#E2E8F0">fixture-a</text>
  <text x="1332" y="28" font-size="11" fill="#64748B">▾</text>
  <circle cx="1410" cy="24" r="14" fill="#1E2733" stroke="#2D3748" stroke-width="1"/>
  <text x="1410" y="29" font-size="11" fill="#94A3B8" text-anchor="middle">JC</text>

  <!-- LEFT SIDEBAR (same as list) -->
  <rect x="0" y="48" width="220" height="952" fill="#0C1118" stroke="#1E2733" stroke-width="1"/>
  <text x="16" y="80" font-size="11" font-weight="600" fill="#64748B" letter-spacing="0.05em">API PATHS</text>
  <text x="186" y="80" font-size="10" fill="#334155">648</text>

  <rect x="8" y="92" width="204" height="28" rx="4" fill="#1A2333"/>
  <text x="20" y="111" font-size="12" fill="#94A3B8">▾</text>
  <text x="34" y="111" font-size="12" font-weight="500" fill="#CBD5E1" class="mono">/api/</text>
  <rect x="174" y="97" width="30" height="16" rx="8" fill="#1E2733"/>
  <text x="189" y="110" font-size="10" fill="#64748B" text-anchor="middle">529</text>

  <rect x="16" y="124" width="196" height="24" rx="4" fill="#152030"/>
  <text x="30" y="141" font-size="11" fill="#94A3B8">▾</text>
  <text x="44" y="141" font-size="11" fill="#94A3B8" class="mono">/api/v1/</text>

  <!-- Active: users highlighted -->
  <rect x="24" y="150" width="188" height="22" rx="3" fill="#162840"/>
  <rect x="24" y="154" width="2" height="14" rx="1" fill="#22C55E"/>
  <text x="44" y="166" font-size="11" fill="#22C55E" class="mono">/users/</text>

  <rect x="24" y="174" width="188" height="22" rx="3" fill="transparent"/>
  <text x="44" y="190" font-size="11" fill="#64748B" class="mono">/buildings/</text>
  <rect x="24" y="198" width="188" height="22" rx="3" fill="transparent"/>
  <text x="44" y="214" font-size="11" fill="#64748B" class="mono">/contracts/</text>
  <rect x="24" y="222" width="188" height="22" rx="3" fill="transparent"/>
  <text x="44" y="238" font-size="11" fill="#64748B" class="mono">/groups/</text>
  <rect x="24" y="246" width="188" height="22" rx="3" fill="transparent"/>
  <text x="44" y="262" font-size="11" fill="#64748B" class="mono">/devices/</text>

  <!-- MAIN CONTENT -->

  <!-- Breadcrumb -->
  <text x="232" y="72" font-size="12" fill="#475569">API Explorer</text>
  <text x="310" y="72" font-size="12" fill="#334155">/</text>
  <text x="320" y="72" font-size="12" fill="#475569" class="mono">/api/v1/users/</text>
  <text x="454" y="72" font-size="12" fill="#334155">/</text>
  <text x="464" y="72" font-size="12" fill="#E2E8F0">detail</text>

  <!-- Path header card -->
  <rect x="220" y="82" width="1200" height="80" rx="8" fill="#141920" stroke="#1E2733" stroke-width="1"/>

  <!-- Verb chip in header -->
  <rect x="240" y="100" width="44" height="22" rx="11" fill="#0D2418" stroke="#10B981" stroke-width="1.5"/>
  <text x="262" y="115" font-size="11" font-weight="700" fill="#10B981" text-anchor="middle">GET</text>

  <!-- Path text large -->
  <text x="296" y="116" font-size="18" font-weight="600" fill="#E2E8F0" class="mono">/api/v1/users/<tspan fill="#64748B">{id}</tspan>/</text>

  <!-- Additional verb chips -->
  <rect x="596" y="100" width="46" height="22" rx="11" fill="#1B1000" stroke="#F59E0B" stroke-width="1.5"/>
  <text x="619" y="115" font-size="11" font-weight="700" fill="#F59E0B" text-anchor="middle">PUT</text>
  <rect x="648" y="100" width="54" height="22" rx="11" fill="#1A1030" stroke="#8B5CF6" stroke-width="1.5"/>
  <text x="675" y="115" font-size="11" font-weight="700" fill="#8B5CF6" text-anchor="middle">PATCH</text>
  <rect x="708" y="100" width="56" height="22" rx="11" fill="#1E0808" stroke="#EF4444" stroke-width="1.5"/>
  <text x="736" y="115" font-size="11" font-weight="700" fill="#EF4444" text-anchor="middle">DELETE</text>

  <!-- Multiplicity badge in header -->
  <rect x="780" y="102" width="80" height="20" rx="10" fill="#1A2230" stroke="#2D3748" stroke-width="1"/>
  <text x="820" y="116" font-size="11" fill="#94A3B8" text-anchor="middle">5 endpoints</text>

  <!-- Meta info line -->
  <text x="240" y="148" font-size="12" fill="#64748B">ACME Backend</text>
  <text x="340" y="148" font-size="12" fill="#334155">·</text>
  <text x="352" y="148" font-size="12" fill="#64748B">Django REST Framework</text>
  <text x="502" y="148" font-size="12" fill="#334155">·</text>
  <text x="514" y="148" font-size="12" fill="#64748B">Status: 200, 201, 400, 401, 403, 404</text>
  <text x="740" y="148" font-size="12" fill="#334155">·</text>
  <text x="752" y="148" font-size="12" fill="#64748B">UserViewSet · core/viewsets/user_viewset.py:42</text>

  <!-- TAB BAR -->
  <rect x="220" y="174" width="1200" height="40" rx="0" fill="#0C1118" stroke="#1E2733" stroke-width="1"/>

  <!-- Active tab: Handlers -->
  <rect x="220" y="174" width="120" height="40" fill="#0E1117"/>
  <line x1="220" y1="213" x2="340" y2="213" stroke="#22C55E" stroke-width="2"/>
  <text x="280" y="199" font-size="13" font-weight="500" fill="#E2E8F0" text-anchor="middle">Handlers</text>
  <rect x="326" y="183" width="26" height="16" rx="8" fill="#172A1F"/>
  <text x="339" y="195" font-size="10" fill="#22C55E" text-anchor="middle">5</text>

  <!-- Inactive tabs -->
  <text x="420" y="199" font-size="13" fill="#64748B" text-anchor="middle">Response Shapes</text>
  <text x="580" y="199" font-size="13" fill="#64748B" text-anchor="middle">Inbound (FETCHES)</text>
  <rect x="650" y="183" width="26" height="16" rx="8" fill="#1A2230"/>
  <text x="663" y="195" font-size="10" fill="#64748B" text-anchor="middle">12</text>
  <text x="760" y="199" font-size="13" fill="#64748B" text-anchor="middle">Outbound (QUERIES)</text>
  <rect x="832" y="183" width="26" height="16" rx="8" fill="#1A2230"/>
  <text x="845" y="195" font-size="10" fill="#64748B" text-anchor="middle">3</text>

  <!-- HANDLERS TAB CONTENT -->

  <!-- Handler card 1: GET handler -->
  <rect x="220" y="228" width="590" height="140" rx="8" fill="#0C1118" stroke="#1E2733" stroke-width="1"/>

  <rect x="240" y="248" width="44" height="20" rx="10" fill="#0D2418" stroke="#10B981" stroke-width="1"/>
  <text x="262" y="262" font-size="10" font-weight="700" fill="#10B981" text-anchor="middle">GET</text>

  <text x="298" y="262" font-size="13" font-weight="500" fill="#E2E8F0" class="mono">UserViewSet.retrieve</text>
  <text x="240" y="286" font-size="12" fill="#64748B">core/viewsets/user_viewset.py</text>
  <text x="410" y="286" font-size="12" fill="#334155">:</text>
  <text x="418" y="286" font-size="12" fill="#22C55E">L89</text>

  <!-- Source snippet preview -->
  <rect x="240" y="296" width="550" height="58" rx="4" fill="#080D14" stroke="#1E2733" stroke-width="1"/>
  <text x="256" y="316" font-size="11" fill="#64748B" class="mono">def retrieve(self, request, *args, **kwargs):</text>
  <text x="256" y="332" font-size="11" fill="#475569" class="mono">    instance = self.get_object()</text>
  <text x="256" y="348" font-size="11" fill="#475569" class="mono">    serializer = self.get_serializer(instance)</text>

  <!-- Status badges -->
  <rect x="240" y="356" width="30" height="14" rx="7" fill="#0D2418" stroke="#10B981" stroke-width="1"/>
  <text x="255" y="367" font-size="9" fill="#10B981" text-anchor="middle">200</text>
  <rect x="278" y="356" width="30" height="14" rx="7" fill="#1E0808" stroke="#EF4444" stroke-width="1"/>
  <text x="293" y="367" font-size="9" fill="#EF4444" text-anchor="middle">404</text>

  <!-- Handler card 2: PUT/PATCH handler -->
  <rect x="824" y="228" width="590" height="140" rx="8" fill="#0C1118" stroke="#1E2733" stroke-width="1"/>

  <rect x="844" y="248" width="46" height="20" rx="10" fill="#1B1000" stroke="#F59E0B" stroke-width="1"/>
  <text x="867" y="262" font-size="10" font-weight="700" fill="#F59E0B" text-anchor="middle">PUT</text>
  <rect x="896" y="248" width="54" height="20" rx="10" fill="#1A1030" stroke="#8B5CF6" stroke-width="1"/>
  <text x="923" y="262" font-size="10" font-weight="700" fill="#8B5CF6" text-anchor="middle">PATCH</text>

  <text x="960" y="262" font-size="13" font-weight="500" fill="#E2E8F0" class="mono">UserViewSet.update</text>
  <text x="844" y="286" font-size="12" fill="#64748B">core/viewsets/user_viewset.py</text>
  <text x="1014" y="286" font-size="12" fill="#334155">:</text>
  <text x="1022" y="286" font-size="12" fill="#22C55E">L102</text>

  <rect x="844" y="296" width="550" height="58" rx="4" fill="#080D14" stroke="#1E2733" stroke-width="1"/>
  <text x="860" y="316" font-size="11" fill="#64748B" class="mono">def update(self, request, *args, **kwargs):</text>
  <text x="860" y="332" font-size="11" fill="#475569" class="mono">    partial = kwargs.pop('partial', False)</text>
  <text x="860" y="348" font-size="11" fill="#475569" class="mono">    instance = self.get_object()</text>

  <rect x="844" y="356" width="30" height="14" rx="7" fill="#0D1A2E" stroke="#3B82F6" stroke-width="1"/>
  <text x="859" y="367" font-size="9" fill="#3B82F6" text-anchor="middle">200</text>
  <rect x="882" y="356" width="30" height="14" rx="7" fill="#180D00" stroke="#F59E0B" stroke-width="1"/>
  <text x="897" y="367" font-size="9" fill="#F59E0B" text-anchor="middle">400</text>
  <rect x="920" y="356" width="30" height="14" rx="7" fill="#1E0808" stroke="#EF4444" stroke-width="1"/>
  <text x="935" y="367" font-size="9" fill="#EF4444" text-anchor="middle">404</text>

  <!-- Handler card 3: DELETE handler (narrow row below) -->
  <rect x="220" y="380" width="590" height="76" rx="8" fill="#0C1118" stroke="#1E2733" stroke-width="1"/>
  <rect x="240" y="396" width="56" height="20" rx="10" fill="#1E0808" stroke="#EF4444" stroke-width="1"/>
  <text x="268" y="410" font-size="10" font-weight="700" fill="#EF4444" text-anchor="middle">DELETE</text>
  <text x="306" y="410" font-size="13" font-weight="500" fill="#E2E8F0" class="mono">UserViewSet.destroy</text>
  <text x="240" y="430" font-size="12" fill="#64748B">core/viewsets/user_viewset.py</text>
  <text x="410" y="430" font-size="12" fill="#22C55E">:L118</text>
  <rect x="240" y="438" width="30" height="14" rx="7" fill="#0D2418" stroke="#10B981" stroke-width="1"/>
  <text x="255" y="449" font-size="9" fill="#10B981" text-anchor="middle">204</text>
  <rect x="278" y="438" width="30" height="14" rx="7" fill="#1E0808" stroke="#EF4444" stroke-width="1"/>
  <text x="293" y="449" font-size="9" fill="#EF4444" text-anchor="middle">404</text>

  <!-- OUTBOUND QUERIES section (right of DELETE) -->
  <rect x="824" y="380" width="590" height="76" rx="8" fill="#0C1118" stroke="#1E2733" stroke-width="1"/>
  <text x="844" y="400" font-size="11" font-weight="600" fill="#64748B" letter-spacing="0.04em">TABLE QUERIES (WRITES_TO / READS_FROM)</text>
  <rect x="844" y="410" width="100" height="22" rx="4" fill="#141920" stroke="#1E2733" stroke-width="1"/>
  <text x="856" y="426" font-size="11" fill="#94A3B8" class="mono">core_user</text>
  <rect x="952" y="410" width="120" height="22" rx="4" fill="#141920" stroke="#1E2733" stroke-width="1"/>
  <text x="964" y="426" font-size="11" fill="#94A3B8" class="mono">core_userprofile</text>
  <rect x="1080" y="410" width="116" height="22" rx="4" fill="#141920" stroke="#1E2733" stroke-width="1"/>
  <text x="1092" y="426" font-size="11" fill="#94A3B8" class="mono">auth_permission</text>
  <text x="844" y="448" font-size="10" fill="#334155">→ 3 tables accessed · READS_FROM: 3, WRITES_TO: 1</text>

  <!-- INBOUND FETCHES section -->
  <rect x="220" y="472" width="1200" height="200" rx="8" fill="#0C1118" stroke="#1E2733" stroke-width="1"/>
  <text x="240" y="496" font-size="12" font-weight="600" fill="#E2E8F0">Inbound FETCHES</text>
  <text x="400" y="496" font-size="12" fill="#334155">— frontends that call this path</text>
  <rect x="1300" y="480" width="100" height="22" rx="6" fill="#1E2733" stroke="#2D3748" stroke-width="1"/>
  <text x="1350" y="495" font-size="11" fill="#64748B" text-anchor="middle">12 callers</text>

  <!-- Fetch rows -->
  <line x1="240" y1="508" x2="1400" y2="508" stroke="#1E2733" stroke-width="1"/>

  <!-- Row 1: React frontend GET call -->
  <text x="240" y="530" font-size="11" fill="#64748B" class="mono">stores/userService.js</text>
  <text x="440" y="530" font-size="11" fill="#475569">:</text>
  <text x="450" y="530" font-size="11" fill="#22C55E" class="mono">L34</text>
  <rect x="530" y="520" width="36" height="16" rx="8" fill="#0D2418" stroke="#10B981" stroke-width="1"/>
  <text x="548" y="532" font-size="9" font-weight="600" fill="#10B981" text-anchor="middle">GET</text>
  <text x="578" y="530" font-size="11" fill="#94A3B8" class="mono">callApi('GET', `/api/v1/users/${id}/`)</text>
  <text x="900" y="530" font-size="11" fill="#475569">ACME Web (React)</text>

  <!-- Row 2: Mobile GET call -->
  <text x="240" y="556" font-size="11" fill="#64748B" class="mono">src/services/users.api.ts</text>
  <text x="476" y="556" font-size="11" fill="#475569">:</text>
  <text x="486" y="556" font-size="11" fill="#22C55E" class="mono">L18</text>
  <rect x="530" y="546" width="36" height="16" rx="8" fill="#0D2418" stroke="#10B981" stroke-width="1"/>
  <text x="548" y="558" font-size="9" font-weight="600" fill="#10B981" text-anchor="middle">GET</text>
  <text x="578" y="556" font-size="11" fill="#94A3B8" class="mono">$http.get(`/api/v1/users/${userId}/`)</text>
  <text x="900" y="556" font-size="11" fill="#475569">ACME Mobile (React Native)</text>

  <!-- Row 3 -->
  <text x="240" y="582" font-size="11" fill="#64748B" class="mono">stores/profileService.js</text>
  <text x="466" y="582" font-size="11" fill="#475569">:</text>
  <text x="476" y="582" font-size="11" fill="#22C55E" class="mono">L67</text>
  <rect x="530" y="572" width="52" height="16" rx="8" fill="#1A1030" stroke="#8B5CF6" stroke-width="1"/>
  <text x="556" y="584" font-size="9" font-weight="600" fill="#8B5CF6" text-anchor="middle">PATCH</text>
  <text x="590" y="582" font-size="11" fill="#94A3B8" class="mono">callApi('PATCH', `/api/v1/users/${id}/`, payload)</text>
  <text x="900" y="582" font-size="11" fill="#475569">ACME Web (React)</text>

  <!-- Show more -->
  <text x="240" y="610" font-size="11" fill="#475569">... 9 more callers</text>
  <text x="380" y="610" font-size="11" fill="#22C55E" style="cursor:pointer">Show all →</text>

  <!-- Spec / Info bar -->
  <text x="240" y="640" font-size="11" fill="#334155">Coverage: fixture-b calls this 8× · fixture-c calls this 2× · no orphan (well-covered endpoint)</text>
  <rect x="900" y="628" width="120" height="20" rx="4" fill="#172A1F" stroke="#22C55E" stroke-width="1"/>
  <text x="960" y="642" font-size="10" fill="#22C55E" text-anchor="middle">Well-covered</text>
  <rect x="1028" y="628" width="130" height="20" rx="4" fill="#1E2733" stroke="#2D3748" stroke-width="1"/>
  <text x="1093" y="642" font-size="10" fill="#94A3B8" text-anchor="middle">No missing verbs</text>

  <!-- Annotation layer -->
  <rect x="220" y="686" width="1200" height="30" rx="4" fill="#1A1208" stroke="#D97706" stroke-width="1" stroke-dasharray="4,2"/>
  <text x="235" y="705" font-size="11" fill="#D97706">[ANIM] Tab switch: content cross-fade 150ms ease. Source snippet expand on click: slide-down 200ms. Verb chip hover: 1.02 scale, 100ms. Source code line highlight: 80ms.</text>

  <!-- Component map -->
  <rect x="220" y="728" width="1200" height="60" rx="4" fill="#0C1118" stroke="#1E2733" stroke-width="1"/>
  <text x="235" y="748" font-size="11" font-weight="600" fill="#64748B">COMPONENT MAP (path detail view)</text>
  <text x="235" y="765" font-size="10" fill="#475569">PathDetailPage · VerbChip · MultiplicityBadge · HandlerCard (per handler: verb chip + source file + SourceSnippet + StatusBadge[]) · ResponseShapeGrid · InboundFetchList (each row: NodeChip + verb + callsite) · OutboundQueryList (table chip rows)</text>
  <text x="235" y="780" font-size="10" fill="#475569">Hooks: usePathDetail(group, pathHash) → /api/paths/{group}/{pathHash} · useResponseShape(entityId) pure derivation · useEntitySource(entityId) for source snippets</text>

</svg>
