<?xml version="1.0" encoding="UTF-8"?>
<!-- Surface 5 — Docs Portal: View 1 Landing Page (sidebar tree + content + right-rail TOC) -->
<!-- Dark mode default | Light mode via CSS var inversion -->
<svg width="1440" height="960" viewBox="0 0 1440 960" xmlns="http://www.w3.org/2000/svg" font-family="'Inter', 'SF Pro Display', system-ui, sans-serif">
  <defs>
    <style>
      text { font-family: 'Inter', 'SF Pro Display', system-ui, sans-serif; }
      .mono { font-family: 'JetBrains Mono', 'Fira Code', 'Consolas', monospace; }
    </style>
  </defs>

  <!-- BACKGROUND -->
  <rect width="1440" height="960" fill="#0E1117"/>

  <!-- TOP NAV -->
  <rect width="1440" height="48" fill="#141920" stroke="#1E2733" stroke-width="1"/>
  <rect x="16" y="14" width="8" height="8" rx="2" fill="#22C55E"/>
  <rect x="28" y="14" width="8" height="8" rx="2" fill="#3B82F6"/>
  <text x="44" y="28" font-size="13" font-weight="600" fill="#E2E8F0" letter-spacing="-0.3px">archigraph</text>
  <text x="148" y="28" font-size="12" fill="#64748B">Graph</text>
  <text x="193" y="28" font-size="12" fill="#64748B">Flows</text>
  <text x="242" y="28" font-size="12" fill="#64748B">Topology</text>
  <text x="301" y="28" font-size="12" fill="#64748B">API</text>
  <rect x="326" y="6" width="46" height="36" rx="4" fill="#1E2733"/>
  <text x="349" y="28" font-size="12" font-weight="500" fill="#22C55E" text-anchor="middle">Docs</text>

  <!-- Search in nav (docs-specific) -->
  <rect x="700" y="10" width="320" height="28" rx="6" fill="#141920" stroke="#1E2733" stroke-width="1"/>
  <text x="716" y="28" font-size="11" fill="#475569">⌕</text>
  <text x="730" y="28" font-size="11" fill="#475569">Search documentation…</text>
  <rect x="1000" y="16" width="48" height="16" rx="3" fill="#1E2733"/>
  <text x="1024" y="28" font-size="9" fill="#64748B" text-anchor="middle">⌘K</text>

  <!-- Theme toggle -->
  <rect x="1340" y="12" width="56" height="24" rx="12" fill="#141920" stroke="#1E2733" stroke-width="1"/>
  <circle cx="1352" cy="24" r="8" fill="#1E2733"/>
  <text x="1352" y="28" font-size="9" fill="#94A3B8" text-anchor="middle">☽</text>
  <text x="1378" y="28" font-size="9" fill="#475569" text-anchor="middle">☀</text>

  <!-- Group picker -->
  <rect x="1200" y="10" width="132" height="28" rx="6" fill="#1E2733" stroke="#2D3748" stroke-width="1"/>
  <text x="1215" y="28" font-size="11" fill="#94A3B8">Group:</text>
  <text x="1260" y="28" font-size="11" font-weight="500" fill="#E2E8F0">acme-platform</text>
  <text x="1330" y="28" font-size="11" fill="#64748B">▾</text>

  <!-- Avatar -->
  <circle cx="1410" cy="24" r="14" fill="#1E2733" stroke="#2D3748" stroke-width="1"/>
  <text x="1410" y="29" font-size="11" fill="#94A3B8" text-anchor="middle">JC</text>

  <!-- ==================== LEFT SIDEBAR: 260px doc tree ==================== -->
  <rect x="0" y="48" width="260" height="912" fill="#0C1118" stroke="#1E2733" stroke-width="1"/>

  <!-- Sidebar search -->
  <rect x="12" y="62" width="236" height="28" rx="6" fill="#141920" stroke="#1E2733" stroke-width="1"/>
  <text x="26" y="80" font-size="11" fill="#475569">⌕</text>
  <text x="38" y="80" font-size="11" fill="#334155">Filter pages…</text>

  <!-- Tree: Getting Started (expanded) -->
  <rect x="8" y="100" width="244" height="24" rx="4" fill="#141920"/>
  <text x="18" y="116" font-size="11" fill="#94A3B8">▾</text>
  <text x="32" y="116" font-size="11" font-weight="600" fill="#CBD5E1">Getting Started</text>

  <rect x="8" y="128" width="244" height="22" rx="3" fill="transparent"/>
  <text x="46" y="144" font-size="11" fill="#64748B">Introduction</text>

  <!-- Active page: Architecture Overview -->
  <rect x="8" y="152" width="244" height="22" rx="3" fill="#162840"/>
  <rect x="8" y="156" width="2" height="14" rx="1" fill="#22C55E"/>
  <text x="46" y="168" font-size="11" fill="#22C55E" font-weight="500">Architecture Overview</text>

  <rect x="8" y="176" width="244" height="22" rx="3" fill="transparent"/>
  <text x="46" y="192" font-size="11" fill="#64748B">Installation</text>
  <rect x="8" y="200" width="244" height="22" rx="3" fill="transparent"/>
  <text x="46" y="216" font-size="11" fill="#64748B">Configuration</text>
  <rect x="8" y="224" width="244" height="22" rx="3" fill="transparent"/>
  <text x="46" y="240" font-size="11" fill="#64748B">Quick Start</text>

  <!-- Tree: Core Concepts (collapsed) -->
  <rect x="8" y="256" width="244" height="24" rx="4" fill="transparent"/>
  <text x="18" y="272" font-size="11" fill="#475569">▶</text>
  <text x="32" y="272" font-size="11" font-weight="600" fill="#94A3B8">Core Concepts</text>
  <rect x="214" y="261" width="30" height="14" rx="7" fill="#1A2230"/>
  <text x="229" y="273" font-size="8" fill="#64748B" text-anchor="middle">8</text>

  <!-- Tree: API Reference (collapsed) -->
  <rect x="8" y="286" width="244" height="24" rx="4" fill="transparent"/>
  <text x="18" y="302" font-size="11" fill="#475569">▶</text>
  <text x="32" y="302" font-size="11" font-weight="600" fill="#94A3B8">API Reference</text>
  <rect x="214" y="291" width="30" height="14" rx="7" fill="#1A2230"/>
  <text x="229" y="303" font-size="8" fill="#64748B" text-anchor="middle">14</text>

  <!-- Tree: acme-api (repo-scoped) -->
  <rect x="8" y="320" width="244" height="24" rx="4" fill="#141920"/>
  <text x="18" y="336" font-size="11" fill="#94A3B8">▾</text>
  <!-- Repo chip -->
  <rect x="32" y="326" width="54" height="14" rx="7" fill="#0D2020" stroke="#22C55E" stroke-width="1"/>
  <text x="59" y="337" font-size="9" fill="#22C55E" text-anchor="middle">acme-api</text>
  <text x="96" y="336" font-size="11" font-weight="500" fill="#94A3B8" class="mono"></text>

  <rect x="8" y="348" width="244" height="22" rx="3" fill="transparent"/>
  <text x="48" y="364" font-size="11" fill="#64748B">README</text>
  <rect x="8" y="372" width="244" height="22" rx="3" fill="transparent"/>
  <text x="48" y="388" font-size="11" fill="#64748B">auth/</text>
  <text x="224" y="388" font-size="9" fill="#475569" text-anchor="end">→ 3 docs</text>
  <rect x="8" y="396" width="244" height="22" rx="3" fill="transparent"/>
  <text x="48" y="412" font-size="11" fill="#64748B">models/</text>
  <text x="224" y="412" font-size="9" fill="#475569" text-anchor="end">→ 5 docs</text>
  <rect x="8" y="420" width="244" height="22" rx="3" fill="transparent"/>
  <text x="48" y="436" font-size="11" fill="#64748B">services/</text>

  <!-- Tree: acme-workers -->
  <rect x="8" y="452" width="244" height="24" rx="4" fill="transparent"/>
  <text x="18" y="468" font-size="11" fill="#475569">▶</text>
  <rect x="32" y="458" width="64" height="14" rx="7" fill="#1E0808" stroke="#F43F5E" stroke-width="1"/>
  <text x="64" y="469" font-size="9" fill="#F43F5E" text-anchor="middle">acme-workers</text>
  <rect x="214" y="457" width="30" height="14" rx="7" fill="#1A2230"/>
  <text x="229" y="469" font-size="8" fill="#64748B" text-anchor="middle">7</text>

  <rect x="16" y="484" width="228" height="1" fill="#1E2733"/>

  <!-- Pinned/Recent -->
  <text x="16" y="504" font-size="10" font-weight="600" fill="#64748B" letter-spacing="0.05em">RECENT</text>
  <rect x="8" y="512" width="244" height="22" rx="3" fill="transparent"/>
  <text x="22" y="528" font-size="10" fill="#475569">🕐</text>
  <text x="38" y="528" font-size="10" fill="#64748B">Architecture Overview</text>
  <rect x="8" y="536" width="244" height="22" rx="3" fill="transparent"/>
  <text x="22" y="552" font-size="10" fill="#475569">🕐</text>
  <text x="38" y="552" font-size="10" fill="#64748B">Auth Module Guide</text>

  <!-- ==================== CONTENT AREA ==================== -->
  <!-- Content area: 260–1180 (920px) -->
  <rect x="260" y="48" width="920" height="912" fill="#0E1117"/>

  <!-- Reading progress bar at top -->
  <rect x="260" y="48" width="920" height="3" fill="#1E2733"/>
  <rect x="260" y="48" width="320" height="3" fill="#22C55E"/>

  <!-- Content padding container: 260+48=308 to 1180-48=1132 -->
  <!-- Breadcrumbs -->
  <text x="308" y="86" font-size="11" fill="#475569">acme-platform</text>
  <text x="406" y="86" font-size="11" fill="#334155"> / </text>
  <text x="418" y="86" font-size="11" fill="#475569">Getting Started</text>
  <text x="526" y="86" font-size="11" fill="#334155"> / </text>
  <text x="538" y="86" font-size="11" fill="#94A3B8">Architecture Overview</text>

  <!-- Page title -->
  <text x="308" y="126" font-size="28" font-weight="700" fill="#E2E8F0" letter-spacing="-0.5px">Architecture Overview</text>

  <!-- Reading time + meta -->
  <text x="308" y="150" font-size="11" fill="#475569">~8 min read</text>
  <text x="380" y="150" font-size="11" fill="#334155"> · </text>
  <text x="390" y="150" font-size="11" fill="#475569">Last updated 2026-05-18</text>
  <rect x="534" y="140" width="60" height="18" rx="9" fill="#0D2020" stroke="#22C55E" stroke-width="1"/>
  <text x="564" y="153" font-size="9" fill="#22C55E" text-anchor="middle">acme-api</text>

  <!-- Horizontal rule -->
  <rect x="308" y="162" width="820" height="1" fill="#1E2733"/>

  <!-- Lead paragraph -->
  <text x="308" y="186" font-size="14" fill="#94A3B8" font-style="normal">
    <tspan x="308" dy="0">archigraph is a static analysis engine that extracts the dependency graph of your codebase</tspan>
  </text>
  <text x="308" y="206" font-size="14" fill="#94A3B8">and exposes it over a REST API, MCP protocol, and this web dashboard. This document</text>
  <text x="308" y="226" font-size="14" fill="#94A3B8">explains the high-level architecture and how the major components interact.</text>

  <!-- H2: Core Components -->
  <text x="308" y="266" font-size="20" font-weight="700" fill="#E2E8F0" letter-spacing="-0.3px">Core Components</text>
  <rect x="308" y="274" width="820" height="1" fill="#1E2733"/>

  <!-- Body text paragraphs with backtick inline code symbols (EntityLink elements) -->
  <text x="308" y="298" font-size="14" fill="#94A3B8">The engine has three primary subsystems: the</text>
  <!-- EntityLink: backticked symbol — hover shows hovercard [ANIM 150ms tooltip] -->
  <rect x="540" y="284" width="90" height="20" rx="4" fill="#141920" stroke="#1E2733" stroke-width="1"/>
  <text x="585" y="299" font-size="13" fill="#22C55E" text-anchor="middle" class="mono">Extractor</text>
  <text x="634" y="298" font-size="14" fill="#94A3B8">, the</text>
  <rect x="658" y="284" width="72" height="20" rx="4" fill="#141920" stroke="#1E2733" stroke-width="1"/>
  <text x="694" y="299" font-size="13" fill="#22C55E" text-anchor="middle" class="mono">Indexer</text>
  <text x="734" y="298" font-size="14" fill="#94A3B8">, and the</text>
  <rect x="806" y="284" width="72" height="20" rx="4" fill="#141920" stroke="#1E2733" stroke-width="1"/>
  <text x="842" y="299" font-size="13" fill="#22C55E" text-anchor="middle" class="mono">GraphDB</text>

  <text x="308" y="322" font-size="14" fill="#94A3B8">layer. Each component owns a single responsibility and communicates via typed contracts.</text>

  <!-- H3: The Extractor -->
  <text x="308" y="358" font-size="16" font-weight="600" fill="#CBD5E1" letter-spacing="-0.2px">The Extractor</text>

  <text x="308" y="382" font-size="14" fill="#94A3B8">Language-specific parsers walk ASTs and emit raw entities + relationships. The</text>
  <rect x="776" y="368" width="88" height="20" rx="4" fill="#141920" stroke="#1E2733" stroke-width="1"/>
  <text x="820" y="383" font-size="13" fill="#22C55E" text-anchor="middle" class="mono">PyExtractor</text>
  <text x="308" y="402" font-size="14" fill="#94A3B8">handles Python source trees, while</text>
  <rect x="534" y="388" width="86" height="20" rx="4" fill="#141920" stroke="#1E2733" stroke-width="1"/>
  <text x="577" y="403" font-size="13" fill="#22C55E" text-anchor="middle" class="mono">JSExtractor</text>
  <text x="624" y="402" font-size="14" fill="#94A3B8">targets JS/TS repos.</text>

  <!-- Callout block: pattern reference example -->
  <rect x="308" y="420" width="820" height="56" rx="6" fill="#0D2020" stroke="#22C55E" stroke-width="1"/>
  <rect x="308" y="420" width="4" height="56" rx="2" fill="#22C55E"/>
  <text x="326" y="440" font-size="10" font-weight="600" fill="#22C55E" letter-spacing="0.06em">PATTERN</text>
  <text x="326" y="458" font-size="12" fill="#94A3B8" font-style="italic">tenant-prefix-route: All multi-tenant API routes must carry a</text>
  <text x="326" y="474" font-size="12" fill="#94A3B8" font-style="italic">
    <tspan class="mono" fill="#22C55E" font-style="normal">{tenant_id}</tspan>
    <tspan> prefix parameter. 12 exemplars found.</tspan>
  </text>

  <!-- Inline Mermaid diagram placeholder -->
  <rect x="308" y="492" width="820" height="120" rx="6" fill="#080D14" stroke="#1E2733" stroke-width="1"/>
  <text x="326" y="512" font-size="10" fill="#475569" letter-spacing="0.06em">DIAGRAM (mermaid · auto-generated from archigraph_traces)</text>
  <!-- Simplified flowchart visual -->
  <rect x="340" y="526" width="80" height="26" rx="4" fill="#141920" stroke="#3B82F6" stroke-width="1"/>
  <text x="380" y="543" font-size="10" fill="#3B82F6" text-anchor="middle">Request</text>
  <line x1="420" y1="539" x2="460" y2="539" stroke="#64748B" stroke-width="1.5"/>
  <polygon points="460,535 460,543 468,539" fill="#64748B"/>
  <rect x="468" y="526" width="90" height="26" rx="4" fill="#141920" stroke="#22C55E" stroke-width="1"/>
  <text x="513" y="543" font-size="10" fill="#22C55E" text-anchor="middle">AuthMiddleware</text>
  <line x1="558" y1="539" x2="598" y2="539" stroke="#64748B" stroke-width="1.5"/>
  <polygon points="598,535 598,543 606,539" fill="#64748B"/>
  <rect x="606" y="526" width="80" height="26" rx="4" fill="#141920" stroke="#A855F7" stroke-width="1"/>
  <text x="646" y="543" font-size="10" fill="#A855F7" text-anchor="middle">UserService</text>
  <line x1="686" y1="539" x2="726" y2="539" stroke="#64748B" stroke-width="1.5"/>
  <polygon points="726,535 726,543 734,539" fill="#64748B"/>
  <rect x="734" y="526" width="76" height="26" rx="4" fill="#141920" stroke="#F59E0B" stroke-width="1"/>
  <text x="772" y="543" font-size="10" fill="#F59E0B" text-anchor="middle">DatabasePool</text>
  <!-- Caption -->
  <text x="820" y="595" font-size="10" fill="#475569" text-anchor="middle" font-style="italic">Figure 1: Request flow through auth and data layers (auto-generated)</text>

  <!-- ==================== PREV / NEXT ==================== -->
  <rect x="260" y="870" width="920" height="1" fill="#1E2733"/>
  <rect x="308" y="884" width="200" height="52" rx="6" fill="#141920" stroke="#1E2733" stroke-width="1"/>
  <text x="320" y="904" font-size="10" fill="#475569">← Previous</text>
  <text x="320" y="922" font-size="11" fill="#94A3B8" font-weight="500">Introduction</text>
  <rect x="820" y="884" width="200" height="52" rx="6" fill="#141920" stroke="#1E2733" stroke-width="1"/>
  <text x="1008" y="904" font-size="10" fill="#475569" text-anchor="end">Next →</text>
  <text x="1008" y="922" font-size="11" fill="#94A3B8" font-weight="500" text-anchor="end">Installation</text>

  <!-- ==================== RIGHT RAIL: TOC ==================== -->
  <!-- 1180–1440 = 260px wide right rail -->
  <rect x="1180" y="48" width="260" height="912" fill="#0C1118" stroke="#1E2733" stroke-width="1"/>

  <!-- TOC header -->
  <text x="1196" y="82" font-size="10" font-weight="600" fill="#64748B" letter-spacing="0.06em">ON THIS PAGE</text>

  <!-- TOC items with scroll-spy active -->
  <!-- Core Components: active -->
  <rect x="1188" y="92" width="244" height="22" rx="3" fill="#162840"/>
  <rect x="1188" y="96" width="2" height="14" rx="1" fill="#22C55E"/>
  <text x="1202" y="107" font-size="11" fill="#22C55E" font-weight="500">Core Components</text>

  <!-- Sub-items (h3) -->
  <text x="1214" y="124" font-size="10" fill="#64748B">The Extractor</text>
  <text x="1214" y="142" font-size="10" fill="#64748B">The Indexer</text>
  <text x="1214" y="160" font-size="10" fill="#64748B">The GraphDB Layer</text>

  <text x="1202" y="182" font-size="11" fill="#64748B">REST API</text>
  <text x="1214" y="200" font-size="10" fill="#475569">Endpoints</text>
  <text x="1214" y="218" font-size="10" fill="#475569">Authentication</text>

  <text x="1202" y="240" font-size="11" fill="#64748B">MCP Protocol</text>
  <text x="1214" y="258" font-size="10" fill="#475569">Tools Overview</text>
  <text x="1214" y="276" font-size="10" fill="#475569">State Model</text>

  <text x="1202" y="298" font-size="11" fill="#64748B">Dashboard Surfaces</text>
  <text x="1202" y="318" font-size="11" fill="#64748B">Performance Notes</text>
  <text x="1202" y="338" font-size="11" fill="#64748B">Further Reading</text>

  <!-- TOC separator -->
  <rect x="1196" y="352" width="228" height="1" fill="#1E2733"/>

  <!-- Page entity link count hint -->
  <text x="1196" y="372" font-size="10" fill="#64748B">Linked entities</text>
  <text x="1420" y="372" font-size="10" fill="#22C55E" text-anchor="end">14</text>
  <text x="1196" y="388" font-size="10" fill="#475569">Hover</text>
  <rect x="1228" y="378" width="70" height="16" rx="8" fill="#141920" stroke="#1E2733" stroke-width="1"/>
  <text x="1263" y="390" font-size="8" fill="#94A3B8" text-anchor="middle" class="mono">BacktickSymbol</text>
  <text x="1304" y="388" font-size="10" fill="#475569">for card</text>

  <!-- [ANIM] reading progress: width animates on scroll via JS -->
  <!-- [ANIM] TOC: active item transitions on scroll with 80ms ease -->
  <!-- [ANIM] sidebar tree: accordion collapse/expand 200ms height ease-in-out -->
  <!-- [ANIM] EntityLink hover: 150ms fade-in hovercard below token -->
</svg>
