<?xml version="1.0" encoding="UTF-8"?>
<!-- Surface 5 — Docs Portal: View 2 Doc Content Page (code blocks, mermaid, hover-card preview) -->
<!-- + View 3 Search Overlay + View 4 Pattern Recipe Page (partial) -->
<svg width="1440" height="960" viewBox="0 0 1440 960" xmlns="http://www.w3.org/2000/svg" font-family="'Inter', 'SF Pro Display', system-ui, sans-serif">
  <defs>
    <style>
      text { font-family: 'Inter', 'SF Pro Display', system-ui, sans-serif; }
      .mono { font-family: 'JetBrains Mono', 'Fira Code', 'Consolas', monospace; }
    </style>
    <!-- Search overlay background blur -->
    <filter id="bgBlur">
      <feGaussianBlur stdDeviation="4"/>
    </filter>
  </defs>

  <!-- ==================== BACKGROUND (doc content page) ==================== -->
  <rect width="1440" height="960" fill="#0E1117"/>

  <!-- TOP NAV -->
  <rect width="1440" height="48" fill="#141920" stroke="#1E2733" stroke-width="1"/>
  <rect x="16" y="14" width="8" height="8" rx="2" fill="#22C55E"/>
  <rect x="28" y="14" width="8" height="8" rx="2" fill="#3B82F6"/>
  <text x="44" y="28" font-size="13" font-weight="600" fill="#E2E8F0" letter-spacing="-0.3px">archigraph</text>
  <text x="148" y="28" font-size="12" fill="#64748B">Graph</text>
  <text x="193" y="28" font-size="12" fill="#64748B">Flows</text>
  <text x="242" y="28" font-size="12" fill="#64748B">Topology</text>
  <text x="301" y="28" font-size="12" fill="#64748B">API</text>
  <rect x="326" y="6" width="46" height="36" rx="4" fill="#1E2733"/>
  <text x="349" y="28" font-size="12" font-weight="500" fill="#22C55E" text-anchor="middle">Docs</text>
  <!-- Search bar -->
  <rect x="700" y="10" width="320" height="28" rx="6" fill="#141920" stroke="#1E2733" stroke-width="1"/>
  <text x="716" y="28" font-size="11" fill="#475569">⌕</text>
  <text x="730" y="28" font-size="11" fill="#475569">Search documentation…</text>
  <rect x="1000" y="16" width="48" height="16" rx="3" fill="#1E2733"/>
  <text x="1024" y="28" font-size="9" fill="#64748B" text-anchor="middle">⌘K</text>
  <rect x="1340" y="12" width="56" height="24" rx="12" fill="#141920" stroke="#1E2733" stroke-width="1"/>
  <circle cx="1352" cy="24" r="8" fill="#1E2733"/>
  <text x="1352" y="28" font-size="9" fill="#94A3B8" text-anchor="middle">☽</text>
  <text x="1378" y="28" font-size="9" fill="#475569" text-anchor="middle">☀</text>
  <rect x="1200" y="10" width="132" height="28" rx="6" fill="#1E2733" stroke="#2D3748" stroke-width="1"/>
  <text x="1215" y="28" font-size="11" fill="#94A3B8">Group:</text>
  <text x="1260" y="28" font-size="11" font-weight="500" fill="#E2E8F0">acme-platform</text>
  <text x="1330" y="28" font-size="11" fill="#64748B">▾</text>
  <circle cx="1410" cy="24" r="14" fill="#1E2733" stroke="#2D3748" stroke-width="1"/>
  <text x="1410" y="29" font-size="11" fill="#94A3B8" text-anchor="middle">JC</text>

  <!-- Progress bar -->
  <rect x="260" y="48" width="920" height="3" fill="#1E2733"/>
  <rect x="260" y="48" width="580" height="3" fill="#22C55E"/>

  <!-- LEFT SIDEBAR (abbreviated) -->
  <rect x="0" y="48" width="260" height="912" fill="#0C1118" stroke="#1E2733" stroke-width="1"/>
  <rect x="12" y="62" width="236" height="28" rx="6" fill="#141920" stroke="#1E2733" stroke-width="1"/>
  <text x="38" y="80" font-size="11" fill="#334155">Filter pages…</text>
  <!-- Tree abbreviated -->
  <rect x="8" y="100" width="244" height="24" rx="4" fill="#141920"/>
  <text x="18" y="116" font-size="11" fill="#94A3B8">▾</text>
  <text x="32" y="116" font-size="11" font-weight="600" fill="#CBD5E1">Getting Started</text>
  <text x="46" y="140" font-size="11" fill="#64748B">Introduction</text>
  <text x="46" y="162" font-size="11" fill="#64748B">Architecture Overview</text>
  <text x="46" y="184" font-size="11" fill="#64748B">Installation</text>
  <!-- Active: Authentication Guide -->
  <rect x="8" y="192" width="244" height="22" rx="3" fill="#162840"/>
  <rect x="8" y="196" width="2" height="14" rx="1" fill="#22C55E"/>
  <text x="46" y="208" font-size="11" fill="#22C55E" font-weight="500">Auth Module Guide</text>
  <text x="46" y="228" font-size="11" fill="#64748B">Quick Start</text>
  <rect x="8" y="240" width="244" height="24" rx="4" fill="transparent"/>
  <text x="18" y="256" font-size="11" fill="#475569">▶</text>
  <text x="32" y="256" font-size="11" font-weight="600" fill="#94A3B8">Core Concepts</text>
  <rect x="8" y="270" width="244" height="24" rx="4" fill="transparent"/>
  <text x="18" y="286" font-size="11" fill="#475569">▶</text>
  <text x="32" y="286" font-size="11" font-weight="600" fill="#94A3B8">API Reference</text>

  <!-- ==================== MAIN CONTENT AREA ==================== -->
  <rect x="260" y="51" width="920" height="909" fill="#0E1117"/>

  <!-- Breadcrumbs -->
  <text x="308" y="80" font-size="11" fill="#475569">Getting Started</text>
  <text x="406" y="80" font-size="11" fill="#334155"> / </text>
  <text x="418" y="80" font-size="11" fill="#94A3B8">Auth Module Guide</text>

  <!-- Page title -->
  <text x="308" y="116" font-size="26" font-weight="700" fill="#E2E8F0" letter-spacing="-0.5px">Auth Module Guide</text>

  <!-- Meta -->
  <text x="308" y="140" font-size="11" fill="#475569">~12 min read · Last updated 2026-05-18</text>
  <rect x="520" y="130" width="60" height="18" rx="9" fill="#0D2020" stroke="#22C55E" stroke-width="1"/>
  <text x="550" y="143" font-size="9" fill="#22C55E" text-anchor="middle">acme-api</text>

  <rect x="308" y="152" width="820" height="1" fill="#1E2733"/>

  <!-- Body text -->
  <text x="308" y="176" font-size="14" fill="#94A3B8">This guide explains the authentication module, including the</text>
  <!-- EntityLink: UserPermission -->
  <rect x="700" y="162" width="104" height="20" rx="4" fill="#141920" stroke="#1E2733" stroke-width="1"/>
  <text x="752" y="177" font-size="13" fill="#22C55E" text-anchor="middle" class="mono">UserPermission</text>
  <text x="808" y="176" font-size="14" fill="#94A3B8">class and the</text>
  <!-- EntityLink: AuthMiddleware -->
  <rect x="900" y="162" width="104" height="20" rx="4" fill="#141920" stroke="#1E2733" stroke-width="1"/>
  <text x="952" y="177" font-size="13" fill="#22C55E" text-anchor="middle" class="mono">AuthMiddleware</text>
  <text x="308" y="200" font-size="14" fill="#94A3B8">pipeline. Hover any backtick symbol for a live entity card.</text>

  <!-- ==================== CODE BLOCK ==================== -->
  <rect x="308" y="220" width="820" height="164" rx="6" fill="#080D14" stroke="#1E2733" stroke-width="1"/>
  <!-- Code block header bar -->
  <rect x="308" y="220" width="820" height="28" rx="6" fill="#141920" stroke="#1E2733" stroke-width="0"/>
  <rect x="308" y="240" width="820" height="1" fill="#1E2733"/>
  <!-- Language label -->
  <rect x="320" y="228" width="44" height="16" rx="8" fill="#0D2418" stroke="#10B981" stroke-width="1"/>
  <text x="342" y="240" font-size="9" fill="#10B981" text-anchor="middle">Python</text>
  <!-- Copy button -->
  <rect x="1078" y="226" width="44" height="18" rx="4" fill="#1E2733"/>
  <text x="1100" y="239" font-size="9" fill="#64748B" text-anchor="middle">Copy</text>

  <!-- Line numbers + code -->
  <text x="326" y="268" font-size="11" fill="#334155" class="mono">1</text>
  <text x="350" y="268" font-size="11" fill="#64748B" class="mono">class</text>
  <text x="388" y="268" font-size="11" fill="#3B82F6" class="mono">UserPermission</text>
  <text x="502" y="268" font-size="11" fill="#94A3B8" class="mono">(BasePermission):</text>

  <text x="326" y="288" font-size="11" fill="#334155" class="mono">2</text>
  <text x="350" y="288" font-size="11" fill="#64748B" class="mono">    """Check that the user has the required permission level."""</text>

  <text x="326" y="308" font-size="11" fill="#334155" class="mono">3</text>
  <!-- Highlighted active line -->
  <rect x="308" y="298" width="820" height="18" fill="#162840" fill-opacity="0.5"/>
  <text x="350" y="311" font-size="11" fill="#A855F7" class="mono">    def</text>
  <text x="385" y="311" font-size="11" fill="#22C55E" class="mono">has_permission</text>
  <text x="488" y="311" font-size="11" fill="#94A3B8" class="mono">(self, request, view):</text>

  <text x="326" y="332" font-size="11" fill="#334155" class="mono">4</text>
  <text x="350" y="332" font-size="11" fill="#94A3B8" class="mono">        return request.user and request.user.</text>
  <text x="620" y="332" font-size="11" fill="#F59E0B" class="mono">is_authenticated</text>

  <text x="326" y="352" font-size="11" fill="#334155" class="mono">5</text>
  <text x="350" y="352" font-size="11" fill="#A855F7" class="mono">    def</text>
  <text x="385" y="352" font-size="11" fill="#22C55E" class="mono">has_object_permission</text>
  <text x="530" y="352" font-size="11" fill="#94A3B8" class="mono">(self, request, view, obj):</text>

  <text x="326" y="372" font-size="11" fill="#334155" class="mono">6</text>
  <text x="350" y="372" font-size="11" fill="#94A3B8" class="mono">        return obj.owner == request.user</text>

  <!-- Entity hovercard over UserPermission in code block (shown expanded) -->
  <!-- [ANIM] hovercard: 150ms fade+scale from token position; click opens Inspector in Graph -->
  <rect x="460" y="260" width="240" height="100" rx="6" fill="#141920" stroke="#1E2733" stroke-width="1.5"/>
  <!-- Arrow pointer -->
  <polygon points="500,258 510,250 520,258" fill="#141920" stroke="#1E2733" stroke-width="1"/>
  <!-- Hovercard content -->
  <rect x="472" y="270" width="44" height="16" rx="8" fill="#0D1A2E" stroke="#3B82F6" stroke-width="1"/>
  <text x="494" y="282" font-size="8" fill="#3B82F6" text-anchor="middle">Class</text>
  <text x="524" y="282" font-size="11" font-weight="600" fill="#E2E8F0" class="mono">UserPermission</text>
  <text x="472" y="298" font-size="9" fill="#475569" class="mono">auth/permissions.py:L89</text>
  <rect x="472" y="306" width="44" height="14" rx="7" fill="#0D2020" stroke="#22C55E" stroke-width="1"/>
  <text x="494" y="317" font-size="8" fill="#22C55E" text-anchor="middle">acme-api</text>
  <!-- Edges preview -->
  <text x="472" y="334" font-size="9" fill="#64748B">CALLS → </text>
  <text x="510" y="334" font-size="9" fill="#94A3B8" class="mono">HasPermission, check_permissions</text>
  <text x="472" y="350" font-size="9" fill="#64748B">IMPORTS → </text>
  <text x="516" y="350" font-size="9" fill="#94A3B8" class="mono">rest_framework.permissions</text>
  <!-- Open in graph link -->
  <text x="580" y="352" font-size="9" fill="#22C55E" text-anchor="end">View in Graph →</text>

  <!-- ==================== MERMAID DIAGRAM BLOCK ==================== -->
  <text x="308" y="416" font-size="16" font-weight="600" fill="#CBD5E1" letter-spacing="-0.2px">Request Flow</text>

  <rect x="308" y="428" width="820" height="132" rx="6" fill="#080D14" stroke="#1E2733" stroke-width="1"/>
  <!-- Mermaid badge -->
  <rect x="320" y="436" width="52" height="16" rx="8" fill="#0D2020" stroke="#22C55E" stroke-width="1"/>
  <text x="346" y="448" font-size="8" fill="#22C55E" text-anchor="middle">mermaid</text>
  <!-- Rendered mermaid diagram -->
  <text x="640" y="454" font-size="9" fill="#475569" text-anchor="middle">sequenceDiagram (rendered)</text>

  <!-- Simple sequence diagram visual -->
  <!-- Actor lanes -->
  <rect x="336" y="466" width="72" height="20" rx="4" fill="#0D1A2E" stroke="#3B82F6" stroke-width="1"/>
  <text x="372" y="480" font-size="9" fill="#3B82F6" text-anchor="middle">Browser</text>
  <line x1="372" y1="486" x2="372" y2="548" stroke="#3B82F6" stroke-width="1" stroke-dasharray="2,3" stroke-opacity="0.4"/>

  <rect x="540" y="466" width="86" height="20" rx="4" fill="#0D2418" stroke="#22C55E" stroke-width="1"/>
  <text x="583" y="480" font-size="9" fill="#22C55E" text-anchor="middle">AuthMiddleware</text>
  <line x1="583" y1="486" x2="583" y2="548" stroke="#22C55E" stroke-width="1" stroke-dasharray="2,3" stroke-opacity="0.4"/>

  <rect x="762" y="466" width="80" height="20" rx="4" fill="#1A1030" stroke="#8B5CF6" stroke-width="1"/>
  <text x="802" y="480" font-size="9" fill="#8B5CF6" text-anchor="middle">UserService</text>
  <line x1="802" y1="486" x2="802" y2="548" stroke="#8B5CF6" stroke-width="1" stroke-dasharray="2,3" stroke-opacity="0.4"/>

  <!-- Messages -->
  <line x1="372" y1="500" x2="575" y2="500" stroke="#64748B" stroke-width="1.2"/>
  <polygon points="575,497 575,503 581,500" fill="#64748B"/>
  <text x="478" y="496" font-size="8" fill="#64748B" text-anchor="middle">GET /api/users/me</text>

  <line x1="583" y1="514" x2="795" y2="514" stroke="#64748B" stroke-width="1.2"/>
  <polygon points="795,511 795,517 801,514" fill="#64748B"/>
  <text x="690" y="510" font-size="8" fill="#64748B" text-anchor="middle">check_permissions()</text>

  <line x1="795" y1="530" x2="583" y2="530" stroke="#64748B" stroke-width="1.2" stroke-dasharray="3,3"/>
  <polygon points="583,527 583,533 577,530" fill="#64748B"/>
  <text x="690" y="526" font-size="8" fill="#64748B" text-anchor="middle">UserPermission</text>

  <line x1="575" y1="544" x2="372" y2="544" stroke="#64748B" stroke-width="1.2" stroke-dasharray="3,3"/>
  <polygon points="372,541 372,547 366,544" fill="#64748B"/>
  <text x="478" y="540" font-size="8" fill="#64748B" text-anchor="middle">200 OK + user data</text>

  <!-- Caption -->
  <text x="718" y="554" font-size="10" fill="#475569" text-anchor="middle" font-style="italic">Auto-generated from archigraph traces ({{flow:auth-check-flow}})</text>

  <!-- ==================== PATTERN CALLOUT VIEW 4 (abbreviated inline) ==================== -->
  <text x="308" y="592" font-size="16" font-weight="600" fill="#CBD5E1" letter-spacing="-0.2px">Pattern: Tenant Route Prefix</text>

  <!-- Pattern callout block: {{pattern:tenant-prefix-route}} -->
  <rect x="308" y="606" width="820" height="112" rx="6" fill="#0D1A0E" stroke="#22C55E" stroke-width="1.5"/>
  <rect x="308" y="606" width="4" height="112" rx="2" fill="#22C55E"/>
  <!-- Header -->
  <rect x="324" y="614" width="106" height="18" rx="9" fill="#172A1F" stroke="#22C55E" stroke-width="1"/>
  <text x="377" y="627" font-size="9" fill="#22C55E" text-anchor="middle" font-weight="600">{{pattern:tenant-prefix-route}}</text>
  <!-- Description -->
  <text x="440" y="627" font-size="11" font-weight="600" fill="#E2E8F0">Tenant Prefix Route</text>
  <text x="324" y="648" font-size="12" fill="#94A3B8">All multi-tenant API routes must include a <tspan fill="#22C55E" class="mono">{tenant_id}</tspan> path parameter as the</text>
  <text x="324" y="664" font-size="12" fill="#94A3B8">first segment. This ensures request isolation at the routing layer.</text>
  <!-- Exemplars -->
  <text x="324" y="686" font-size="10" font-weight="600" fill="#64748B">Exemplars (12 found):</text>
  <!-- Exemplar chips -->
  <rect x="408" y="676" width="130" height="18" rx="9" fill="#141920" stroke="#1E2733" stroke-width="1"/>
  <text x="473" y="689" font-size="9" fill="#94A3B8" text-anchor="middle" class="mono">/api/{tenant_id}/users/</text>
  <rect x="544" y="676" width="150" height="18" rx="9" fill="#141920" stroke="#1E2733" stroke-width="1"/>
  <text x="619" y="689" font-size="9" fill="#94A3B8" text-anchor="middle" class="mono">/api/{tenant_id}/buildings/</text>
  <rect x="700" y="676" width="80" height="18" rx="9" fill="#141920" stroke="#22C55E" stroke-width="1"/>
  <text x="740" y="689" font-size="9" fill="#22C55E" text-anchor="middle">+10 more →</text>
  <!-- Anomaly notice -->
  <text x="324" y="710" font-size="10" fill="#64748B">⚠ 3 routes violate this pattern — </text>
  <text x="518" y="710" font-size="10" fill="#D97706">view violations →</text>

  <!-- ==================== RIGHT RAIL TOC ==================== -->
  <rect x="1180" y="48" width="260" height="912" fill="#0C1118" stroke="#1E2733" stroke-width="1"/>
  <text x="1196" y="82" font-size="10" font-weight="600" fill="#64748B" letter-spacing="0.06em">ON THIS PAGE</text>
  <text x="1202" y="106" font-size="11" fill="#64748B">Overview</text>
  <!-- Request Flow: active (scroll-spy) -->
  <rect x="1188" y="116" width="244" height="22" rx="3" fill="#162840"/>
  <rect x="1188" y="120" width="2" height="14" rx="1" fill="#22C55E"/>
  <text x="1202" y="131" font-size="11" fill="#22C55E" font-weight="500">Request Flow</text>
  <text x="1202" y="153" font-size="11" fill="#64748B">Pattern: Tenant Prefix</text>
  <text x="1202" y="173" font-size="11" fill="#64748B">JWT Token Lifecycle</text>
  <text x="1202" y="193" font-size="11" fill="#64748B">Permissions Reference</text>
  <text x="1202" y="213" font-size="11" fill="#64748B">Testing Auth</text>
  <rect x="1196" y="226" width="228" height="1" fill="#1E2733"/>
  <text x="1196" y="244" font-size="10" fill="#64748B">Linked entities on page</text>
  <text x="1420" y="244" font-size="10" fill="#22C55E" text-anchor="end">8</text>

  <!-- ==================== SEARCH OVERLAY (foreground layer) ==================== -->
  <!-- Background scrim -->
  <rect x="0" y="0" width="1440" height="960" fill="#060912" fill-opacity="0.72"/>

  <!-- Search modal -->
  <rect x="420" y="220" width="600" height="440" rx="10" fill="#0E1117" stroke="#1E2733" stroke-width="1.5"/>

  <!-- Search input row -->
  <rect x="420" y="220" width="600" height="56" rx="10" fill="#141920" stroke="#1E2733" stroke-width="0"/>
  <rect x="420" y="268" width="600" height="1" fill="#1E2733"/>
  <text x="446" y="252" font-size="16" fill="#475569">⌕</text>
  <!-- Active caret/input -->
  <text x="472" y="252" font-size="14" fill="#E2E8F0" class="mono">UserPermission</text>
  <rect x="638" y="237" width="2" height="18" rx="1" fill="#22C55E"/>
  <!-- Clear -->
  <rect x="950" y="238" width="24" height="22" rx="6" fill="#1E2733"/>
  <text x="962" y="253" font-size="11" fill="#64748B" text-anchor="middle">×</text>
  <!-- Kbd hint -->
  <rect x="984" y="238" width="26" height="22" rx="4" fill="#1E2733"/>
  <text x="997" y="253" font-size="9" fill="#64748B" text-anchor="middle">esc</text>

  <!-- Search results: Type tabs -->
  <rect x="432" y="276" width="78" height="24" rx="6" fill="#172A1F" stroke="#22C55E" stroke-width="1"/>
  <text x="471" y="292" font-size="10" fill="#22C55E" text-anchor="middle" font-weight="500">All (14)</text>
  <text x="528" y="292" font-size="10" fill="#64748B">Docs (4)</text>
  <text x="585" y="292" font-size="10" fill="#64748B">Entities (8)</text>
  <text x="640" y="292" font-size="10" fill="#64748B">API (2)</text>
  <rect x="432" y="298" width="576" height="1" fill="#1E2733"/>

  <!-- Result items -->
  <!-- Result 1: Docs match (active) -->
  <rect x="432" y="306" width="576" height="56" rx="4" fill="#162840"/>
  <!-- Doc icon -->
  <rect x="446" y="320" width="16" height="20" rx="2" fill="#0D2020" stroke="#22C55E" stroke-width="1"/>
  <text x="454" y="334" font-size="9" fill="#22C55E" text-anchor="middle">≡</text>
  <text x="474" y="325" font-size="12" font-weight="500" fill="#E2E8F0">Auth Module Guide</text>
  <rect x="474" y="334" width="370" height="18" rx="3" fill="#0A1020"/>
  <text x="480" y="347" font-size="10" fill="#64748B">…the <tspan fill="#E2E8F0" font-weight="600">UserPermission</tspan> class and <tspan fill="#E2E8F0" font-weight="600">AuthMiddleware</tspan> pipeline…</text>
  <text x="996" y="325" font-size="9" fill="#64748B" text-anchor="end">Getting Started</text>

  <!-- Result 2: Entity match -->
  <rect x="432" y="366" width="576" height="56" rx="4" fill="transparent"/>
  <rect x="432" y="366" width="576" height="1" fill="#1E2733"/>
  <rect x="446" y="380" width="36" height="14" rx="7" fill="#0D1A2E" stroke="#3B82F6" stroke-width="1"/>
  <text x="464" y="391" font-size="8" fill="#3B82F6" text-anchor="middle">Class</text>
  <text x="492" y="385" font-size="12" fill="#E2E8F0" class="mono">UserPermission</text>
  <text x="492" y="403" font-size="10" fill="#64748B" class="mono">auth/permissions.py:L89 · acme-api</text>
  <text x="996" y="385" font-size="9" fill="#22C55E" text-anchor="end">Open in Graph →</text>

  <!-- Result 3: Entity match 2 -->
  <rect x="432" y="426" width="576" height="56" rx="4" fill="transparent"/>
  <rect x="432" y="426" width="576" height="1" fill="#1E2733"/>
  <rect x="446" y="440" width="52" height="14" rx="7" fill="#0D2418" stroke="#10B981" stroke-width="1"/>
  <text x="472" y="451" font-size="8" fill="#10B981" text-anchor="middle">Function</text>
  <text x="508" y="445" font-size="12" fill="#E2E8F0" class="mono">check_permissions</text>
  <text x="508" y="463" font-size="10" fill="#64748B" class="mono">auth/permissions.py:L103 · acme-api</text>

  <!-- Result 4: API path match -->
  <rect x="432" y="486" width="576" height="56" rx="4" fill="transparent"/>
  <rect x="432" y="486" width="576" height="1" fill="#1E2733"/>
  <rect x="446" y="500" width="26" height="14" rx="7" fill="#0D1A2E" stroke="#3B82F6" stroke-width="1"/>
  <text x="459" y="511" font-size="8" fill="#3B82F6" text-anchor="middle">GET</text>
  <text x="484" y="505" font-size="12" fill="#E2E8F0" class="mono">/api/v1/users/permissions/</text>
  <text x="484" y="523" font-size="10" fill="#64748B">UserPermissionsViewSet · acme-api</text>
  <text x="996" y="505" font-size="9" fill="#3B82F6" text-anchor="end">Open in API →</text>

  <!-- Result 5: Entity match 3 -->
  <rect x="432" y="546" width="576" height="56" rx="4" fill="transparent"/>
  <rect x="432" y="546" width="576" height="1" fill="#1E2733"/>
  <rect x="446" y="560" width="36" height="14" rx="7" fill="#0D1A2E" stroke="#3B82F6" stroke-width="1"/>
  <text x="464" y="571" font-size="8" fill="#3B82F6" text-anchor="middle">Class</text>
  <text x="492" y="565" font-size="12" fill="#94A3B8" class="mono">UserPermissionSerializer</text>
  <text x="492" y="583" font-size="10" fill="#475569" class="mono">auth/serializers.py:L44 · acme-api</text>

  <!-- Footer hints -->
  <rect x="420" y="622" width="600" height="38" rx="10" fill="#0C1118" stroke="#1E2733" stroke-width="0"/>
  <rect x="420" y="622" width="600" height="1" fill="#1E2733"/>
  <text x="440" y="646" font-size="9" fill="#475569">↑↓ navigate</text>
  <rect x="500" y="634" width="28" height="16" rx="3" fill="#1E2733"/>
  <text x="514" y="646" font-size="8" fill="#64748B" text-anchor="middle">↵</text>
  <text x="536" y="646" font-size="9" fill="#475569">select</text>
  <rect x="572" y="634" width="28" height="16" rx="3" fill="#1E2733"/>
  <text x="586" y="646" font-size="8" fill="#64748B" text-anchor="middle">esc</text>
  <text x="608" y="646" font-size="9" fill="#475569">close</text>
  <text x="980" y="646" font-size="9" fill="#334155" text-anchor="end">14 results</text>

  <!-- [ANIM] search overlay: fade-in 200ms, backdrop: blur + opacity 0→0.72 -->
  <!-- [ANIM] result hover: bg highlight 80ms ease -->
  <!-- [ANIM] result selection: navigate + close 150ms -->
</svg>
