<?xml version="1.0" encoding="UTF-8"?>
<!-- Surface 5 — Docs Portal: Light/Dark theme side-by-side + Mobile breakpoint treatment -->
<svg width="1440" height="960" viewBox="0 0 1440 960" xmlns="http://www.w3.org/2000/svg" font-family="'Inter', 'SF Pro Display', system-ui, sans-serif">
  <defs>
    <style>
      text { font-family: 'Inter', 'SF Pro Display', system-ui, sans-serif; }
      .mono { font-family: 'JetBrains Mono', 'Fira Code', 'Consolas', monospace; }
    </style>
  </defs>

  <!-- CANVAS background -->
  <rect width="1440" height="960" fill="#1A1F2E"/>

  <!-- Frame labels -->
  <text x="12" y="22" font-size="11" fill="#64748B" font-weight="600" letter-spacing="0.08em">DARK MODE (default)</text>
  <text x="732" y="22" font-size="11" fill="#64748B" font-weight="600" letter-spacing="0.08em">LIGHT MODE (CSS var inversion)</text>
  <text x="1260" y="22" font-size="11" fill="#64748B" font-weight="600" letter-spacing="0.08em">MOBILE (≤768px)</text>

  <!-- Dividers -->
  <rect x="720" y="0" width="1" height="960" fill="#2D3748"/>
  <rect x="1240" y="0" width="1" height="960" fill="#2D3748"/>

  <!-- ===========================
       DARK MODE FRAME (left, 720px)
       =========================== -->
  <rect x="0" y="30" width="720" height="930" fill="#0E1117"/>

  <!-- Nav -->
  <rect x="0" y="30" width="720" height="44" fill="#141920" stroke="#1E2733" stroke-width="1"/>
  <rect x="12" y="44" width="8" height="8" rx="2" fill="#22C55E"/>
  <rect x="24" y="44" width="8" height="8" rx="2" fill="#3B82F6"/>
  <text x="40" y="58" font-size="12" font-weight="600" fill="#E2E8F0">archigraph</text>
  <text x="140" y="58" font-size="11" fill="#64748B">Graph</text>
  <text x="178" y="58" font-size="11" fill="#64748B">Flows</text>
  <text x="216" y="58" font-size="11" fill="#64748B">Topology</text>
  <text x="262" y="58" font-size="11" fill="#64748B">API</text>
  <rect x="284" y="36" width="40" height="32" rx="4" fill="#1E2733"/>
  <text x="304" y="56" font-size="11" font-weight="500" fill="#22C55E" text-anchor="middle">Docs</text>
  <!-- Search -->
  <rect x="360" y="38" width="240" height="24" rx="5" fill="#141920" stroke="#1E2733" stroke-width="1"/>
  <text x="374" y="54" font-size="10" fill="#475569">⌕  Search docs…</text>
  <rect x="612" y="44" width="40" height="14" rx="3" fill="#1E2733"/>
  <text x="632" y="55" font-size="8" fill="#64748B" text-anchor="middle">⌘K</text>
  <!-- Theme toggle: dark active -->
  <rect x="664" y="38" width="44" height="24" rx="12" fill="#141920" stroke="#1E2733" stroke-width="1"/>
  <circle cx="676" cy="50" r="8" fill="#1E2733"/>
  <text x="676" y="54" font-size="8" fill="#E2E8F0" text-anchor="middle">☽</text>
  <text x="698" y="54" font-size="8" fill="#475569" text-anchor="middle">☀</text>

  <!-- Sidebar dark -->
  <rect x="0" y="74" width="180" height="886" fill="#0C1118" stroke="#1E2733" stroke-width="1"/>
  <text x="12" y="96" font-size="10" fill="#475569" letter-spacing="0.05em">Getting Started</text>
  <text x="12" y="116" font-size="10" fill="#64748B">· Introduction</text>
  <!-- Active item dark -->
  <rect x="0" y="122" width="180" height="20" rx="3" fill="#162840"/>
  <rect x="0" y="126" width="2" height="12" rx="1" fill="#22C55E"/>
  <text x="16" y="136" font-size="10" fill="#22C55E" font-weight="500">· Auth Module Guide</text>
  <text x="12" y="154" font-size="10" fill="#64748B">· Installation</text>
  <text x="12" y="172" font-size="10" fill="#64748B">· Quick Start</text>
  <text x="8" y="192" font-size="10" fill="#64748B">▶ Core Concepts</text>
  <text x="8" y="212" font-size="10" fill="#64748B">▶ API Reference</text>

  <!-- Content dark -->
  <rect x="180" y="74" width="540" height="886" fill="#0E1117"/>
  <!-- Progress bar -->
  <rect x="180" y="74" width="540" height="3" fill="#1E2733"/>
  <rect x="180" y="74" width="270" height="3" fill="#22C55E"/>

  <text x="204" y="100" font-size="8" fill="#475569">Getting Started / </text>
  <text x="286" y="100" font-size="8" fill="#94A3B8">Auth Module Guide</text>

  <text x="204" y="126" font-size="22" font-weight="700" fill="#E2E8F0" letter-spacing="-0.4px">Auth Module Guide</text>
  <text x="204" y="144" font-size="10" fill="#475569">~12 min read · 2026-05-18</text>
  <rect x="204" y="152" width="540" height="1" fill="#1E2733"/>

  <text x="204" y="172" font-size="12" fill="#94A3B8">This guide covers the authentication module,</text>
  <text x="204" y="188" font-size="12" fill="#94A3B8">including the</text>
  <!-- EntityLink dark -->
  <rect x="278" y="174" width="88" height="18" rx="3" fill="#141920" stroke="#1E2733" stroke-width="1"/>
  <text x="322" y="187" font-size="11" fill="#22C55E" text-anchor="middle" class="mono">UserPermission</text>
  <text x="370" y="188" font-size="12" fill="#94A3B8">class.</text>

  <!-- Code block dark -->
  <rect x="204" y="206" width="496" height="110" rx="5" fill="#080D14" stroke="#1E2733" stroke-width="1"/>
  <rect x="204" y="206" width="496" height="24" rx="5" fill="#141920" stroke="#1E2733" stroke-width="0"/>
  <rect x="204" y="222" width="496" height="1" fill="#1E2733"/>
  <rect x="214" y="212" width="40" height="14" rx="7" fill="#0D2418" stroke="#10B981" stroke-width="1"/>
  <text x="234" y="223" font-size="8" fill="#10B981" text-anchor="middle">Python</text>
  <rect x="654" y="210" width="36" height="14" rx="4" fill="#1E2733"/>
  <text x="672" y="221" font-size="8" fill="#64748B" text-anchor="middle">Copy</text>

  <text x="218" y="246" font-size="10" fill="#334155" class="mono">1</text>
  <text x="234" y="246" font-size="10" fill="#64748B" class="mono">class</text>
  <text x="267" y="246" font-size="10" fill="#3B82F6" class="mono">UserPermission</text>
  <text x="375" y="246" font-size="10" fill="#94A3B8" class="mono">(BasePermission):</text>
  <text x="218" y="264" font-size="10" fill="#334155" class="mono">2</text>
  <text x="234" y="264" font-size="10" fill="#A855F7" class="mono">    def</text>
  <text x="268" y="264" font-size="10" fill="#22C55E" class="mono">has_permission</text>
  <text x="362" y="264" font-size="10" fill="#94A3B8" class="mono">(self, request, view):</text>
  <text x="218" y="282" font-size="10" fill="#334155" class="mono">3</text>
  <text x="234" y="282" font-size="10" fill="#94A3B8" class="mono">        return request.user.</text>
  <text x="372" y="282" font-size="10" fill="#F59E0B" class="mono">is_authenticated</text>

  <!-- Token colors label -->
  <rect x="204" y="324" width="496" height="40" rx="4" fill="#0D1A2E" stroke="#1E2733" stroke-width="1"/>
  <text x="218" y="340" font-size="9" fill="#64748B">Dark token values: bg</text>
  <rect x="308" y="330" width="30" height="14" rx="3" fill="#0E1117" stroke="#1E2733" stroke-width="1"/>
  <text x="323" y="341" font-size="8" fill="#475569" text-anchor="middle">#0E1117</text>
  <text x="344" y="340" font-size="9" fill="#64748B">surface</text>
  <rect x="390" y="330" width="30" height="14" rx="3" fill="#141920" stroke="#1E2733" stroke-width="1"/>
  <text x="405" y="341" font-size="8" fill="#475569" text-anchor="middle">#141920</text>
  <text x="422" y="340" font-size="9" fill="#64748B">code bg</text>
  <rect x="468" y="330" width="30" height="14" rx="3" fill="#080D14" stroke="#1E2733" stroke-width="1"/>
  <text x="483" y="341" font-size="8" fill="#475569" text-anchor="middle">#080D14</text>
  <text x="218" y="358" font-size="9" fill="#64748B">text: primary</text>
  <rect x="296" y="348" width="30" height="14" rx="3" fill="#E2E8F0"/>
  <text x="311" y="359" font-size="8" fill="#141920" text-anchor="middle">#E2E8F0</text>
  <text x="332" y="358" font-size="9" fill="#64748B">secondary</text>
  <rect x="394" y="348" width="30" height="14" rx="3" fill="#94A3B8"/>
  <text x="409" y="359" font-size="8" fill="#141920" text-anchor="middle">#94A3B8</text>
  <text x="430" y="358" font-size="9" fill="#64748B">muted</text>
  <rect x="470" y="348" width="30" height="14" rx="3" fill="#64748B"/>
  <text x="485" y="359" font-size="8" fill="#141920" text-anchor="middle">#64748B</text>

  <!-- ===========================
       LIGHT MODE FRAME (mid, 520px)
       =========================== -->
  <rect x="721" y="30" width="519" height="930" fill="#FAFAFA"/>

  <!-- Nav light -->
  <rect x="721" y="30" width="519" height="44" fill="#FFFFFF" stroke="#E2E8F0" stroke-width="1"/>
  <rect x="733" y="44" width="8" height="8" rx="2" fill="#22C55E"/>
  <rect x="745" y="44" width="8" height="8" rx="2" fill="#3B82F6"/>
  <text x="760" y="58" font-size="12" font-weight="600" fill="#0F172A">archigraph</text>
  <text x="860" y="58" font-size="11" fill="#94A3B8">Graph</text>
  <text x="898" y="58" font-size="11" fill="#94A3B8">Flows</text>
  <rect x="924" y="36" width="40" height="32" rx="4" fill="#F1F5F9"/>
  <text x="944" y="56" font-size="11" font-weight="500" fill="#22C55E" text-anchor="middle">Docs</text>
  <!-- Search -->
  <rect x="980" y="38" width="200" height="24" rx="5" fill="#F8FAFC" stroke="#E2E8F0" stroke-width="1"/>
  <text x="994" y="54" font-size="10" fill="#94A3B8">⌕  Search docs…</text>
  <!-- Theme toggle: light active -->
  <rect x="1192" y="38" width="44" height="24" rx="12" fill="#F1F5F9" stroke="#E2E8F0" stroke-width="1"/>
  <text x="1204" y="54" font-size="8" fill="#94A3B8" text-anchor="middle">☽</text>
  <circle cx="1224" cy="50" r="8" fill="#E2E8F0"/>
  <text x="1224" y="54" font-size="8" fill="#0F172A" text-anchor="middle">☀</text>

  <!-- Sidebar light -->
  <rect x="721" y="74" width="160" height="886" fill="#FFFFFF" stroke="#E2E8F0" stroke-width="1"/>
  <text x="733" y="96" font-size="10" fill="#94A3B8" letter-spacing="0.05em">Getting Started</text>
  <text x="733" y="116" font-size="10" fill="#64748B">· Introduction</text>
  <!-- Active item light -->
  <rect x="721" y="122" width="160" height="20" rx="3" fill="#F0FDF4"/>
  <rect x="721" y="126" width="2" height="12" rx="1" fill="#22C55E"/>
  <text x="737" y="136" font-size="10" fill="#16A34A" font-weight="500">· Auth Module Guide</text>
  <text x="733" y="154" font-size="10" fill="#94A3B8">· Installation</text>
  <text x="733" y="172" font-size="10" fill="#94A3B8">· Quick Start</text>
  <text x="729" y="192" font-size="10" fill="#94A3B8">▶ Core Concepts</text>
  <text x="729" y="212" font-size="10" fill="#94A3B8">▶ API Reference</text>

  <!-- Content light -->
  <rect x="881" y="74" width="359" height="886" fill="#FAFAFA"/>
  <!-- Progress bar light -->
  <rect x="881" y="74" width="359" height="3" fill="#E2E8F0"/>
  <rect x="881" y="74" width="180" height="3" fill="#22C55E"/>

  <text x="901" y="100" font-size="8" fill="#94A3B8">Getting Started / </text>
  <text x="971" y="100" font-size="8" fill="#475569">Auth Module Guide</text>

  <text x="901" y="126" font-size="20" font-weight="700" fill="#0F172A" letter-spacing="-0.4px">Auth Module Guide</text>
  <text x="901" y="144" font-size="10" fill="#94A3B8">~12 min read · 2026-05-18</text>
  <rect x="901" y="152" width="330" height="1" fill="#E2E8F0"/>

  <text x="901" y="172" font-size="12" fill="#475569">This guide covers the authentication module,</text>
  <text x="901" y="188" font-size="12" fill="#475569">including the</text>
  <!-- EntityLink light -->
  <rect x="975" y="174" width="88" height="18" rx="3" fill="#F1F5F9" stroke="#E2E8F0" stroke-width="1"/>
  <text x="1019" y="187" font-size="11" fill="#16A34A" text-anchor="middle" class="mono">UserPermission</text>
  <text x="1067" y="188" font-size="12" fill="#475569">class.</text>

  <!-- Code block light -->
  <rect x="901" y="206" width="330" height="110" rx="5" fill="#F8FAFC" stroke="#E2E8F0" stroke-width="1"/>
  <rect x="901" y="206" width="330" height="24" rx="5" fill="#F1F5F9" stroke="#E2E8F0" stroke-width="0"/>
  <rect x="901" y="222" width="330" height="1" fill="#E2E8F0"/>
  <rect x="911" y="212" width="40" height="14" rx="7" fill="#DCFCE7" stroke="#22C55E" stroke-width="1"/>
  <text x="931" y="223" font-size="8" fill="#16A34A" text-anchor="middle">Python</text>

  <!-- Line numbers light -->
  <text x="913" y="246" font-size="10" fill="#CBD5E1" class="mono">1</text>
  <text x="927" y="246" font-size="10" fill="#94A3B8" class="mono">class</text>
  <text x="959" y="246" font-size="10" fill="#1D4ED8" class="mono">UserPermission</text>
  <text x="1061" y="246" font-size="10" fill="#0F172A" class="mono">(BasePermission):</text>
  <text x="913" y="264" font-size="10" fill="#CBD5E1" class="mono">2</text>
  <text x="927" y="264" font-size="10" fill="#7C3AED" class="mono">    def</text>
  <text x="957" y="264" font-size="10" fill="#16A34A" class="mono">has_permission</text>
  <text x="1050" y="264" font-size="10" fill="#0F172A" class="mono">(self, ...):</text>
  <text x="913" y="282" font-size="10" fill="#CBD5E1" class="mono">3</text>
  <text x="927" y="282" font-size="10" fill="#0F172A" class="mono">        return request.user.</text>
  <text x="1082" y="282" font-size="10" fill="#D97706" class="mono">is_authenticated</text>

  <!-- Token colors label light -->
  <rect x="901" y="324" width="330" height="40" rx="4" fill="#EFF6FF" stroke="#DBEAFE" stroke-width="1"/>
  <text x="915" y="340" font-size="9" fill="#64748B">Light token values: bg</text>
  <rect x="998" y="330" width="30" height="14" rx="3" fill="#FAFAFA" stroke="#E2E8F0" stroke-width="1"/>
  <text x="1013" y="341" font-size="8" fill="#475569" text-anchor="middle">#FAFAFA</text>
  <text x="1034" y="340" font-size="9" fill="#64748B">surface</text>
  <rect x="1078" y="330" width="30" height="14" rx="3" fill="#FFFFFF" stroke="#E2E8F0" stroke-width="1"/>
  <text x="1093" y="341" font-size="8" fill="#475569" text-anchor="middle">#FFFFFF</text>
  <text x="1114" y="340" font-size="9" fill="#64748B">code</text>
  <rect x="1150" y="330" width="30" height="14" rx="3" fill="#F8FAFC" stroke="#E2E8F0" stroke-width="1"/>
  <text x="1165" y="341" font-size="8" fill="#475569" text-anchor="middle">#F8FAFC</text>
  <text x="915" y="358" font-size="9" fill="#64748B">text: primary</text>
  <rect x="990" y="348" width="30" height="14" rx="3" fill="#0F172A"/>
  <text x="1005" y="359" font-size="8" fill="#E2E8F0" text-anchor="middle">#0F172A</text>
  <text x="1026" y="358" font-size="9" fill="#64748B">secondary</text>
  <rect x="1090" y="348" width="30" height="14" rx="3" fill="#475569"/>
  <text x="1105" y="359" font-size="8" fill="#E2E8F0" text-anchor="middle">#475569</text>
  <text x="1126" y="358" font-size="9" fill="#64748B">muted</text>
  <rect x="1168" y="348" width="30" height="14" rx="3" fill="#94A3B8"/>
  <text x="1183" y="359" font-size="8" fill="#0F172A" text-anchor="middle">#94A3B8</text>

  <!-- Theme note -->
  <rect x="901" y="374" width="330" height="46" rx="4" fill="#FFFFFF" stroke="#E2E8F0" stroke-width="1"/>
  <text x="915" y="392" font-size="9" font-weight="600" fill="#0F172A">Light mode note</text>
  <text x="915" y="408" font-size="9" fill="#64748B">CSS vars only; no component logic changes.</text>
  <text x="915" y="420" font-size="9" fill="#94A3B8">data-theme="light" on html element.</text>

  <!-- ===========================
       MOBILE FRAME (right, 200px)
       =========================== -->
  <!-- Mobile phone mock -->
  <rect x="1258" y="30" width="182" height="930" fill="#1A1F2E"/>

  <!-- Phone body outline -->
  <rect x="1268" y="52" width="162" height="290" rx="12" fill="#0C1118" stroke="#2D3748" stroke-width="2"/>
  <!-- Phone notch -->
  <rect x="1334" y="54" width="30" height="8" rx="4" fill="#1A1F2E"/>

  <!-- Mobile nav bar (condensed) -->
  <rect x="1268" y="62" width="162" height="36" fill="#141920" stroke="#1E2733" stroke-width="1"/>
  <!-- Hamburger menu icon -->
  <rect x="1278" y="72" width="12" height="2" rx="1" fill="#94A3B8"/>
  <rect x="1278" y="77" width="12" height="2" rx="1" fill="#94A3B8"/>
  <rect x="1278" y="82" width="12" height="2" rx="1" fill="#94A3B8"/>
  <!-- Logo -->
  <rect x="1298" y="69" width="6" height="6" rx="1" fill="#22C55E"/>
  <rect x="1308" y="69" width="6" height="6" rx="1" fill="#3B82F6"/>
  <text x="1320" y="78" font-size="9" font-weight="600" fill="#E2E8F0">archigraph</text>
  <!-- Search icon -->
  <text x="1406" y="80" font-size="12" fill="#94A3B8">⌕</text>
  <text x="1418" y="80" font-size="12" fill="#94A3B8">☰</text>

  <!-- Mobile content (no sidebar, single column) -->
  <rect x="1268" y="98" width="162" height="244" fill="#0E1117"/>
  <!-- Progress bar mobile -->
  <rect x="1268" y="98" width="162" height="2" fill="#1E2733"/>
  <rect x="1268" y="98" width="80" height="2" fill="#22C55E"/>

  <!-- Breadcrumb mobile (truncated) -->
  <text x="1280" y="116" font-size="8" fill="#475569">…/ Auth Module Guide</text>

  <!-- Title mobile -->
  <text x="1280" y="134" font-size="14" font-weight="700" fill="#E2E8F0" letter-spacing="-0.3px">Auth Module</text>
  <text x="1280" y="150" font-size="14" font-weight="700" fill="#E2E8F0" letter-spacing="-0.3px">Guide</text>
  <text x="1280" y="164" font-size="8" fill="#475569">~12 min · 2026-05-18</text>
  <rect x="1280" y="170" width="162" height="1" fill="#1E2733"/>

  <!-- Body text mobile -->
  <text x="1280" y="186" font-size="9" fill="#94A3B8">This guide covers the auth</text>
  <text x="1280" y="199" font-size="9" fill="#94A3B8">module, including the</text>
  <rect x="1280" y="204" width="72" height="16" rx="3" fill="#141920" stroke="#1E2733" stroke-width="1"/>
  <text x="1316" y="216" font-size="8" fill="#22C55E" text-anchor="middle" class="mono">UserPermission</text>
  <text x="1280" y="228" font-size="9" fill="#94A3B8">class and pipeline.</text>

  <!-- Code block mobile (scrollable, hint) -->
  <rect x="1280" y="238" width="144" height="66" rx="4" fill="#080D14" stroke="#1E2733" stroke-width="1"/>
  <rect x="1280" y="238" width="144" height="18" rx="4" fill="#141920" stroke="#1E2733" stroke-width="0"/>
  <rect x="1280" y="248" width="144" height="1" fill="#1E2733"/>
  <rect x="1288" y="242" width="26" height="10" rx="5" fill="#0D2418" stroke="#10B981" stroke-width="1"/>
  <text x="1301" y="250" font-size="7" fill="#10B981" text-anchor="middle">Python</text>
  <text x="1292" y="264" font-size="8" fill="#334155" class="mono">1</text>
  <text x="1302" y="264" font-size="8" fill="#64748B" class="mono">class</text>
  <text x="1328" y="264" font-size="8" fill="#3B82F6" class="mono">UserPermission</text>
  <text x="1292" y="280" font-size="8" fill="#334155" class="mono">2</text>
  <text x="1302" y="280" font-size="8" fill="#A855F7" class="mono">    def</text>
  <text x="1328" y="280" font-size="8" fill="#22C55E" class="mono">has_permission</text>
  <!-- Horizontal scroll indicator -->
  <rect x="1280" y="300" width="144" height="4" rx="2" fill="#1E2733"/>
  <rect x="1280" y="300" width="50" height="4" rx="2" fill="#3B82F6"/>

  <!-- Mobile: TOC collapsed button -->
  <rect x="1280" y="310" width="144" height="24" rx="4" fill="#141920" stroke="#1E2733" stroke-width="1"/>
  <text x="1288" y="326" font-size="9" fill="#64748B">On this page ▾</text>
  <text x="1418" y="326" font-size="9" fill="#475569" text-anchor="end">6 headings</text>

  <!-- Mobile annotation callout -->
  <rect x="1268" y="358" width="162" height="52" rx="4" fill="#0E1520" stroke="#1E2733" stroke-width="1"/>
  <text x="1278" y="373" font-size="9" font-weight="600" fill="#94A3B8">≤768px breakpoint</text>
  <text x="1278" y="387" font-size="8" fill="#64748B">Sidebar: hidden → drawer</text>
  <text x="1278" y="400" font-size="8" fill="#64748B">TOC: inline collapsed</text>
  <text x="1278" y="412" font-size="8" fill="#475569">Nav: hamburger → Sheet</text>

  <!-- Mobile drawer open state hint -->
  <rect x="1268" y="420" width="162" height="24" rx="4" fill="#141920" stroke="#1E2733" stroke-width="1"/>
  <text x="1278" y="436" font-size="9" fill="#64748B">Drawer: Sheet (Radix UI)</text>
  <text x="1278" y="453" font-size="8" fill="#64748B">slide from left, 250ms ease</text>
  <!-- [ANIM] drawer: translateX(-100%)→translateX(0), 250ms ease-out, overlay backdrop 200ms -->
</svg>
